{"glyphs":{"0":{"ha":0,"x_min":0,"x_max":0,"o":"b 564 -137 120 0 564 -14 b 806 23 564 -213 684 23 b 760 NaN 884 23 760 -212 "},"1":{"ha":-130,"x_min":0,"x_max":0,"o":"m 480 982 l 311 982 l 68 825 l 68 663 l 297 810 l 302 810 l 302 0 l 480 0 z "},"2":{"ha":0,"x_min":0,"x_max":0,"o":""},"3":{"ha":111,"x_min":0,"x_max":0,"o":"m 438 -14 b 804 273 651 -14 806 107 l 627 273 b 990 -7 631 107 780 -7 z "},"4":{"ha":0,"x_min":0,"x_max":0,"o":""},"5":{"ha":90,"x_min":0,"x_max":0,"o":"m 430 -14 l 578 -14 l 578 -594 z "},"6":{"ha":112,"x_min":0,"x_max":0,"o":"m 449 -14 b 811 326 666 -15 811 130 b 499 644 811 511 675 644 b 247 510 392 644 297 594 l 237 510 b 460 842 237 716 317 842 b 627 718 549 842 609 792 l 802 718 b 460 996 780 876 650 996 b 66 464 220 996 66 800 b 449 -14 65 102 258 -12 z m 449 129 b 541 19 369 18 457 19 b NaN NaN 628 19 738 NaN b NaN NaN NaN NaN NaN NaN b NaN NaN NaN NaN NaN NaN z "},"7":{"ha":21,"x_min":0,"x_max":0,"o":"m 118 0 l 301 0 l 727 831 l 727 982 l 50 982 l 50 834 l 544 834 l 544 827 z "},"8":{"ha":109,"x_min":0,"x_max":0,"o":"m 438 -14 b 811 263 655 -14 811 103 b 600 509 811 388 718 490 l 600 514 b 773 732 701 536 773 625 b 438 996 773 884 631 996 b 102 732 244 996 102 884 b 275 514 102 625 172 536 l 275 509 b 65 263 157 490 65 388 b 438 -14 65 103 220 -14 z m 438 126 b 327 189 321 126 245 189 b NaN NaN 395 189 506 NaN b NaN NaN NaN NaN NaN NaN b NaN NaN NaN NaN NaN NaN z m NaN NaN b NaN NaN NaN NaN NaN NaN b NaN NaN NaN NaN NaN NaN b NaN NaN NaN NaN NaN NaN b NaN NaN NaN NaN NaN NaN z "},"9":{"ha":112,"x_min":0,"x_max":0,"o":"m 430 996 b 68 659 212 997 68 852 b 380 340 69 473 205 340 b 632 476 488 340 582 391 l 643 476 b 419 140 642 266 562 140 b 252 267 330 140 270 190 l 77 267 b 419 -14 99 104 229 -14 b 814 521 661 -14 814 182 b 430 996 812 880 623 994 z m 431 853 b 621 665 541 853 621 765 b 429 475 623 563 537 475 b 240 663 319 475 240 557 b 431 853 239 768 321 853 z "}," ":{"ha":-437,"x_min":0,"x_max":0,"o":""}," ":{"ha":-437,"x_min":0,"x_max":0,"o":""},"A":{"ha":0,"x_min":0,"x_max":0,"o":""},"Á":{"ha":0,"x_min":0,"x_max":0,"o":""},"Ă":{"ha":0,"x_min":0,"x_max":0,"o":""},"Ắ":{"ha":0,"x_min":0,"x_max":0,"o":""},"Ặ":{"ha":0,"x_min":0,"x_max":0,"o":""},"Ằ":{"ha":0,"x_min":0,"x_max":0,"o":""},"Ẳ":{"ha":196,"x_min":0,"x_max":0,"o":"m -76 -846 l 597 368 l 730 764 l 738 764 l 872 368 z "},"Ẵ":{"ha":196,"x_min":0,"x_max":0,"o":"m -328 -1009 l 345 208 l 477 604 l 486 604 l 620 208 z "},"Ǎ":{"ha":0,"x_min":0,"x_max":0,"o":""},"Â":{"ha":196,"x_min":0,"x_max":0,"o":"m -137 -808 l 415 262 l 548 658 l 556 658 l 690 262 z "},"Ấ":{"ha":0,"x_min":0,"x_max":0,"o":""},"Ậ":{"ha":0,"x_min":0,"x_max":0,"o":""},"Ầ":{"ha":0,"x_min":0,"x_max":0,"o":""},"Ẩ":{"ha":0,"x_min":0,"x_max":0,"o":""},"Ẫ":{"ha":0,"x_min":0,"x_max":0,"o":""},"Ȁ":{"ha":0,"x_min":0,"x_max":0,"o":""},"Ä":{"ha":0,"x_min":0,"x_max":0,"o":""},"Ǟ":{"ha":0,"x_min":0,"x_max":0,"o":""},"Ạ":{"ha":0,"x_min":0,"x_max":0,"o":""},"Ǡ":{"ha":0,"x_min":0,"x_max":0,"o":""},"À":{"ha":0,"x_min":0,"x_max":0,"o":"l 196 0 l 196 392 l 1276 392 l 1276 222 "},"Ả":{"ha":0,"x_min":0,"x_max":0,"o":""},"Ȃ":{"ha":0,"x_min":0,"x_max":0,"o":""},"Ā":{"ha":0,"x_min":0,"x_max":0,"o":""},"Ą":{"ha":196,"x_min":0,"x_max":0,"o":"m 216 0 l -24 -47 b -179 NaN -69 -64 -126 -57 "},"Å":{"ha":0,"x_min":0,"x_max":0,"o":""},"Ǻ":{"ha":0,"x_min":0,"x_max":0,"o":""},"Ḁ":{"ha":0,"x_min":0,"x_max":0,"o":""},"Ã":{"ha":0,"x_min":0,"x_max":0,"o":""},"Æ":{"ha":0,"x_min":0,"x_max":0,"o":""},"Ǽ":{"ha":0,"x_min":0,"x_max":0,"o":""},"Ǣ":{"ha":0,"x_min":0,"x_max":0,"o":""},"B":{"ha":109,"x_min":0,"x_max":0,"o":""},"Ḃ":{"ha":0,"x_min":0,"x_max":0,"o":""},"Ḅ":{"ha":109,"x_min":0,"x_max":0,"o":"m -14 -829 z "},"Ɓ":{"ha":363,"x_min":0,"x_max":0,"o":"m 301 834 l 301 878 l -533 878 l -533 457 l -373 457 l -373 507 b -279 628 -374 567 -358 628 "},"Ḇ":{"ha":0,"x_min":0,"x_max":0,"o":""},"Ƃ":{"ha":0,"x_min":0,"x_max":0,"o":""},"C":{"ha":224,"x_min":0,"x_max":0,"o":""},"Ć":{"ha":0,"x_min":0,"x_max":0,"o":""},"Č":{"ha":0,"x_min":0,"x_max":0,"o":""},"Ç":{"ha":0,"x_min":0,"x_max":0,"o":""},"Ḉ":{"ha":0,"x_min":0,"x_max":0,"o":""},"Ĉ":{"ha":0,"x_min":0,"x_max":0,"o":""},"Ċ":{"ha":0,"x_min":0,"x_max":0,"o":""},"Ƈ":{"ha":321,"x_min":0,"x_max":0,"o":"m 930 651 l 930 747 b 1055 863 930 834 993 863 b 1105 860 1070 863 1092 861 l 1105 1001 b 1020 1006 1077 1006 1048 1006 b 799 901 928 1006 845 970 b 515 996 726 962 627 996 b 389 1066 199 996 389 807 b 732 1477 389 1299 544 1450 z "},"D":{"ha":0,"x_min":0,"x_max":0,"o":""},"Ǳ":{"ha":1067,"x_min":0,"x_max":0,"o":"m -770 42 l -770 989 l -95 989 l -95 1142 b 209 806 104 1142 209 1031 b -100 467 209 579 104 467 z "},"Ɖ":{"ha":0,"x_min":0,"x_max":0,"o":""},"Ď":{"ha":0,"x_min":0,"x_max":0,"o":""},"Ḑ":{"ha":0,"x_min":0,"x_max":0,"o":""},"Ḓ":{"ha":0,"x_min":0,"x_max":0,"o":""},"Đ":{"ha":0,"x_min":0,"x_max":0,"o":""},"Ḋ":{"ha":0,"x_min":0,"x_max":0,"o":""},"Ḍ":{"ha":0,"x_min":0,"x_max":0,"o":""},"Ɗ":{"ha":458,"x_min":0,"x_max":0,"o":"m 47 749 l 47 663 l 208 663 l 208 713 b 301 829 206 773 222 829 l 350 829 l 350 0 l 684 0 l 294 0 b 42 -233 136 0 42 -95 "},"Ḏ":{"ha":0,"x_min":0,"x_max":0,"o":""},"Ƌ":{"ha":106,"x_min":0,"x_max":0,"o":"m 434 0 l 802 0 l 802 972 l 171 972 l 171 822 l 617 822 l 617 605 l 434 605 b 73 305 209 605 73 486 b 434 0 73 125 209 0 z m 617 146 l 434 146 b 258 308 313 146 258 221 b 434 457 258 391 313 457 l 617 457 z "},"ǲ":{"ha":943,"x_min":0,"x_max":0,"o":"m 948 0 z m 176 43 l 176 719 l 330 719 b 633 382 529 719 633 608 b 324 43 633 156 529 43 z "},"ǅ":{"ha":943,"x_min":0,"x_max":0,"o":"m 948 0 "},"Ð":{"ha":0,"x_min":0,"x_max":0,"o":""},"E":{"ha":41,"x_min":0,"x_max":0,"o":""},"É":{"ha":0,"x_min":0,"x_max":0,"o":""},"Ĕ":{"ha":0,"x_min":0,"x_max":0,"o":""},"Ě":{"ha":0,"x_min":0,"x_max":0,"o":""},"Ḝ":{"ha":0,"x_min":0,"x_max":0,"o":""},"Ê":{"ha":0,"x_min":0,"x_max":0,"o":""},"Ế":{"ha":0,"x_min":0,"x_max":0,"o":""},"Ḙ":{"ha":0,"x_min":0,"x_max":0,"o":""},"Ệ":{"ha":41,"x_min":0,"x_max":0,"o":"m 0 -1458 z "},"Ề":{"ha":0,"x_min":0,"x_max":0,"o":""},"Ể":{"ha":0,"x_min":0,"x_max":0,"o":""},"Ễ":{"ha":0,"x_min":0,"x_max":0,"o":""},"Ȅ":{"ha":0,"x_min":0,"x_max":0,"o":""},"Ë":{"ha":0,"x_min":0,"x_max":0,"o":""},"Ė":{"ha":0,"x_min":0,"x_max":0,"o":""},"Ẹ":{"ha":0,"x_min":0,"x_max":0,"o":""},"È":{"ha":0,"x_min":0,"x_max":0,"o":""},"Ẻ":{"ha":0,"x_min":0,"x_max":0,"o":""},"Ȇ":{"ha":41,"x_min":0,"x_max":0,"o":""},"Ē":{"ha":0,"x_min":0,"x_max":0,"o":""},"Ḗ":{"ha":0,"x_min":0,"x_max":0,"o":""},"Ḕ":{"ha":0,"x_min":0,"x_max":0,"o":""},"Ę":{"ha":41,"x_min":0,"x_max":0,"o":"m 91 0 l 543 0 l 543 -45 l 498 -45 l 498 -61 l 442 -61 l 442 -54 l 391 -54 z "},"Ɛ":{"ha":108,"x_min":0,"x_max":0,"o":"m 71 267 b 438 -14 71 77 227 -14 b 804 267 640 -14 803 83 l 618 267 b 434 133 618 191 557 133 b 256 281 330 133 256 175 b 435 429 256 378 315 429 l 552 429 l 552 571 l 435 571 b 270 709 317 571 270 633 b 441 846 270 795 327 846 b 605 726 547 846 605 800 l 789 726 b 441 996 788 888 644 996 b 85 720 232 996 85 892 b 241 503 85 619 145 543 b 71 267 132 465 71 385 z "},"Ʃ":{"ha":108,"x_min":0,"x_max":0,"o":"m 779 151 l 335 151 l 582 480 l 582 491 l 336 821 l 758 821 l 758 972 l 85 972 l 85 871 l 388 486 l 85 100 l 85 0 l 779 0 z "},"Ẽ":{"ha":0,"x_min":0,"x_max":0,"o":""},"Ḛ":{"ha":0,"x_min":0,"x_max":0,"o":""},"Ǝ":{"ha":41,"x_min":0,"x_max":0,"o":"m 718 982 l 76 982 l 76 833 l 541 833 l 541 564 l 113 564 l 113 416 l 541 416 l 541 148 l 79 148 l 79 0 l 718 0 z "},"Ə":{"ha":233,"x_min":0,"x_max":0,"o":"m 487 -14 b 917 435 749 -14 917 175 l 917 544 b 457 996 917 817 747 996 b 163 941 340 996 210 967 l 197 793 b 439 836 264 819 358 836 b 731 544 651 836 731 722 l 731 537 l 84 537 l 84 435 b 487 -14 84 153 243 -14 z m 267 370 l 267 391 l 730 391 b 487 145 716 244 636 145 b 267 370 350 145 267 227 z "},"Ʒ":{"ha":146,"x_min":0,"x_max":0,"o":""},"Ǯ":{"ha":0,"x_min":0,"x_max":0,"o":""},"Ƹ":{"ha":146,"x_min":0,"x_max":0,"o":"m 865 61 l 686 61 b 461 -140 680 -58 582 -140 b 233 126 320 -140 233 -26 b 502 404 233 297 345 404 l 597 404 l 597 537 l 304 823 l 304 831 l 810 831 l 810 982 l 77 982 l 77 854 l 407 533 l 407 524 b 53 130 197 509 53 351 b 461 -292 53 -115 220 -292 b 865 61 685 -292 857 -145 z "},"F":{"ha":12,"x_min":0,"x_max":0,"o":""},"Ḟ":{"ha":0,"x_min":0,"x_max":0,"o":""},"Ƒ":{"ha":32,"x_min":0,"x_max":0,"o":"m 110 982 l 110 -56 b 7 -137 110 -119 64 -137 b -33 -136 -5 -137 -22 -137 l -33 -271 b 35 -277 -4 -277 20 -277 b 288 -57 179 -277 288 -225 l 288 0 l 286 0 l 286 418 z "},"G":{"ha":239,"x_min":0,"x_max":0,"o":""},"Ǵ":{"ha":0,"x_min":0,"x_max":0,"o":""},"Ǥ":{"ha":239,"x_min":0,"x_max":0,"o":"m 990 312 l 930 312 b 937 396 935 338 937 367 l 937 514 l 538 514 l 538 374 l 766 374 b 758 312 766 352 763 332 l 538 312 l 538 229 l 719 229 b 623 130 665 229 623 161 b 678 125 623 43 742 125 b 605 NaN 574 125 605 NaN l 785 NaN b 948 NaN 978 NaN 948 NaN b 1222 NaN 948 NaN 1132 NaN b 1434 NaN 1375 NaN 1434 NaN l 1516 NaN z "},"Ğ":{"ha":0,"x_min":0,"x_max":0,"o":""},"Ǧ":{"ha":0,"x_min":0,"x_max":0,"o":""},"Ĝ":{"ha":0,"x_min":0,"x_max":0,"o":""},"Ģ":{"ha":0,"x_min":0,"x_max":0,"o":""},"Ġ":{"ha":0,"x_min":0,"x_max":0,"o":""},"Ɠ":{"ha":317,"x_min":0,"x_max":0,"o":"m 747 669 l 929 669 l 928 677 b 947 544 1054 677 947 589 b NaN NaN 947 462 905 NaN b NaN NaN NaN NaN NaN NaN b NaN NaN NaN NaN NaN NaN b NaN NaN NaN NaN NaN NaN z "},"Ḡ":{"ha":0,"x_min":0,"x_max":0,"o":""},"Ȝ":{"ha":106,"x_min":0,"x_max":0,"o":"m 146 351 l 146 214 b 562 370 317 254 456 306 b 612 231 597 346 612 302 b 146 -142 612 20 439 -84 l 146 -288 b 796 224 528 -228 796 -73 b 674 458 796 336 750 414 b 781 709 744 530 781 614 b 430 996 781 898 640 996 b 79 724 225 996 79 887 l 262 724 b 430 848 262 799 327 848 b 598 688 541 848 598 793 b 146 351 598 528 467 446 z "},"H":{"ha":226,"x_min":0,"x_max":0,"o":""},"Ħ":{"ha":300,"x_min":0,"x_max":0,"o":"m 1019 799 l 940 799 l 940 982 l 762 982 l 762 799 l 305 799 l 305 982 l 129 982 l 129 799 l 47 799 l 47 689 l 129 689 l 129 0 l 305 0 l 305 418 l 762 418 l 762 0 l 940 0 l 940 689 l 1019 689 z m 305 566 l 305 689 l 762 689 l 762 566 z "},"Ḫ":{"ha":226,"x_min":0,"x_max":0,"o":"m 629 -1039 l 720 -1039 l 720 -1169 b 625 -1259 720 -1214 693 -1259 b 532 -1169 557 -1259 530 -1215 l 403 -1169 b 625 -1362 401 -1280 490 -1362 b 850 -1169 764 -1362 849 -1280 z "},"Ḩ":{"ha":226,"x_min":0,"x_max":0,"o":"m 91 0 l 137 0 l 117 -94 l 155 NaN z "},"Ĥ":{"ha":0,"x_min":0,"x_max":0,"o":""},"Ḧ":{"ha":0,"x_min":0,"x_max":0,"o":""},"Ḣ":{"ha":0,"x_min":0,"x_max":0,"o":""},"Ḥ":{"ha":0,"x_min":0,"x_max":0,"o":""},"I":{"ha":-408,"x_min":0,"x_max":0,"o":""},"Ĳ":{"ha":0,"x_min":0,"x_max":0,"o":""},"Í":{"ha":0,"x_min":0,"x_max":0,"o":""},"Ĭ":{"ha":0,"x_min":0,"x_max":0,"o":""},"Ǐ":{"ha":0,"x_min":0,"x_max":0,"o":""},"Î":{"ha":0,"x_min":0,"x_max":0,"o":""},"Ȉ":{"ha":0,"x_min":0,"x_max":0,"o":""},"Ï":{"ha":0,"x_min":0,"x_max":0,"o":""},"Ḯ":{"ha":0,"x_min":0,"x_max":0,"o":""},"İ":{"ha":0,"x_min":0,"x_max":0,"o":""},"Ị":{"ha":0,"x_min":0,"x_max":0,"o":""},"Ì":{"ha":0,"x_min":0,"x_max":0,"o":""},"Ỉ":{"ha":0,"x_min":0,"x_max":0,"o":""},"Ȋ":{"ha":-408,"x_min":0,"x_max":0,"o":""},"Ī":{"ha":0,"x_min":0,"x_max":0,"o":""},"Į":{"ha":-408,"x_min":0,"x_max":0,"o":"m 267 982 l 91 982 l 91 14 z "},"Ɩ":{"ha":-351,"x_min":0,"x_max":0,"o":""},"Ɨ":{"ha":-408,"x_min":0,"x_max":0,"o":"m 267 982 l 91 982 z "},"Ĩ":{"ha":0,"x_min":0,"x_max":0,"o":""},"Ḭ":{"ha":0,"x_min":0,"x_max":0,"o":""},"J":{"ha":0,"x_min":0,"x_max":0,"o":""},"Ĵ":{"ha":0,"x_min":0,"x_max":0,"o":""},"K":{"ha":135,"x_min":0,"x_max":0,"o":""},"Ḱ":{"ha":0,"x_min":0,"x_max":0,"o":""},"Ǩ":{"ha":0,"x_min":0,"x_max":0,"o":""},"Ķ":{"ha":0,"x_min":0,"x_max":0,"o":""},"Ḳ":{"ha":0,"x_min":0,"x_max":0,"o":""},"Ƙ":{"ha":178,"x_min":0,"x_max":0,"o":"m 91 0 l 304 0 l -104 533 l 144 795 b 277 826 190 842 227 853 l 336 954 b 22 909 229 1020 114 1006 l -324 537 l -338 537 l -338 982 l -514 982 z "},"Ḵ":{"ha":0,"x_min":0,"x_max":0,"o":""},"L":{"ha":-16,"x_min":0,"x_max":0,"o":""},"Ǉ":{"ha":0,"x_min":0,"x_max":0,"o":""},"Ĺ":{"ha":0,"x_min":0,"x_max":0,"o":""},"Ƚ":{"ha":-16,"x_min":0,"x_max":0,"o":"m 91 0 l 701 0 l 701 149 l 267 149 l 267 458 l 681 458 l 681 282 l 267 282 l 267 141 l 157 141 l 157 282 z "},"Ľ":{"ha":0,"x_min":0,"x_max":0,"o":""},"Ḽ":{"ha":0,"x_min":0,"x_max":0,"o":""},"Ļ":{"ha":0,"x_min":0,"x_max":0,"o":""},"Ŀ":{"ha":-5,"x_min":0,"x_max":0,"o":"m 94 0 l 704 0 "},"Ḷ":{"ha":-16,"x_min":0,"x_max":0,"o":""},"Ḹ":{"ha":0,"x_min":0,"x_max":0,"o":""},"ǈ":{"ha":0,"x_min":0,"x_max":0,"o":""},"Ḻ":{"ha":0,"x_min":0,"x_max":0,"o":""},"Ł":{"ha":2,"x_min":0,"x_max":0,"o":"m 442 628 l 294 586 l 294 982 l 118 982 l 118 534 l 16 505 l 16 400 l 118 430 l 118 0 l 728 0 l 728 149 l 294 149 l 294 481 l 442 524 z "},"M":{"ha":444,"x_min":0,"x_max":0,"o":""},"Ḿ":{"ha":0,"x_min":0,"x_max":0,"o":""},"Ṁ":{"ha":0,"x_min":0,"x_max":0,"o":""},"Ṃ":{"ha":0,"x_min":0,"x_max":0,"o":""},"N":{"ha":222,"x_min":0,"x_max":0,"o":""},"Ǌ":{"ha":0,"x_min":0,"x_max":0,"o":""},"Ń":{"ha":0,"x_min":0,"x_max":0,"o":""},"Ň":{"ha":0,"x_min":0,"x_max":0,"o":""},"Ṋ":{"ha":0,"x_min":0,"x_max":0,"o":""},"Ņ":{"ha":0,"x_min":0,"x_max":0,"o":""},"Ṅ":{"ha":0,"x_min":0,"x_max":0,"o":""},"Ṇ":{"ha":0,"x_min":0,"x_max":0,"o":""},"Ɲ":{"ha":239,"x_min":0,"x_max":0,"o":"m 109 982 l 109 -56 b 5 -137 109 -119 61 -137 b -35 -136 -7 -137 -23 -137 l -35 -271 b 50 -277 -12 -277 26 -277 b 285 -57 170 -277 285 -225 l 285 671 l 293 671 l 758 0 l 916 0 l 916 982 l 741 982 l 741 311 l 731 311 l 269 982 z "},"ǋ":{"ha":0,"x_min":0,"x_max":0,"o":""},"Ṉ":{"ha":0,"x_min":0,"x_max":0,"o":""},"Ñ":{"ha":0,"x_min":0,"x_max":0,"o":""},"Ŋ":{"ha":222,"x_min":0,"x_max":0,"o":"m 741 0 l 741 -54 b 628 -148 741 -122 694 -148 b 570 -142 608 -148 586 -146 l 570 -277 b 642 -286 590 -285 617 -286 b 897 -53 791 -286 897 -220 l 897 0 l 898 0 l 898 982 l 723 982 l 723 311 l 713 311 z "},"O":{"ha":267,"x_min":0,"x_max":0,"o":""},"Ƣ":{"ha":450,"x_min":0,"x_max":0,"o":"m 849 125 l 849 738 l 948 780 l 948 -277 l 1126 -277 l 1126 982 l 991 982 l 807 901 b 503 996 739 955 631 996 b 66 532 228 996 66 825 l 66 450 b 495 -14 66 163 225 -14 b 849 125 659 -14 792 49 z m 252 450 l 252 532 b 506 848 252 736 326 848 b 671 793 574 848 637 829 l 671 189 b 503 133 636 155 575 133 b 252 450 327 133 252 254 z "},"Ó":{"ha":0,"x_min":0,"x_max":0,"o":""},"Ɵ":{"ha":0,"x_min":0,"x_max":0,"o":""},"Ŏ":{"ha":0,"x_min":0,"x_max":0,"o":""},"Ǒ":{"ha":0,"x_min":0,"x_max":0,"o":""},"Ô":{"ha":0,"x_min":0,"x_max":0,"o":""},"Ố":{"ha":0,"x_min":0,"x_max":0,"o":""},"Ộ":{"ha":0,"x_min":0,"x_max":0,"o":""},"Ồ":{"ha":0,"x_min":0,"x_max":0,"o":""},"Ổ":{"ha":0,"x_min":0,"x_max":0,"o":""},"Ỗ":{"ha":0,"x_min":0,"x_max":0,"o":""},"Ȍ":{"ha":0,"x_min":0,"x_max":0,"o":""},"Ö":{"ha":0,"x_min":0,"x_max":0,"o":""},"Ọ":{"ha":0,"x_min":0,"x_max":0,"o":""},"Ò":{"ha":0,"x_min":0,"x_max":0,"o":""},"Ỏ":{"ha":0,"x_min":0,"x_max":0,"o":""},"Ơ":{"ha":300,"x_min":0,"x_max":0,"o":""},"Ớ":{"ha":0,"x_min":0,"x_max":0,"o":""},"Ợ":{"ha":0,"x_min":0,"x_max":0,"o":""},"Ờ":{"ha":0,"x_min":0,"x_max":0,"o":""},"Ở":{"ha":0,"x_min":0,"x_max":0,"o":""},"Ỡ":{"ha":0,"x_min":0,"x_max":0,"o":""},"Ő":{"ha":0,"x_min":0,"x_max":0,"o":""},"Ȏ":{"ha":267,"x_min":0,"x_max":0,"o":""},"Ō":{"ha":0,"x_min":0,"x_max":0,"o":""},"Ṓ":{"ha":0,"x_min":0,"x_max":0,"o":""},"Ṑ":{"ha":0,"x_min":0,"x_max":0,"o":""},"Ǫ":{"ha":267,"x_min":0,"x_max":0,"o":""},"Ǭ":{"ha":0,"x_min":0,"x_max":0,"o":""},"Ɔ":{"ha":224,"x_min":0,"x_max":0,"o":""},"Ø":{"ha":267,"x_min":0,"x_max":0,"o":"m -545 0 b -273 346 -545 224 -433 346 b -127 304 -218 346 -169 332 l -491 -224 b -545 0 -526 -168 -545 -93 z "},"Ǿ":{"ha":267,"x_min":0,"x_max":0,"o":"m -313 -807 b 388 -922 -313 -1146 275 -922 b 670 -819 510 -922 670 -867 b NaN -791 670 -833 642 -791 l NaN -1319 b NaN -1095 NaN -1263 NaN -1188 z "},"Õ":{"ha":0,"x_min":0,"x_max":0,"o":""},"Ṍ":{"ha":0,"x_min":0,"x_max":0,"o":""},"Ṏ":{"ha":0,"x_min":0,"x_max":0,"o":""},"Œ":{"ha":565,"x_min":0,"x_max":0,"o":"m 507 0 l 1256 0 l 1256 149 l 791 149 l 791 418 l 1219 418 l 1219 566 l 791 566 l 791 834 l 1253 834 l 1253 982 l 507 982 b 66 491 251 982 66 802 b 507 0 66 180 251 0 z m 243 491 b 507 834 241 716 350 834 l 614 834 l 614 149 l 507 149 b 243 491 350 149 241 266 z "},"P":{"ha":0,"x_min":0,"x_max":0,"o":""},"Ṕ":{"ha":90,"x_min":0,"x_max":0,"o":"m 91 0 z m -107 -821 l -107 -553 l -9 -553 l -9 -197 l 156 -197 b 349 -374 289 -197 349 -269 b 156 -553 349 -479 289 -553 z "},"Ṗ":{"ha":90,"x_min":0,"x_max":0,"o":"m 91 0 "},"Ƥ":{"ha":344,"x_min":0,"x_max":0,"o":"m 208 663 l 208 713 b 301 834 206 773 222 834 l 301 878 l -533 878 l -533 464 "},"Þ":{"ha":0,"x_min":0,"x_max":0,"o":""},"Q":{"ha":268,"x_min":0,"x_max":0,"o":"m 456 330 l 590 155 b 517 145 567 149 543 145 b 304 -1 395 145 362 54 l 220 109 b 439 521 220 458 381 521 b 472 NaN 450 521 472 574 l 553 NaN l 726 NaN l 590 NaN b 749 NaN 688 NaN 749 NaN z "},"Ɋ":{"ha":317,"x_min":0,"x_max":0,"o":"m 941 -57 l 941 982 l 770 982 l 770 836 l 761 836 b 479 996 712 930 613 996 b 66 494 239 996 66 781 b 479 -15 66 201 237 -15 b 761 149 610 -15 712 50 l 768 149 l 768 -57 b 998 -277 768 -218 871 -277 b 1090 -270 1036 -277 1069 -274 l 1090 -134 b 1044 -138 1077 -137 1061 -138 b 941 -57 989 -138 941 -121 z m 506 145 b 244 492 349 145 244 275 b 507 840 244 700 345 840 b 769 492 684 840 769 693 b 506 145 769 289 689 145 z "},"R":{"ha":0,"x_min":0,"x_max":0,"o":""},"Ŕ":{"ha":0,"x_min":0,"x_max":0,"o":""},"Ř":{"ha":0,"x_min":0,"x_max":0,"o":""},"Ŗ":{"ha":0,"x_min":0,"x_max":0,"o":""},"Ȑ":{"ha":0,"x_min":0,"x_max":0,"o":""},"Ṙ":{"ha":0,"x_min":0,"x_max":0,"o":""},"Ṛ":{"ha":0,"x_min":0,"x_max":0,"o":""},"Ṝ":{"ha":0,"x_min":0,"x_max":0,"o":""},"Ȓ":{"ha":0,"x_min":0,"x_max":0,"o":""},"Ṟ":{"ha":0,"x_min":0,"x_max":0,"o":""},"S":{"ha":97,"x_min":0,"x_max":0,"o":""},"Ś":{"ha":0,"x_min":0,"x_max":0,"o":""},"Ṥ":{"ha":0,"x_min":0,"x_max":0,"o":""},"Š":{"ha":0,"x_min":0,"x_max":0,"o":""},"Ṧ":{"ha":0,"x_min":0,"x_max":0,"o":""},"Ş":{"ha":0,"x_min":0,"x_max":0,"o":"l 97 625 l 104 448 l 226 340 l 424 324 l 406 244 l 429 NaN b 760 NaN 640 NaN 760 NaN "},"Ŝ":{"ha":0,"x_min":0,"x_max":0,"o":""},"Ș":{"ha":97,"x_min":0,"x_max":0,"o":"m -328 -1042 l -203 -1042 l -107 -800 l -271 -800 z "},"Ṡ":{"ha":0,"x_min":0,"x_max":0,"o":""},"Ṣ":{"ha":0,"x_min":0,"x_max":0,"o":""},"Ṩ":{"ha":0,"x_min":0,"x_max":0,"o":""},"ẞ":{"ha":173,"x_min":0,"x_max":0,"o":"m 91 648 l 91 0 l 267 0 l 267 648 b 426 852 267 760 308 852 b 604 791 500 852 560 823 l 418 566 l 418 448 l 510 448 b 705 282 576 448 705 427 b 533 129 705 189 643 129 b 387 161 477 129 427 145 l 336 23 b 541 -14 397 0 473 -14 b 884 281 742 -14 884 98 b 601 566 884 439 776 548 l 819 834 b 423 996 708 925 566 996 b 91 648 214 996 91 868 z "},"T":{"ha":111,"x_min":0,"x_max":0,"o":""},"Ŧ":{"ha":111,"x_min":0,"x_max":0,"o":"m 47 834 l 351 834 l 351 537 l -76 537 l -76 713 l 351 713 l 351 853 l 461 853 l 461 713 l 758 713 l 758 1016 l 906 1016 l 906 233 z "},"Ť":{"ha":0,"x_min":0,"x_max":0,"o":""},"Ṱ":{"ha":0,"x_min":0,"x_max":0,"o":""},"Ţ":{"ha":111,"x_min":0,"x_max":0,"o":"m 47 834 l 351 834 l 351 0 l 397 0 l 377 -92 l 414 NaN l 449 NaN l 449 NaN l 751 NaN l 751 NaN l -31 NaN z "},"Ṫ":{"ha":0,"x_min":0,"x_max":0,"o":""},"Ṭ":{"ha":0,"x_min":0,"x_max":0,"o":""},"Ƭ":{"ha":161,"x_min":0,"x_max":0,"o":"m 880 982 l 292 982 b 47 749 136 982 47 891 l 47 667 l 198 667 l 198 718 b 292 834 198 776 217 834 l 401 834 l 401 0 l 576 0 l 576 834 l 880 834 z "},"Ṯ":{"ha":0,"x_min":0,"x_max":0,"o":""},"Ƽ":{"ha":62,"x_min":0,"x_max":0,"o":"m 753 982 l 39 982 l 39 834 l 157 834 l 113 834 l 113 426 z "},"Ƅ":{"ha":296,"x_min":0,"x_max":0,"o":"m 460 982 l 47 982 l 47 834 l 282 834 l 282 0 l 650 0 b 1010 305 875 0 1010 125 b 650 602 1010 486 875 602 l 460 602 z m 460 145 l 460 458 l 650 458 b 834 308 769 458 834 391 b 650 145 834 221 769 145 z "},"Ƨ":{"ha":97,"x_min":0,"x_max":0,"o":"m 69 712 l 240 712 b 425 845 248 796 319 845 b 604 718 537 845 604 791 b 435 582 605 635 517 601 l 345 557 b 56 275 197 524 56 446 b 427 -15 56 103 193 -15 b 808 289 656 -15 802 95 l 635 289 b 429 136 628 186 541 136 b 232 277 313 136 233 193 b 410 414 233 354 304 387 l 521 442 b 783 707 684 484 783 566 b 423 996 783 880 629 996 b 69 712 214 996 73 878 z "},"Ʈ":{"ha":111,"x_min":0,"x_max":0,"o":"m 526 -57 l 526 0 l 528 0 l 528 834 l 830 834 l 830 982 l 47 982 l 47 834 l 351 834 l 351 -57 b 589 -277 351 -225 468 -277 l 674 -277 l 674 -134 l 635 -134 b 526 -57 579 -134 526 -121 z "},"U":{"ha":212,"x_min":0,"x_max":0,"o":""},"Ú":{"ha":0,"x_min":0,"x_max":0,"o":""},"Ŭ":{"ha":0,"x_min":0,"x_max":0,"o":""},"Ǔ":{"ha":0,"x_min":0,"x_max":0,"o":""},"Û":{"ha":0,"x_min":0,"x_max":0,"o":""},"Ṷ":{"ha":0,"x_min":0,"x_max":0,"o":""},"Ȕ":{"ha":0,"x_min":0,"x_max":0,"o":""},"Ü":{"ha":0,"x_min":0,"x_max":0,"o":""},"Ǘ":{"ha":0,"x_min":0,"x_max":0,"o":""},"Ṳ":{"ha":212,"x_min":0,"x_max":0,"o":"m 324 0 z "},"Ǚ":{"ha":0,"x_min":0,"x_max":0,"o":""},"Ǜ":{"ha":0,"x_min":0,"x_max":0,"o":""},"Ǖ":{"ha":0,"x_min":0,"x_max":0,"o":""},"Ụ":{"ha":0,"x_min":0,"x_max":0,"o":""},"Ù":{"ha":0,"x_min":0,"x_max":0,"o":""},"Ủ":{"ha":0,"x_min":0,"x_max":0,"o":""},"Ư":{"ha":393,"x_min":0,"x_max":0,"o":""},"Ứ":{"ha":393,"x_min":0,"x_max":0,"o":"m -689 54 l -560 54 l -412 273 l -582 273 z "},"Ự":{"ha":0,"x_min":0,"x_max":0,"o":""},"Ừ":{"ha":393,"x_min":0,"x_max":0,"o":"m -685 54 l -556 54 l -663 273 l -833 273 z "},"Ử":{"ha":393,"x_min":0,"x_max":0,"o":"m -556 60 l -556 104 b -456 199 -506 111 -456 140 b -696 328 -456 279 -538 328 l -701 243 b -602 197 -646 243 -602 232 b -696 152 -602 170 -628 155 l -689 60 z "},"Ữ":{"ha":0,"x_min":0,"x_max":0,"o":""},"Ű":{"ha":0,"x_min":0,"x_max":0,"o":""},"Ȗ":{"ha":212,"x_min":0,"x_max":0,"o":""},"Ū":{"ha":0,"x_min":0,"x_max":0,"o":""},"Ṻ":{"ha":0,"x_min":0,"x_max":0,"o":""},"Ų":{"ha":212,"x_min":0,"x_max":0,"o":"m 711 982 b 1024 633 711 798 832 664 b 944 568 987 633 944 620 b 936 620 944 574 896 620 b 1025 NaN 971 620 1025 650 b 1320 NaN 1205 NaN 1320 NaN l 1320 NaN z "},"Ʊ":{"ha":264,"x_min":0,"x_max":0,"o":"m 61 454 b 515 -14 61 180 251 -14 b 970 454 781 -14 970 180 b 779 826 970 627 897 751 l 779 834 l 970 834 l 970 982 l 594 982 l 594 795 b 793 465 705 749 793 621 b 515 146 793 283 678 146 b 239 465 354 146 239 283 b 437 795 239 621 326 749 l 437 982 l 61 982 l 61 834 l 252 834 l 252 826 b 61 454 136 750 61 627 z "},"Ů":{"ha":0,"x_min":0,"x_max":0,"o":""},"Ũ":{"ha":0,"x_min":0,"x_max":0,"o":""},"Ṹ":{"ha":0,"x_min":0,"x_max":0,"o":""},"Ṵ":{"ha":0,"x_min":0,"x_max":0,"o":""},"V":{"ha":196,"x_min":0,"x_max":0,"o":""},"Ɣ":{"ha":172,"x_min":0,"x_max":0,"o":"m 26 982 l 382 229 b 247 -115 280 6 247 -59 b 469 -292 247 -227 335 -292 b 688 -118 602 -292 688 -224 b 557 228 688 -56 640 46 l 911 982 l 712 982 l 469 427 l 225 982 z m 423 -110 b 471 41 423 -74 441 -26 b 515 -110 499 -26 515 -73 b 469 -160 515 -140 498 -160 b 423 -110 441 -160 423 -141 z "},"Ʋ":{"ha":105,"x_min":0,"x_max":0,"o":"m 437 -14 b 807 324 647 -14 807 103 l 807 739 b 563 996 807 903 711 996 b 471 985 529 996 499 990 l 471 840 b 525 844 488 842 510 844 b 621 739 591 844 621 818 l 621 324 b 437 133 621 197 556 133 b 250 324 317 133 250 197 l 250 982 l 66 982 l 66 324 b 437 -14 66 103 222 -14 z "},"Ṿ":{"ha":0,"x_min":0,"x_max":0,"o":""},"Ṽ":{"ha":0,"x_min":0,"x_max":0,"o":""},"W":{"ha":581,"x_min":0,"x_max":0,"o":""},"Ẃ":{"ha":0,"x_min":0,"x_max":0,"o":""},"Ŵ":{"ha":0,"x_min":0,"x_max":0,"o":""},"Ẅ":{"ha":0,"x_min":0,"x_max":0,"o":""},"Ẇ":{"ha":0,"x_min":0,"x_max":0,"o":""},"Ẉ":{"ha":0,"x_min":0,"x_max":0,"o":""},"Ẁ":{"ha":0,"x_min":0,"x_max":0,"o":""},"X":{"ha":151,"x_min":0,"x_max":0,"o":""},"Ẍ":{"ha":0,"x_min":0,"x_max":0,"o":""},"Ẋ":{"ha":0,"x_min":0,"x_max":0,"o":""},"Y":{"ha":170,"x_min":0,"x_max":0,"o":""},"Ʀ":{"ha":231,"x_min":0,"x_max":0,"o":"m 62 1050 l 62 0 l 247 0 l 247 382 l 414 382 l 739 -233 l 936 -233 l 936 -225 l 586 423 b 773 692 702 469 773 554 b 416 983 773 882 640 983 l 247 983 l 247 1050 z m 247 530 l 247 834 l 416 834 b 589 681 534 834 589 774 b 416 530 589 593 530 530 z "},"Ý":{"ha":0,"x_min":0,"x_max":0,"o":""},"Ŷ":{"ha":0,"x_min":0,"x_max":0,"o":""},"Ÿ":{"ha":0,"x_min":0,"x_max":0,"o":""},"Ẏ":{"ha":0,"x_min":0,"x_max":0,"o":""},"Ỵ":{"ha":0,"x_min":0,"x_max":0,"o":""},"Ỳ":{"ha":0,"x_min":0,"x_max":0,"o":""},"Ƴ":{"ha":248,"x_min":0,"x_max":0,"o":"m 28 982 l 401 388 l 401 0 l 578 0 l 578 388 l 827 787 b 959 837 864 845 901 857 l 998 972 b 688 868 887 1017 764 996 l 496 548 l 483 548 l 224 982 z "},"Ỷ":{"ha":0,"x_min":0,"x_max":0,"o":""},"Ỹ":{"ha":170,"x_min":0,"x_max":0,"o":"m 0 92 "},"Z":{"ha":101,"x_min":0,"x_max":0,"o":""},"Ź":{"ha":0,"x_min":0,"x_max":0,"o":""},"Ƶ":{"ha":101,"x_min":0,"x_max":0,"o":"m 72 0 l 799 0 l 799 149 l 292 149 l 507 458 l 677 458 l 677 568 l 585 568 l 796 872 l 796 982 l 69 982 l 69 834 l 576 834 l 391 568 l 218 568 l 218 458 l 315 458 l 72 111 z "},"Ž":{"ha":0,"x_min":0,"x_max":0,"o":""},"Ẑ":{"ha":0,"x_min":0,"x_max":0,"o":""},"Ż":{"ha":0,"x_min":0,"x_max":0,"o":""},"Ẓ":{"ha":0,"x_min":0,"x_max":0,"o":""},"Ẕ":{"ha":0,"x_min":0,"x_max":0,"o":""},"Ɯ":{"ha":485,"x_min":0,"x_max":0,"o":"m 100 285 b 342 -14 100 65 187 -14 b 568 107 448 -14 523 32 b 779 -14 608 20 682 -14 b 982 77 869 -14 937 20 l 990 0 l 1152 0 l 1152 982 l 974 982 l 974 221 b 825 130 951 166 904 130 b 713 285 762 130 713 168 l 713 982 l 537 982 l 537 285 b 540 225 537 264 538 243 b 388 130 517 167 469 130 b 278 285 326 130 278 168 l 278 982 l 100 982 z "},"Ƕ":{"ha":733,"x_min":0,"x_max":0,"o":"m 1073 -14 b 1417 324 1280 -14 1417 106 l 1417 724 l 1240 724 l 1240 324 b 1073 138 1240 199 1180 138 b 902 324 966 138 902 199 l 902 982 l 724 982 l 724 0 l 901 0 l 901 418 l 1358 418 l 1358 324 b 1706 -14 1358 109 1496 -14 z "},"Ƿ":{"ha":173,"x_min":0,"x_max":0,"o":"m 277 982 l 92 982 l 92 -277 l 277 -277 l 277 -100 b 849 533 628 -1 849 239 l 849 568 b 449 996 849 850 686 996 b 277 960 378 996 321 982 z m 277 52 l 277 777 b 450 848 315 821 372 848 b 663 570 608 848 663 738 l 663 533 b 277 52 663 333 538 140 z "},"Ǹ":{"ha":0,"x_min":0,"x_max":0,"o":""},"Ț":{"ha":0,"x_min":0,"x_max":0,"o":""},"Ȟ":{"ha":0,"x_min":0,"x_max":0,"o":""},"Ƞ":{"ha":106,"x_min":0,"x_max":0,"o":"m 796 -274 l 796 689 b 458 996 796 887 642 996 b 258 947 385 996 317 977 l 258 982 l 80 982 l 80 0 l 258 0 l 258 800 b 437 853 313 834 373 853 b 617 689 552 853 617 803 l 617 -274 z "},"Ȣ":{"ha":106,"x_min":0,"x_max":0,"o":"m 430 467 l 445 467 b 629 301 557 467 629 411 b 445 134 629 187 557 134 l 430 134 b 243 298 317 134 243 189 b 430 467 243 410 316 467 z m 448 617 l 426 617 b 243 741 319 617 243 635 b 338 854 243 807 273 840 l 338 996 b 57 741 172 993 57 906 b 176 534 57 640 102 574 b 57 298 101 484 57 404 b 430 -14 57 98 213 -14 l 445 -14 b 817 301 661 -14 815 98 b 697 534 816 406 771 484 b 818 741 772 574 818 640 b 536 996 818 905 703 993 l 536 854 b 632 741 600 840 632 806 b 448 617 632 635 555 617 z "},"Ȥ":{"ha":101,"x_min":0,"x_max":0,"o":"m 69 834 l 579 834 l 72 111 l 72 0 l 567 0 b 662 -115 643 0 662 -56 l 662 -161 l 811 -161 l 811 -84 b 567 149 811 58 722 149 l 289 149 l 796 872 l 796 982 l 69 982 z "},"Ȧ":{"ha":0,"x_min":0,"x_max":0,"o":""},"Ȩ":{"ha":41,"x_min":0,"x_max":0,"o":""},"Ȫ":{"ha":0,"x_min":0,"x_max":0,"o":""},"Ȭ":{"ha":0,"x_min":0,"x_max":0,"o":""},"Ȯ":{"ha":0,"x_min":0,"x_max":0,"o":""},"Ȱ":{"ha":0,"x_min":0,"x_max":0,"o":""},"Ȳ":{"ha":0,"x_min":0,"x_max":0,"o":""},"Ⱥ":{"ha":196,"x_min":0,"x_max":0,"o":"m 793 1107 l 673 1107 l 612 922 l 590 982 l 373 982 l 27 0 l 216 0 l 297 243 l 385 243 l 262 -125 l 381 -125 l 505 243 l 667 243 l 749 0 l 937 0 l 673 747 z m 345 385 l 477 781 l 486 781 l 525 665 l 433 385 z m 552 385 l 586 486 l 620 385 z "},"Ȼ":{"ha":224,"x_min":0,"x_max":0,"o":"m 233 -125 l 353 -125 l 395 1 b 515 -14 433 -9 473 -14 b 281 -194 492 -129 397 -194 b 209 -184 256 -194 231 -191 l 425 457 b 515 312 471 426 505 376 l 693 312 b 477 616 673 457 592 562 l 528 768 l 408 768 l 369 650 b 278 656 340 654 309 656 b 73 638 64 656 151 501 z m 26 1086 b 300 1432 26 1308 139 1432 b 337 1430 313 1432 325 1431 l 128 804 b 26 1086 64 861 26 956 z "},"Ⱦ":{"ha":111,"x_min":0,"x_max":0,"o":"m 189 -125 l 308 -125 l 351 5 l 351 0 l 528 0 l 528 532 l 629 834 l 830 834 l 830 982 l 678 982 l 720 1107 l 600 1107 l 559 982 l 47 982 l 47 834 l 351 834 l 351 363 z "},"Ɂ":{"ha":-20,"x_min":0,"x_max":0,"o":"m 359 326 l 274 326 l 274 0 l 460 0 l 460 187 b 699 533 616 229 699 368 l 699 635 b 357 996 699 834 581 996 b 50 712 180 996 52 880 l 225 712 b 359 844 228 788 274 844 b 513 635 487 844 513 730 l 513 533 b 359 326 513 420 483 326 z "},"Ƀ":{"ha":191,"x_min":0,"x_max":0,"o":"m 172 0 l -463 0 l -463 -145 l -572 -145 l -572 0 z m -202 -90 z "},"Ʉ":{"ha":238,"x_min":0,"x_max":0,"o":"m 1017 563 l 905 563 l 905 982 l 727 982 l 727 563 l 283 563 l 283 982 l 107 982 l 107 563 l -12 563 l -12 457 l 107 457 l 107 340 l 107 457 l 220 457 z m -514 355 z "},"Ʌ":{"ha":231,"x_min":0,"x_max":0,"o":"m 734 0 l 939 0 l 590 982 l 406 982 l 60 0 l 263 0 l 499 757 z "},"Ɇ":{"ha":41,"x_min":0,"x_max":0,"o":"m 670 1107 l 562 1107 l 526 982 l 91 982 l 91 0 l 243 0 l 206 -125 l 316 -125 l 353 0 l 732 0 l 732 149 l 395 149 l 472 418 l 696 418 l 696 566 l 515 566 l 591 834 l 730 834 l 730 982 l 635 982 z m 267 149 l 267 418 l 363 418 l 286 149 z m 267 566 l 267 834 l 483 834 l 406 566 z "},"Ɉ":{"ha":-22,"x_min":0,"x_max":0,"o":"m 479 982 l 479 640 l 335 640 l 335 530 l 479 530 l 479 292 l 718 292 l 718 431 l 827 431 l 827 292 l 1169 292 z "},"Ɍ":{"ha":120,"x_min":0,"x_max":0,"o":"m 109 0 b 655 361 109 176 468 361 b 661 NaN 534 361 661 136 l 292 NaN l 292 NaN l 189 NaN l 189 NaN l 292 NaN "},"Ɏ":{"ha":173,"x_min":0,"x_max":0,"o":"m 937 779 l 796 779 l 914 982 l 715 982 l 602 779 l 336 779 l 222 982 l 23 982 l 142 779 l 3 779 l 3 682 l 198 682 l 381 368 l 381 0 l 557 0 l 557 368 l 741 682 l 937 682 z m 389 682 l 548 682 l 473 548 l 464 548 z "},"Ỻ":{"ha":391,"x_min":0,"x_max":0,"o":"m 115 0 l 1024 0 l 1024 149 l 590 149 l 590 982 l 414 982 l 414 149 l 292 149 l 292 982 l 115 982 z "},"Ỽ":{"ha":48,"x_min":0,"x_max":0,"o":"m 488 642 l 416 510 b 562 292 499 476 563 407 b 412 133 563 191 505 133 b 258 347 321 133 258 210 l 258 423 b 567 823 258 667 373 788 l 545 968 b 72 407 232 924 73 709 l 72 368 b 415 -14 73 153 201 -14 b 743 304 618 -14 743 106 b 488 642 743 465 632 591 z "},"Ỿ":{"ha":229,"x_min":0,"x_max":0,"o":"m 309 982 l 110 982 l 372 487 b 302 496 350 493 327 496 b 45 240 160 496 45 380 b 302 -14 45 100 160 -14 b 544 152 412 -14 507 55 l 963 982 l 764 982 l 541 507 z m 302 140 b 203 241 245 140 203 175 b 302 345 203 309 245 345 b 400 241 357 345 400 309 b 302 140 400 175 357 140 z "},"Ɀ":{"ha":101,"x_min":0,"x_max":0,"o":"m 693 -288 b 807 -269 738 -288 780 -279 l 807 -126 b 712 -140 779 -134 749 -140 b 282 130 575 -140 498 73 l 791 878 l 791 982 l 69 982 l 69 836 l 572 836 l 72 104 l 72 0 l 133 0 b 693 -288 395 0 464 -288 z "},"Ａ":{"ha":0,"x_min":0,"x_max":0,"o":""},"Ｂ":{"ha":535,"x_min":0,"x_max":0,"o":"m 304 0 z "},"Ｃ":{"ha":535,"x_min":0,"x_max":0,"o":"m 909 651 l 1086 651 b 671 996 1057 869 888 996 b 545 1066 355 996 545 807 b 888 1477 545 1299 700 1450 z "},"Ｄ":{"ha":535,"x_min":0,"x_max":0,"o":"m 593 0 l 254 0 l 254 -982 "},"Ｅ":{"ha":535,"x_min":0,"x_max":0,"o":"m 338 0 z "},"Ｆ":{"ha":0,"x_min":0,"x_max":0,"o":""},"Ｇ":{"ha":535,"x_min":0,"x_max":0,"o":"m 897 669 l 1077 669 b 1240 636 1270 669 1240 502 b 1295 500 1240 419 1359 500 b 1222 NaN 1191 500 1222 NaN z "},"Ｈ":{"ha":535,"x_min":0,"x_max":0,"o":"m 247 0 z "},"Ｉ":{"ha":535,"x_min":0,"x_max":0,"o":""},"Ｊ":{"ha":535,"x_min":0,"x_max":0,"o":"m 758 982 "},"Ｋ":{"ha":535,"x_min":0,"x_max":0,"o":"m 292 0 l 468 0 l 468 293 l 578 422 l 872 0 l 1085 0 l 701 541 l 1081 982 l 865 982 l 481 530 l 468 530 l 468 982 l 292 982 z "},"Ｌ":{"ha":535,"x_min":0,"x_max":0,"o":"m 366 0 l 977 0 z "},"Ｍ":{"ha":535,"x_min":0,"x_max":0,"o":"m 137 982 l 137 0 l 308 0 l 308 678 l 316 678 l 589 3 l 715 3 l 987 675 l 997 675 l 997 0 l 1166 0 l 1166 982 l 949 982 l 658 269 l 646 269 l 354 982 z "},"Ｎ":{"ha":535,"x_min":0,"x_max":0,"o":"m 1055 982 l 880 982 l 880 311 l 871 311 l 1336 -361 l 1493 -361 z "},"Ｏ":{"ha":535,"x_min":0,"x_max":0,"o":""},"Ｐ":{"ha":535,"x_min":0,"x_max":0,"o":"m 313 0 z "},"Ｑ":{"ha":535,"x_min":0,"x_max":0,"o":"m 590 330 l 724 155 b 651 145 701 149 677 145 b 438 -1 530 145 496 54 l 354 109 b 574 521 354 458 515 521 b 606 NaN 585 521 606 574 l 688 NaN l 860 NaN l 724 NaN b 883 NaN 822 NaN 883 NaN z "},"Ｒ":{"ha":535,"x_min":0,"x_max":0,"o":"m 309 0 b 856 361 309 176 669 361 b 861 NaN 735 361 861 136 l 492 NaN "},"Ｓ":{"ha":535,"x_min":0,"x_max":0,"o":"m 845 712 l 1015 712 b 662 996 1012 878 871 996 b 301 707 456 996 301 880 b 563 442 301 566 401 484 l 674 414 b 852 277 780 387 852 354 b 655 136 852 193 772 136 b 449 289 544 136 457 186 l 275 289 b 656 -15 283 95 427 -15 b 1028 275 892 -15 1028 103 "},"Ｔ":{"ha":535,"x_min":0,"x_max":0,"o":"m 260 834 l 564 834 l 564 0 l 741 0 l 741 834 l 1043 834 l 1043 982 l 260 982 z "},"Ｕ":{"ha":535,"x_min":0,"x_max":0,"o":"m 873 982 l 873 1624 z "},"Ｖ":{"ha":0,"x_min":0,"x_max":0,"o":""},"Ｗ":{"ha":535,"x_min":0,"x_max":0,"o":"m 275 0 "},"Ｘ":{"ha":535,"x_min":0,"x_max":0,"o":"m 431 982 "},"Ｙ":{"ha":535,"x_min":0,"x_max":0,"o":"m 205 982 l 563 368 z "},"Ｚ":{"ha":535,"x_min":0,"x_max":0,"o":""},"ɢ":{"ha":108,"x_min":0,"x_max":0,"o":"m 776 106 l 776 380 l 452 380 l 452 255 l 614 255 l 614 165 b 450 129 591 151 547 129 b 472 119 450 15 377 119 b 491 56 525 119 491 43 l 661 56 b 331 305 644 216 536 305 b -19 -9 127 305 -19 178 l -19 -117 b 339 -434 -19 -305 129 -434 b 665 -316 533 -434 624 -365 z "},"ʛ":{"ha":185,"x_min":0,"x_max":0,"o":"m 779 477 l 779 566 b 872 662 777 637 814 662 b 918 658 887 662 903 661 l 918 776 b 840 785 892 783 867 785 b 662 677 751 785 690 747 b 448 727 608 710 536 727 b 98 412 243 727 98 600 l 98 305 b 456 -12 98 117 244 -12 b 781 106 648 -12 739 57 l 781 380 l 457 380 l 457 255 l 620 255 l 620 165 b 456 129 597 151 551 129 b 475 121 456 15 381 121 b 494 57 528 121 494 45 z "},"ɪ":{"ha":-201,"x_min":0,"x_max":0,"o":"m 473 713 l 95 713 l 95 572 l 194 572 l 194 142 l 95 142 l 95 0 l 473 0 l 473 142 l 370 142 l 370 572 l 473 572 z "},"ʟ":{"ha":-144,"x_min":0,"x_max":0,"o":"m 567 140 l 235 140 l 235 713 l 57 713 l 57 0 l 567 0 z "},"ɴ":{"ha":45,"x_min":0,"x_max":0,"o":"m 728 736 l 557 736 l 557 283 l 548 283 l 232 736 l 83 736 l 83 0 l 252 0 l 252 438 l 260 438 l 566 0 l 728 0 z "},"ɶ":{"ha":417,"x_min":0,"x_max":0,"o":"m 1099 140 l 738 140 l 738 289 l 1040 289 l 1040 430 l 738 430 l 738 574 l 1099 574 l 1099 713 l 680 713 b 425 727 560 713 506 727 b 85 365 212 727 85 571 l 85 349 b 427 -14 85 144 212 -14 b 680 0 506 -14 559 0 l 1099 0 z m 263 349 l 263 365 b 425 586 263 481 311 586 b 559 578 471 586 510 582 l 559 136 b 427 129 510 133 471 129 b 263 349 311 129 263 228 z "},"ʀ":{"ha":109,"x_min":0,"x_max":0,"o":"m 433 713 l 115 713 l 115 0 l 292 0 l 292 255 l 431 255 l 579 0 l 762 0 l 597 285 b 734 480 684 323 734 393 b 433 713 734 614 620 713 z m 292 381 l 292 574 l 433 574 b 556 476 518 574 556 525 b 439 381 556 427 519 381 z "},"ʁ":{"ha":109,"x_min":0,"x_max":0,"o":"m 433 0 b 734 233 620 0 734 99 b 597 430 734 320 684 391 l 762 713 l 579 713 l 431 458 l 292 458 l 292 713 l 115 713 l 115 0 z m 292 140 l 292 332 l 439 332 b 556 239 519 332 556 283 b 433 140 556 191 517 140 z "},"ʏ":{"ha":-24,"x_min":0,"x_max":0,"o":"m 205 713 l 11 713 l 282 237 l 282 0 l 457 0 l 457 228 l 732 713 l 540 713 l 373 384 z "},"a":{"ha":0,"x_min":0,"x_max":0,"o":""},"á":{"ha":0,"x_min":0,"x_max":0,"o":""},"ă":{"ha":0,"x_min":0,"x_max":0,"o":""},"ắ":{"ha":0,"x_min":0,"x_max":0,"o":""},"ặ":{"ha":0,"x_min":0,"x_max":0,"o":""},"ằ":{"ha":0,"x_min":0,"x_max":0,"o":""},"ẳ":{"ha":-3,"x_min":0,"x_max":0,"o":"m -282 -779 l 328 -779 l 328 190 l 227 190 l 227 355 l 719 355 "},"ẵ":{"ha":0,"x_min":0,"x_max":0,"o":""},"ǎ":{"ha":0,"x_min":0,"x_max":0,"o":""},"â":{"ha":0,"x_min":0,"x_max":0,"o":""},"ấ":{"ha":0,"x_min":0,"x_max":0,"o":""},"ậ":{"ha":0,"x_min":0,"x_max":0,"o":""},"ầ":{"ha":0,"x_min":0,"x_max":0,"o":""},"ẩ":{"ha":0,"x_min":0,"x_max":0,"o":""},"ẫ":{"ha":-3,"x_min":0,"x_max":0,"o":"m -518 -895 l -75 -895 l -75 64 l -176 64 l -176 229 l 316 229 "},"ȁ":{"ha":0,"x_min":0,"x_max":0,"o":""},"ä":{"ha":0,"x_min":0,"x_max":0,"o":""},"ǟ":{"ha":0,"x_min":0,"x_max":0,"o":""},"ạ":{"ha":0,"x_min":0,"x_max":0,"o":""},"ǡ":{"ha":0,"x_min":0,"x_max":0,"o":""},"à":{"ha":0,"x_min":0,"x_max":0,"o":"l -3 0 l -3 330 l 831 330 l 831 160 "},"ả":{"ha":0,"x_min":0,"x_max":0,"o":""},"ȃ":{"ha":0,"x_min":0,"x_max":0,"o":""},"ā":{"ha":0,"x_min":0,"x_max":0,"o":""},"ą":{"ha":0,"x_min":0,"x_max":0,"o":""},"ẚ":{"ha":0,"x_min":0,"x_max":0,"o":""},"å":{"ha":0,"x_min":0,"x_max":0,"o":""},"ǻ":{"ha":0,"x_min":0,"x_max":0,"o":""},"ḁ":{"ha":0,"x_min":0,"x_max":0,"o":""},"ɑ":{"ha":0,"x_min":0,"x_max":0,"o":""},"ɒ":{"ha":106,"x_min":0,"x_max":0,"o":"m 796 363 l 796 388 b 521 746 796 601 694 746 b 320 636 427 746 363 706 b 164 746 293 711 239 746 b 80 727 134 746 107 742 l 95 597 b 110 598 100 597 104 598 b 160 509 141 598 160 578 l 160 0 l 313 0 l 327 88 b 518 -14 370 24 432 -14 b 796 363 696 -14 796 144 z m 618 388 l 618 363 b 467 127 618 235 576 127 b 338 209 404 127 363 159 l 338 510 l 338 528 b 467 605 363 575 402 605 b 618 388 583 605 618 506 z "},"ã":{"ha":0,"x_min":0,"x_max":0,"o":""},"ɐ":{"ha":-3,"x_min":0,"x_max":0,"o":"m 80 244 b 381 -9 80 47 241 -9 b 690 210 566 -9 678 85 l 524 210 b 385 122 510 157 463 122 b 252 237 300 122 252 164 l 252 296 b 441 307 284 297 390 303 b 715 529 578 315 715 363 b 468 751 715 674 609 751 b 251 635 353 751 283 697 l 245 635 l 245 736 l 80 736 z m 251 472 b 423 624 251 555 319 624 b 548 528 496 624 548 591 b 414 422 548 463 496 429 l 252 412 z "},"æ":{"ha":0,"x_min":0,"x_max":0,"o":""},"ǽ":{"ha":0,"x_min":0,"x_max":0,"o":""},"ǣ":{"ha":0,"x_min":0,"x_max":0,"o":""},"b":{"ha":73,"x_min":0,"x_max":0,"o":""},"ɤ":{"ha":165,"x_min":0,"x_max":0,"o":"m 45 646 l 137 540 b 212 586 157 566 184 586 b 372 419 263 586 293 544 l 373 418 l 368 408 b 264 145 317 324 264 228 b 465 -14 264 43 345 -14 b 665 145 587 -14 665 43 b 567 404 665 228 613 324 l 562 415 b 719 586 642 546 669 586 b 795 540 746 586 773 566 l 888 646 b 697 746 842 699 783 746 b 465 574 605 746 540 686 b 236 746 391 686 328 746 b 45 646 152 746 90 699 z m 429 153 b 465 254 429 176 441 209 b 502 153 489 207 501 175 b 465 118 500 137 494 118 b 429 153 437 118 429 137 z "},"ƀ":{"ha":73,"x_min":0,"x_max":0,"o":"m 91 0 l 267 0 l 267 80 l 94 80 l 94 0 "},"ḃ":{"ha":0,"x_min":0,"x_max":0,"o":""},"ḅ":{"ha":0,"x_min":0,"x_max":0,"o":""},"ɓ":{"ha":73,"x_min":0,"x_max":0,"o":"m 483 -14 l 643 -14 b 760 60 708 -14 760 3 b 724 -212 760 76 773 -41 l 724 -987 l 894 -987 l 894 -871 l 905 -871 z m 856 -728 b 682 -488 745 -728 682 -632 z "},"ḇ":{"ha":0,"x_min":0,"x_max":0,"o":""},"ƃ":{"ha":73,"x_min":0,"x_max":0,"o":"m 682 982 l 91 982 l 91 0 l 324 0 l 324 418 "},"ʘ":{"ha":0,"x_min":0,"x_max":0,"o":""},"c":{"ha":1,"x_min":0,"x_max":0,"o":""},"ć":{"ha":0,"x_min":0,"x_max":0,"o":""},"č":{"ha":0,"x_min":0,"x_max":0,"o":""},"ç":{"ha":0,"x_min":0,"x_max":0,"o":""},"ḉ":{"ha":0,"x_min":0,"x_max":0,"o":""},"ĉ":{"ha":0,"x_min":0,"x_max":0,"o":""},"ɕ":{"ha":1,"x_min":0,"x_max":0,"o":"m 406 -15 b 709 209 595 -15 711 81 b 507 378 709 313 635 378 b 239 267 402 378 314 332 b 225 369 230 296 225 331 b 445 568 373 369 445 460 b 339 515 445 652 495 515 b 25 457 117 515 25 537 b NaN NaN 25 498 -37 NaN b NaN NaN NaN NaN NaN NaN l NaN NaN b NaN NaN NaN NaN NaN NaN b NaN NaN NaN NaN NaN NaN z m NaN NaN b NaN NaN NaN NaN NaN NaN b NaN NaN NaN NaN NaN NaN b NaN NaN NaN NaN NaN NaN b NaN NaN NaN NaN NaN NaN z "},"ċ":{"ha":0,"x_min":0,"x_max":0,"o":""},"ƈ":{"ha":74,"x_min":0,"x_max":0,"o":"m 720 483 l 720 587 b 814 684 720 659 755 684 b 860 678 831 684 846 681 l 860 799 b 781 808 836 807 808 808 b 585 703 694 808 621 771 b 404 746 534 730 473 746 b 52 365 189 746 52 590 b 404 -15 52 142 184 -15 b 720 251 589 -15 707 95 z "},"ʗ":{"ha":-20,"x_min":0,"x_max":0,"o":"m 389 -151 b 235 68 259 -151 235 -34 l 235 387 b 388 605 235 488 260 605 b 522 472 473 605 519 544 l 690 472 b 391 746 688 636 568 746 b 57 387 168 746 57 585 l 57 68 b 391 -292 57 -132 167 -292 b 690 -37 555 -292 688 -182 l 522 -37 b 389 -151 519 -104 464 -151 z "},"d":{"ha":73,"x_min":0,"x_max":0,"o":""},"ď":{"ha":0,"x_min":0,"x_max":0,"o":""},"ḑ":{"ha":0,"x_min":0,"x_max":0,"o":""},"ḓ":{"ha":0,"x_min":0,"x_max":0,"o":""},"đ":{"ha":73,"x_min":0,"x_max":0,"o":""},"ḋ":{"ha":0,"x_min":0,"x_max":0,"o":""},"ḍ":{"ha":0,"x_min":0,"x_max":0,"o":""},"ƍ":{"ha":48,"x_min":0,"x_max":0,"o":"m 659 -247 l 659 -152 b 444 50 608 -96 510 -7 b 468 52 453 50 458 50 b 747 377 632 76 747 205 l 747 391 b 408 746 747 602 623 746 b 71 376 193 746 71 595 l 71 362 b 304 -8 71 217 167 104 b 426 -109 353 -47 408 -91 l 145 -109 l 145 -247 z m 570 376 l 570 362 b 401 146 570 245 521 146 b 358 153 385 146 372 148 b 247 362 300 189 247 262 l 247 376 b 408 605 247 507 290 605 b 570 376 530 605 570 502 z "},"ɗ":{"ha":0,"x_min":0,"x_max":0,"o":"l 87 0 l 87 774 b 203 856 87 850 151 856 b 246 852 215 856 231 856 l 246 987 b 157 997 227 993 189 997 b -85 774 41 997 -85 947 l -85 616 l -92 616 "},"ḏ":{"ha":0,"x_min":0,"x_max":0,"o":""},"ɖ":{"ha":64,"x_min":0,"x_max":0,"o":"m 806 -277 b 898 -270 844 -277 876 -274 l 898 -134 b 852 -138 883 -137 868 -138 b 747 -57 798 -138 747 -121 l 747 982 l 575 982 l 575 616 l 568 616 l 576 616 l 576 442 b 806 222 576 281 678 222 "},"ƌ":{"ha":73,"x_min":0,"x_max":0,"o":"m 156 982 l 156 849 l 575 849 l 575 616 l 568 616 l 1550 616 "},"ʤ":{"ha":547,"x_min":0,"x_max":0,"o":"m 731 0 l 731 595 l 1046 595 l 808 296 l 808 179 l 902 179 b 1103 7 1024 179 1103 114 b 921 -156 1103 -87 1035 -156 b 735 -50 817 -156 754 -110 l 568 -50 b 925 -292 605 -239 761 -292 b 1270 -1 1128 -292 1270 -184 b 991 294 1270 161 1171 273 l 1251 623 l 1249 736 l 731 736 l 731 982 l 557 982 l 557 640 l 551 640 b 358 746 525 689 468 746 b 53 368 189 746 53 613 b 357 -14 53 123 184 -14 b 551 92 467 -14 525 43 l 562 92 l 562 0 z m 220 369 b 400 605 220 509 279 605 b 572 369 521 605 572 505 b 400 129 572 232 521 129 b 220 369 279 129 220 227 z "},"ǳ":{"ha":702,"x_min":0,"x_max":0,"o":"m 392 -129 z "},"ʣ":{"ha":701,"x_min":0,"x_max":0,"o":"m 796 0 l 1158 469 l 1158 587 l 518 587 l 518 833 l 346 833 l 346 467 l 339 467 l 933 467 l 933 895 l 926 895 l 547 418 "},"ǆ":{"ha":702,"x_min":0,"x_max":0,"o":"m 392 -129 "},"ʥ":{"ha":0,"x_min":0,"x_max":0,"o":"l 857 0 l 857 594 l 1284 594 l 909 111 l 909 0 l 1118 0 l 1059 -83 l 1173 -153 l 1285 0 l 1436 0 b 1712 228 1634 0 1712 129 b 1533 399 1712 330 1630 399 b 1219 142 1423 399 1342 311 l 1126 142 l 1498 628 l 1498 736 l 857 736 l 857 982 l 684 982 l 684 616 l 677 616 m 1550 629 b 1681 745 1608 709 1640 745 b 1731 705 1707 745 1731 731 b 1608 629 1731 666 1693 629 z "},"ð":{"ha":21,"x_min":0,"x_max":0,"o":"m 625 929 l 605 1013 l 434 928 b 210 1039 364 977 288 1014 l 179 940 b 312 867 227 918 271 893 l 175 798 l 194 712 l 387 810 b 557 585 467 739 525 661 l 548 585 b 350 685 511 635 446 685 b 52 338 176 685 52 537 b 392 -15 52 129 186 -15 b 736 372 604 -15 736 133 b 507 869 736 580 641 749 z m 396 122 b 218 346 275 122 218 222 b 396 568 218 471 277 568 b 575 340 521 568 575 458 b 396 122 575 213 511 122 z "},"e":{"ha":0,"x_min":0,"x_max":0,"o":""},"é":{"ha":0,"x_min":0,"x_max":0,"o":""},"ĕ":{"ha":0,"x_min":0,"x_max":0,"o":""},"ě":{"ha":0,"x_min":0,"x_max":0,"o":""},"ḝ":{"ha":0,"x_min":0,"x_max":0,"o":""},"ê":{"ha":0,"x_min":0,"x_max":0,"o":""},"ế":{"ha":0,"x_min":0,"x_max":0,"o":""},"ḙ":{"ha":0,"x_min":0,"x_max":0,"o":""},"ệ":{"ha":0,"x_min":0,"x_max":0,"o":""},"ề":{"ha":0,"x_min":0,"x_max":0,"o":""},"ể":{"ha":0,"x_min":0,"x_max":0,"o":""},"ễ":{"ha":0,"x_min":0,"x_max":0,"o":""},"ȅ":{"ha":0,"x_min":0,"x_max":0,"o":""},"ë":{"ha":0,"x_min":0,"x_max":0,"o":""},"ė":{"ha":0,"x_min":0,"x_max":0,"o":""},"ẹ":{"ha":0,"x_min":0,"x_max":0,"o":""},"è":{"ha":0,"x_min":0,"x_max":0,"o":"l 21 0 l 21 -77 l 870 -77 l 870 -247 "},"ẻ":{"ha":0,"x_min":0,"x_max":0,"o":""},"ȇ":{"ha":0,"x_min":0,"x_max":0,"o":""},"ē":{"ha":0,"x_min":0,"x_max":0,"o":""},"ḗ":{"ha":0,"x_min":0,"x_max":0,"o":""},"ḕ":{"ha":0,"x_min":0,"x_max":0,"o":""},"ę":{"ha":21,"x_min":0,"x_max":0,"o":"m 457 -266 b 563 -186 499 -266 534 -233 b 766 11 670 -157 743 -85 l 597 11 b 448 -65 575 -33 524 -65 b 259 134 335 -65 261 9 l 773 134 l 773 189 b 437 560 773 448 617 560 b 88 178 227 560 88 406 b 376 -195 88 -27 195 -167 b 342 -324 347 -235 336 -281 "},"ɛ":{"ha":0,"x_min":0,"x_max":0,"o":""},"ɜ":{"ha":9,"x_min":0,"x_max":0,"o":"m 278 439 l 278 316 l 377 316 b 526 216 461 316 526 278 b 373 121 526 161 469 121 b 217 213 275 121 229 152 l 49 213 b 368 -14 58 68 197 -14 b 696 201 553 -14 694 71 b 538 372 694 273 652 342 b 682 532 643 401 682 468 b 369 746 682 669 552 746 b 61 529 198 746 72 666 "},"ɞ":{"ha":-1,"x_min":0,"x_max":0,"o":"m 388 -14 b 704 201 570 -14 704 71 b 555 372 704 273 665 342 b 690 532 655 401 690 468 b 389 746 690 669 568 746 b 50 378 189 746 50 621 b 388 -14 50 121 193 -14 z m 216 378 b 399 613 216 544 289 613 b 524 522 480 613 524 572 b 396 438 524 472 481 438 l 339 438 l 339 317 l 396 317 b 534 216 480 317 534 278 b 395 121 534 161 484 121 b 216 378 279 121 216 208 z "},"ɝ":{"ha":275,"x_min":0,"x_max":0,"o":"m 279 439 l 279 316 l 378 316 b 528 216 463 316 528 278 b 374 121 528 161 471 121 b 218 213 277 121 231 152 l 50 213 b 369 -14 60 68 198 -14 b 697 201 555 -14 696 71 b 540 372 696 273 653 342 b 671 472 612 391 652 429 l 707 480 b 884 292 730 377 762 292 b 983 316 918 292 955 300 l 959 426 b 920 425 949 425 939 425 b 818 629 846 425 837 503 l 673 600 b 370 746 636 694 521 746 b 62 529 199 746 73 666 "},"ʚ":{"ha":-1,"x_min":0,"x_max":0,"o":"m 378 -14 b 951 248 574 129 708 387 b 932 -142 1076 47 897 -75 b NaN NaN 1033 -171 NaN NaN b NaN NaN NaN NaN NaN NaN b NaN NaN NaN NaN NaN NaN z m NaN NaN b NaN NaN NaN NaN NaN NaN l NaN NaN l NaN NaN l NaN NaN b NaN NaN NaN NaN NaN NaN b NaN NaN NaN NaN NaN NaN b NaN NaN NaN NaN NaN NaN b NaN NaN NaN NaN NaN NaN b NaN NaN NaN NaN NaN NaN z "},"ɘ":{"ha":-21,"x_min":0,"x_max":0,"o":"m 345 -14 b 699 342 563 -14 699 137 l 699 369 b 359 746 699 587 574 746 b 49 385 167 746 49 612 l 49 311 l 518 311 b 332 129 508 197 441 129 b 155 213 267 129 201 153 l 61 119 b 345 -14 118 39 216 -14 z m 224 434 l 224 444 b 363 605 229 551 282 605 b 515 434 459 605 503 530 z "},"ʃ":{"ha":-146,"x_min":0,"x_max":0,"o":"m 221 779 l 221 -43 b 42 -81 155 -43 115 -81 b 0 -80 18 -81 -4 -80 b NaN NaN -15 -80 19 NaN b NaN NaN NaN NaN NaN NaN l NaN NaN b NaN NaN NaN NaN NaN NaN b NaN NaN NaN NaN NaN NaN l NaN NaN b NaN NaN NaN NaN NaN NaN b NaN NaN NaN NaN NaN NaN z "},"ʆ":{"ha":-24,"x_min":0,"x_max":0,"o":"m 510 -7 l 510 779 b 628 883 510 846 557 883 b 689 878 651 883 674 882 l 693 1015 b 598 1027 661 1021 629 1027 b 342 779 437 1027 342 940 l 342 71 b 255 79 315 76 286 79 b 43 -100 125 79 43 11 b 271 -282 43 -208 123 -282 b 488 -164 394 -282 458 -234 l 597 -263 l 684 -156 z m 203 -103 b 275 -46 203 -69 232 -46 b 342 -60 298 -46 319 -51 l 342 -88 b 267 -161 342 -132 317 -161 b 203 -103 232 -161 203 -141 z "},"ƪ":{"ha":47,"x_min":0,"x_max":0,"o":"m 77 773 b 335 518 77 633 193 518 b 415 532 363 518 390 523 l 415 -26 b 646 -282 415 -193 498 -282 b 738 -271 677 -282 711 -279 l 738 -133 b 684 -138 718 -136 700 -138 b 593 -26 625 -138 593 -106 l 593 773 b 335 1027 593 913 476 1027 b 77 773 191 1027 76 913 z m 335 673 b 235 774 277 673 235 707 b 335 876 235 841 277 876 b 433 774 388 876 433 842 b 335 673 433 707 389 673 z "},"ʅ":{"ha":-144,"x_min":0,"x_max":0,"o":"m 400 -43 l 400 498 b 140 746 400 658 301 746 b 45 734 107 746 76 742 l 47 597 b 109 604 64 601 84 604 b 224 498 182 604 224 564 l 224 -43 b 483 -292 224 -205 321 -292 b 579 -279 517 -292 549 -286 l 576 -142 b 513 -148 559 -146 537 -148 b 400 -43 442 -148 400 -111 z "},"ẽ":{"ha":0,"x_min":0,"x_max":0,"o":""},"ḛ":{"ha":0,"x_min":0,"x_max":0,"o":""},"ǝ":{"ha":0,"x_min":0,"x_max":0,"o":""},"ə":{"ha":0,"x_min":0,"x_max":0,"o":""},"ɚ":{"ha":298,"x_min":0,"x_max":0,"o":"m 353 727 b 71 595 208 727 117 661 l 163 502 b 343 586 203 555 264 586 b 511 477 425 586 483 543 l 58 378 l 58 339 b 374 -14 57 130 163 -14 b 707 355 568 -14 707 136 l 707 381 l 707 392 l 732 397 b 909 206 754 293 787 206 b 1008 232 944 206 978 217 l 985 340 b 944 339 974 340 963 339 b 841 545 871 339 863 416 l 685 513 b 353 727 638 639 522 727 z m 232 277 l 232 292 l 530 354 b 374 129 528 229 482 129 b 232 277 271 129 232 198 z "},"ʒ":{"ha":0,"x_min":0,"x_max":0,"o":""},"ǯ":{"ha":0,"x_min":0,"x_max":0,"o":""},"ʓ":{"ha":123,"x_min":0,"x_max":0,"o":"m 119 736 l 119 591 l 533 591 l 533 583 l 302 332 l 302 205 l 412 205 b 597 49 522 205 597 137 b 593 5 597 35 595 20 l 590 7 b 308 113 525 57 429 113 b 75 -71 164 113 75 41 b 373 -282 75 -213 228 -282 b 648 -194 492 -282 584 -248 l 741 -264 l 818 -170 l 726 -98 b 757 35 746 -56 757 -11 b 486 317 757 184 652 298 l 486 324 l 754 616 l 753 736 z m 225 -66 b 315 -11 225 -33 258 -11 b 517 -92 395 -11 465 -52 l 526 -99 b 388 -141 493 -125 448 -141 b 225 -66 298 -141 225 -114 z "},"ƹ":{"ha":97,"x_min":0,"x_max":0,"o":"m 795 20 l 616 20 b 435 -110 609 -62 532 -110 b 254 42 331 -110 254 -56 b 461 205 254 132 320 205 l 559 205 l 559 332 l 331 582 l 331 589 l 746 589 l 746 736 l 107 736 l 107 609 l 372 324 l 372 317 b 72 33 178 301 72 175 b 435 -259 72 -140 227 -259 b 795 20 637 -259 787 -151 z "},"ƺ":{"ha":-20,"x_min":0,"x_max":0,"o":"m 96 736 l 96 595 l 420 595 l 217 420 l 217 316 l 362 316 b 475 244 438 316 475 289 b 332 149 475 190 434 170 b 60 -73 149 114 60 46 b 361 -292 60 -203 178 -292 b 670 -53 562 -292 670 -170 l 500 -53 b 354 -163 495 -138 425 -163 b 233 -83 282 -163 233 -136 b 376 16 233 -43 263 -8 b 647 237 530 50 647 106 b 454 435 647 332 576 409 l 684 633 l 684 736 z "},"f":{"ha":-271,"x_min":0,"x_max":0,"o":""},"ḟ":{"ha":0,"x_min":0,"x_max":0,"o":""},"ʩ":{"ha":0,"x_min":0,"x_max":0,"o":""},"ʪ":{"ha":170,"x_min":0,"x_max":0,"o":"m 693 195 b 556 118 692 148 651 118 b 225 222 481 118 351 140 l 225 982 l 53 982 l 53 0 l 225 0 l 225 61 b 556 -14 337 5 450 -14 b 867 205 749 -14 867 77 b 601 425 867 330 773 391 b 452 515 499 445 452 464 b 566 600 452 562 491 600 b 686 498 646 600 685 553 l 863 498 b 566 727 863 628 751 727 b 281 507 389 727 281 625 b 541 294 281 384 391 327 b 693 195 656 269 692 245 z "},"ʭ":{"ha":-85,"x_min":0,"x_max":0,"o":"m 616 384 l 66 384 l 66 0 l 197 0 l 197 282 l 484 282 l 484 0 l 616 0 z m 616 960 l 66 960 l 66 576 l 197 576 l 197 857 l 484 857 l 484 576 l 616 576 z "},"g":{"ha":64,"x_min":0,"x_max":0,"o":""},"ǵ":{"ha":0,"x_min":0,"x_max":0,"o":""},"ɣ":{"ha":81,"x_min":0,"x_max":0,"o":"m 425 -292 b 642 -118 560 -292 642 -232 b 600 31 642 -81 631 -28 l 517 191 l 800 736 l 621 736 l 425 365 l 229 736 l 50 736 l 336 197 l 247 27 b 202 -118 218 -24 202 -77 b 425 -292 203 -232 289 -292 z m 378 -115 b 427 20 378 -80 397 -39 b 469 -115 454 -37 469 -79 b 425 -161 469 -144 453 -161 b 378 -115 395 -161 378 -144 z "},"ǥ":{"ha":64,"x_min":0,"x_max":0,"o":"m 404 -292 b 749 -12 604 -292 749 -201 l 749 320 l 892 320 l 892 430 l 749 430 l 749 736 l 578 736 l 578 616 l 570 616 b 358 746 543 669 488 746 b 53 374 187 746 53 617 b 357 11 53 134 187 11 b 570 133 484 11 543 79 l 578 133 l 578 -8 b 407 -161 578 -117 510 -161 b 245 -66 319 -161 258 -130 l 73 -66 b 404 -292 85 -205 209 -292 z m 404 146 b 229 372 290 146 229 236 b 404 605 229 506 289 605 b 575 430 500 605 559 536 l 434 430 l 434 320 l 576 320 b 404 146 562 210 501 146 z "},"ğ":{"ha":0,"x_min":0,"x_max":0,"o":""},"ǧ":{"ha":0,"x_min":0,"x_max":0,"o":""},"ĝ":{"ha":0,"x_min":0,"x_max":0,"o":""},"ģ":{"ha":0,"x_min":0,"x_max":0,"o":""},"ɡ":{"ha":64,"x_min":0,"x_max":0,"o":""},"ġ":{"ha":0,"x_min":0,"x_max":0,"o":""},"ɠ":{"ha":81,"x_min":0,"x_max":0,"o":"m 750 -12 l 750 776 b 859 857 750 841 802 857 b 903 853 873 857 880 856 l 903 989 b 811 996 880 993 852 996 b 579 776 693 996 579 944 l 579 616 l 571 616 b 359 746 544 669 490 746 b 54 374 189 746 54 617 b 358 11 54 134 189 11 b 571 133 486 11 544 79 l 579 133 l 579 -8 b 408 -161 579 -117 511 -161 b 247 -66 320 -161 259 -130 l 75 -66 b 406 -292 87 -205 210 -292 b 750 -12 605 -292 750 -201 z m 406 146 b 581 -87 518 146 581 53 b 406 -312 581 -228 517 -312 z "},"ʡ":{"ha":-20,"x_min":0,"x_max":0,"o":"m 590 208 l 454 208 l 454 240 l 370 240 l 370 79 l 229 79 l 229 -38 l 370 -38 l 370 -129 l 551 -129 l 551 -38 l 686 -38 z "},"ƾ":{"ha":-20,"x_min":0,"x_max":0,"o":"m 506 195 b 382 115 506 148 460 115 b 240 227 316 115 244 142 l 69 227 b 380 -14 69 110 178 -14 b 680 205 562 -14 680 77 b 438 533 680 414 438 354 l 438 585 l 566 585 l 566 713 l 438 713 l 438 888 l 260 888 l 260 713 l 146 713 l 146 585 l 260 585 l 260 533 b 506 195 260 289 506 312 z "},"ʢ":{"ha":-20,"x_min":0,"x_max":0,"o":"m 296 0 l 296 176 l 370 176 l 370 361 l 317 361 l 317 220 l 208 220 l 208 361 z "},"ʖ":{"ha":-20,"x_min":0,"x_max":0,"o":"m 358 647 b 513 429 488 647 513 532 l 513 346 b 358 129 513 247 487 129 b 224 260 274 129 228 189 l 57 260 b 357 -14 61 96 182 -14 b 690 346 581 -14 690 148 l 690 429 b 453 777 690 595 612 736 l 453 982 l 275 982 l 275 647 z "},"ʕ":{"ha":-20,"x_min":0,"x_max":0,"o":"m 296 0 z "},"ḡ":{"ha":0,"x_min":0,"x_max":0,"o":""},"ȝ":{"ha":-18,"x_min":0,"x_max":0,"o":"m 149 243 l 149 114 b 467 235 278 144 385 186 b 494 132 484 210 494 174 b 149 -155 494 -3 401 -81 l 149 -288 b 671 122 496 -227 671 -90 b 571 317 671 212 637 279 b 658 518 628 376 658 444 b 377 746 658 663 556 746 b 77 510 191 746 77 656 l 255 510 b 373 612 254 572 300 612 b 480 505 444 612 480 575 b 149 243 480 391 376 308 z "},"h":{"ha":48,"x_min":0,"x_max":0,"o":""},"ħ":{"ha":0,"x_min":0,"x_max":0,"o":""},"ḫ":{"ha":0,"x_min":0,"x_max":0,"o":""},"ḩ":{"ha":0,"x_min":0,"x_max":0,"o":"l 48 0 l 48 256 l 92 256 l 71 164 l 108 NaN l 143 NaN "},"ĥ":{"ha":0,"x_min":0,"x_max":0,"o":""},"ḧ":{"ha":0,"x_min":0,"x_max":0,"o":""},"ḣ":{"ha":0,"x_min":0,"x_max":0,"o":""},"ḥ":{"ha":0,"x_min":0,"x_max":0,"o":""},"ɧ":{"ha":44,"x_min":0,"x_max":0,"o":"m 556 442 l 556 -57 b 452 -138 556 -121 506 -138 b 406 -134 434 -138 419 -137 l 406 -270 b 496 -277 427 -274 457 -277 b 728 -57 625 -277 728 -218 l 1255 -57 l 1255 -66 l 1420 -66 z "},"ɦ":{"ha":44,"x_min":0,"x_max":0,"o":"m 248 612 l 248 777 z "},"ẖ":{"ha":0,"x_min":0,"x_max":0,"o":""},"ɥ":{"ha":48,"x_min":0,"x_max":0,"o":"m 559 305 l 559 747 l 387 747 l 387 278 b 640 1 387 100 487 1 b 859 136 754 1 825 53 l 868 136 l 868 -235 l 1038 -235 l 1038 747 l 864 747 z "},"ʯ":{"ha":0,"x_min":0,"x_max":0,"o":"l 173 0 l 173 -182 b 402 -401 173 -343 273 -401 b 494 -395 441 -401 470 -399 l 494 -259 b 448 -263 481 -262 463 -263 b 341 -182 393 -263 341 -245 l 341 612 l 169 612 l 169 180 "},"ʮ":{"ha":0,"x_min":0,"x_max":0,"o":"l 153 0 l 153 -401 l 321 -401 l 321 612 l 149 612 l 149 180 "},"ƕ":{"ha":531,"x_min":0,"x_max":0,"o":"m 83 0 l 83 -153 b 362 -456 83 -351 191 -456 b 736 208 602 -456 736 -247 l 736 294 l 563 294 l 563 208 b 369 -311 563 -155 486 -311 b 255 -153 316 -311 255 -278 l 435 -153 l 435 217 l 266 217 z "},"i":{"ha":-428,"x_min":0,"x_max":0,"o":""},"ı":{"ha":-428,"x_min":0,"x_max":0,"o":""},"í":{"ha":0,"x_min":0,"x_max":0,"o":""},"ɨ":{"ha":0,"x_min":0,"x_max":0,"o":""},"ĭ":{"ha":0,"x_min":0,"x_max":0,"o":""},"ǐ":{"ha":0,"x_min":0,"x_max":0,"o":""},"î":{"ha":0,"x_min":0,"x_max":0,"o":""},"ȉ":{"ha":0,"x_min":0,"x_max":0,"o":""},"ï":{"ha":0,"x_min":0,"x_max":0,"o":""},"ḯ":{"ha":0,"x_min":0,"x_max":0,"o":""},"ị":{"ha":0,"x_min":0,"x_max":0,"o":""},"ì":{"ha":0,"x_min":0,"x_max":0,"o":""},"ỉ":{"ha":0,"x_min":0,"x_max":0,"o":""},"ȋ":{"ha":-428,"x_min":0,"x_max":0,"o":""},"ī":{"ha":0,"x_min":0,"x_max":0,"o":""},"į":{"ha":0,"x_min":0,"x_max":0,"o":"l 0 -422 l 157 -422 l 157 -702 l 894 -702 l 894 -876 l 174 -876 "},"ĩ":{"ha":-394,"x_min":0,"x_max":0,"o":"m 100 0 "},"ḭ":{"ha":0,"x_min":0,"x_max":0,"o":""},"ĳ":{"ha":0,"x_min":0,"x_max":0,"o":""},"j":{"ha":0,"x_min":0,"x_max":0,"o":""},"ȷ":{"ha":-428,"x_min":0,"x_max":0,"o":""},"ǰ":{"ha":0,"x_min":0,"x_max":0,"o":""},"ĵ":{"ha":0,"x_min":0,"x_max":0,"o":""},"ʝ":{"ha":-201,"x_min":0,"x_max":0,"o":"m 224 -282 b 460 -47 396 -282 459 -168 l 624 -47 l 624 81 l 460 81 l 460 736 l 286 736 l 286 81 l 217 81 b 0 -100 84 81 -1 9 b 224 -282 0 -205 76 -282 "},"ɟ":{"ha":0,"x_min":0,"x_max":0,"o":""},"ʄ":{"ha":-146,"x_min":0,"x_max":0,"o":"m 221 779 l 221 125 l 81 125 l 81 15 l 221 15 l 221 -43 b 42 -81 155 -43 115 -81 b 0 -80 18 -81 -4 -80 b NaN NaN -15 -80 19 NaN b NaN NaN NaN NaN NaN NaN l NaN NaN l NaN NaN l NaN NaN l NaN NaN l NaN NaN b NaN NaN NaN NaN NaN NaN b NaN NaN NaN NaN NaN NaN l NaN NaN b NaN NaN NaN NaN NaN NaN b NaN NaN NaN NaN NaN NaN z "},"k":{"ha":-12,"x_min":0,"x_max":0,"o":""},"ḱ":{"ha":0,"x_min":0,"x_max":0,"o":""},"ǩ":{"ha":0,"x_min":0,"x_max":0,"o":""},"ķ":{"ha":0,"x_min":0,"x_max":0,"o":""},"ḳ":{"ha":0,"x_min":0,"x_max":0,"o":""},"ĸ":{"ha":0,"x_min":0,"x_max":0,"o":""},"ƙ":{"ha":-21,"x_min":0,"x_max":0,"o":"m 551 0 l 743 0 l 439 422 l 722 736 l 515 736 l 266 453 l 256 453 l 256 776 b 361 857 256 841 305 857 b 406 853 376 857 392 856 l 406 989 b 315 996 384 993 351 996 b 83 776 197 996 84 944 l 83 0 l 256 0 l 256 214 l 332 298 z "},"ḵ":{"ha":0,"x_min":0,"x_max":0,"o":""},"ʞ":{"ha":-12,"x_min":0,"x_max":0,"o":"m 673 736 l 499 736 l 499 488 l 435 420 l 209 736 l 3 736 l 307 317 l 20 0 l 222 0 l 487 296 l 499 296 l 499 -245 l 673 -245 z "},"l":{"ha":-428,"x_min":0,"x_max":0,"o":""},"ĺ":{"ha":0,"x_min":0,"x_max":0,"o":""},"ƛ":{"ha":105,"x_min":0,"x_max":0,"o":"m 513 924 l 427 894 l 426 895 b 247 1008 396 967 346 1008 b 151 997 221 1008 174 1004 l 153 863 b 190 865 167 865 180 865 b 258 837 219 865 241 857 l 129 792 l 129 669 l 308 730 l 324 692 l 65 0 l 258 0 l 416 454 l 538 132 b 731 -12 578 28 631 -12 b 799 -7 760 -12 783 -11 l 798 133 l 774 133 b 705 199 741 133 720 161 l 471 785 l 513 799 z "},"ƚ":{"ha":-428,"x_min":0,"x_max":0,"o":"m 256 982 l 83 982 l 83 564 l -372 564 l -372 738 l 83 738 z "},"ɬ":{"ha":-139,"x_min":0,"x_max":0,"o":"m 231 374 l 305 374 l 305 0 l 477 0 l 477 374 l 620 374 l 620 500 l 477 500 l 477 982 l 305 982 l 305 741 b 243 746 286 744 265 746 b 19 555 96 746 19 659 b 231 374 19 446 100 374 z m 175 557 b 240 617 175 590 203 617 b 305 541 285 617 305 586 l 305 500 l 244 500 b 175 557 201 500 175 528 z "},"ľ":{"ha":0,"x_min":0,"x_max":0,"o":""},"ḽ":{"ha":0,"x_min":0,"x_max":0,"o":""},"ļ":{"ha":0,"x_min":0,"x_max":0,"o":""},"ȴ":{"ha":-248,"x_min":0,"x_max":0,"o":"m 77 982 l 77 0 b 27 -35 60 -11 43 -23 l -94 -148 l -3 -250 l 106 -151 b 323 -277 146 -230 229 -277 b 532 -85 452 -277 532 -189 b 338 96 532 16 452 96 b 250 83 310 96 280 92 l 250 982 z m 250 -73 l 250 -45 b 319 -31 271 -36 294 -31 b 384 -88 359 -31 384 -58 b 326 -151 384 -123 359 -151 b 250 -73 279 -151 250 -118 z "},"ŀ":{"ha":0,"x_min":0,"x_max":0,"o":""},"ḷ":{"ha":0,"x_min":0,"x_max":0,"o":""},"ḹ":{"ha":0,"x_min":0,"x_max":0,"o":""},"ǉ":{"ha":0,"x_min":0,"x_max":0,"o":""},"ḻ":{"ha":0,"x_min":0,"x_max":0,"o":""},"ɫ":{"ha":-342,"x_min":0,"x_max":0,"o":"m 302 982 l 129 982 l 129 597 l 111 597 l 118 597 l 118 111 l 292 111 l 292 530 l 305 529 l 302 529 z "},"ɭ":{"ha":-368,"x_min":0,"x_max":0,"o":"m 256 -57 l 256 982 l 83 982 l 83 -57 b 315 -277 83 -218 186 -277 b 406 -270 354 -277 384 -274 z "},"ł":{"ha":-429,"x_min":0,"x_max":0,"o":"m 351 631 l 256 600 l 256 982 l 83 982 l 83 540 l -14 507 l -14 404 l 83 437 l 83 0 l 256 0 l 256 496 l 351 528 z "},"ɮ":{"ha":144,"x_min":0,"x_max":0,"o":"m 91 982 l 91 20 l 256 20 l 256 591 l 613 591 l 613 583 l 382 332 l 382 205 l 492 205 b 677 33 606 205 677 140 b 498 -144 677 -77 604 -144 b 353 -88 437 -144 385 -123 l 227 -199 b 496 -292 290 -258 385 -292 b 859 23 708 -292 857 -167 b 566 317 860 178 760 294 l 566 324 l 834 616 l 833 736 l 256 736 l 256 982 z "},"m":{"ha":0,"x_min":0,"x_max":0,"o":""},"ḿ":{"ha":0,"x_min":0,"x_max":0,"o":""},"ṁ":{"ha":0,"x_min":0,"x_max":0,"o":""},"ṃ":{"ha":0,"x_min":0,"x_max":0,"o":""},"ɱ":{"ha":552,"x_min":0,"x_max":0,"o":"m 945 468 l 945 -57 b 841 -138 945 -121 897 -138 b 795 -134 825 -138 810 -137 l 795 -270 b 886 -277 818 -274 846 -277 b 1118 -57 1015 -277 1118 -218 z "},"ɯ":{"ha":0,"x_min":0,"x_max":0,"o":"m 1118 736 l 1283 736 z "},"ɰ":{"ha":0,"x_min":0,"x_max":0,"o":"m 951 -277 l 1116 -277 l 1116 0 l 1118 0 l 1118 736 l 1116 736 z "},"n":{"ha":44,"x_min":0,"x_max":0,"o":""},"ń":{"ha":0,"x_min":0,"x_max":0,"o":""},"ň":{"ha":0,"x_min":0,"x_max":0,"o":""},"ṋ":{"ha":0,"x_min":0,"x_max":0,"o":""},"ņ":{"ha":0,"x_min":0,"x_max":0,"o":""},"ȵ":{"ha":284,"x_min":0,"x_max":0,"o":"m 256 431 l 256 90 b 218 50 243 77 231 64 l 96 -79 l 189 -164 l 273 -72 b 486 -202 303 -153 380 -202 b 711 -12 624 -202 711 -123 b 509 176 711 100 624 176 b 429 172 481 176 455 175 z m 901 180 l 901 467 l 951 467 b 1016 477 975 474 997 478 b 1085 414 1057 477 1085 454 b 1023 347 1085 374 1061 347 b 951 416 983 347 951 377 z "},"ṅ":{"ha":0,"x_min":0,"x_max":0,"o":""},"ṇ":{"ha":0,"x_min":0,"x_max":0,"o":""},"ǌ":{"ha":0,"x_min":0,"x_max":0,"o":""},"ƞ":{"ha":44,"x_min":0,"x_max":0,"o":""},"ɲ":{"ha":82,"x_min":0,"x_max":0,"o":"m 121 0 l 121 -53 b 27 -138 121 -117 84 -138 b -26 -133 7 -138 -11 -137 l -35 -275 l -35 -281 l -7 -281 l -7 -228 l -5 -228 l -5 203 z "},"ṉ":{"ha":0,"x_min":0,"x_max":0,"o":""},"ɳ":{"ha":62,"x_min":0,"x_max":0,"o":"m 728 -57 l 728 469 l 229 469 b 460 250 229 308 332 250 b 552 256 499 250 528 252 l 552 392 b 506 388 529 389 522 388 b 401 469 450 388 401 406 z "},"ñ":{"ha":0,"x_min":0,"x_max":0,"o":""},"ŋ":{"ha":0,"x_min":0,"x_max":0,"o":""},"o":{"ha":41,"x_min":0,"x_max":0,"o":""},"ó":{"ha":0,"x_min":0,"x_max":0,"o":""},"ɵ":{"ha":0,"x_min":0,"x_max":0,"o":""},"ŏ":{"ha":0,"x_min":0,"x_max":0,"o":""},"ǒ":{"ha":0,"x_min":0,"x_max":0,"o":""},"ô":{"ha":0,"x_min":0,"x_max":0,"o":""},"ố":{"ha":0,"x_min":0,"x_max":0,"o":""},"ộ":{"ha":0,"x_min":0,"x_max":0,"o":""},"ồ":{"ha":0,"x_min":0,"x_max":0,"o":""},"ổ":{"ha":0,"x_min":0,"x_max":0,"o":""},"ỗ":{"ha":0,"x_min":0,"x_max":0,"o":""},"ȍ":{"ha":0,"x_min":0,"x_max":0,"o":""},"ö":{"ha":0,"x_min":0,"x_max":0,"o":""},"ọ":{"ha":0,"x_min":0,"x_max":0,"o":""},"ò":{"ha":0,"x_min":0,"x_max":0,"o":""},"ỏ":{"ha":0,"x_min":0,"x_max":0,"o":""},"ơ":{"ha":58,"x_min":0,"x_max":0,"o":""},"ớ":{"ha":0,"x_min":0,"x_max":0,"o":""},"ợ":{"ha":0,"x_min":0,"x_max":0,"o":""},"ờ":{"ha":0,"x_min":0,"x_max":0,"o":""},"ở":{"ha":0,"x_min":0,"x_max":0,"o":""},"ỡ":{"ha":0,"x_min":0,"x_max":0,"o":""},"ő":{"ha":0,"x_min":0,"x_max":0,"o":""},"ƣ":{"ha":170,"x_min":0,"x_max":0,"o":"m 376 129 b 221 346 266 129 221 220 l 221 368 b 372 605 221 494 248 605 b 467 568 415 605 445 591 l 467 159 b 376 129 444 140 415 129 z m 894 736 l 768 736 l 600 659 b 378 746 548 707 473 746 b 45 368 153 746 45 585 l 45 346 b 374 -14 45 148 156 -14 b 644 119 514 -14 594 45 l 644 498 l 716 530 l 716 -277 l 894 -277 z "},"ȏ":{"ha":41,"x_min":0,"x_max":0,"o":""},"ō":{"ha":0,"x_min":0,"x_max":0,"o":""},"ṓ":{"ha":0,"x_min":0,"x_max":0,"o":""},"ṑ":{"ha":0,"x_min":0,"x_max":0,"o":""},"ɷ":{"ha":424,"x_min":0,"x_max":0,"o":"m 597 605 b 922 323 840 605 922 477 b 806 129 922 218 891 129 b 688 321 741 129 688 180 l 688 448 l 503 448 l 503 321 b 387 129 503 180 452 129 b 270 323 301 129 270 218 b 597 605 270 477 353 605 z m 597 746 b 94 323 263 746 94 563 b 372 -14 94 157 168 -14 b 597 132 479 -14 555 37 b 821 -14 637 37 713 -14 b 1099 323 1024 -14 1099 157 b 597 746 1099 563 930 746 z "},"ǫ":{"ha":41,"x_min":0,"x_max":0,"o":""},"ǭ":{"ha":0,"x_min":0,"x_max":0,"o":""},"ɔ":{"ha":0,"x_min":0,"x_max":0,"o":""},"ø":{"ha":0,"x_min":0,"x_max":0,"o":""},"ǿ":{"ha":0,"x_min":0,"x_max":0,"o":""},"õ":{"ha":0,"x_min":0,"x_max":0,"o":""},"ṍ":{"ha":0,"x_min":0,"x_max":0,"o":""},"ṏ":{"ha":0,"x_min":0,"x_max":0,"o":""},"œ":{"ha":546,"x_min":0,"x_max":0,"o":"m 406 -15 b 674 102 519 -15 612 28 b 948 -15 735 27 829 -15 b 782 -230 948 -126 857 -170 b 512 -112 720 -155 627 -112 "},"p":{"ha":64,"x_min":0,"x_max":0,"o":""},"ṕ":{"ha":0,"x_min":0,"x_max":0,"o":""},"ṗ":{"ha":0,"x_min":0,"x_max":0,"o":""},"ɸ":{"ha":174,"x_min":0,"x_max":0,"o":"m 94 374 l 94 358 b 382 -5 94 142 212 23 l 382 -260 l 559 -260 l 559 -7 b 848 358 737 23 848 147 l 848 374 b 559 739 848 585 737 709 l 559 982 l 382 982 l 382 739 b 94 374 206 709 94 585 z m 273 358 l 273 374 b 382 587 273 487 315 557 l 382 146 b 273 358 315 175 273 243 z m 559 146 l 559 589 b 669 374 628 557 669 486 l 669 358 b 559 146 669 244 626 176 z "},"ƥ":{"ha":64,"x_min":0,"x_max":0,"o":"m 83 736 l 83 -277 l 256 -277 l 256 117 l 263 117 b 353 180 263 160 294 182 b 408 174 374 180 397 176 l 408 296 b 317 305 392 300 359 305 b 94 117 168 305 94 245 "},"þ":{"ha":0,"x_min":0,"x_max":0,"o":""},"q":{"ha":0,"x_min":0,"x_max":0,"o":""},"ʠ":{"ha":153,"x_min":0,"x_max":0,"o":"m 578 736 l 578 616 l 568 616 l 575 616 l 575 222 l 747 222 l 747 1236 b 837 1299 747 1279 779 1299 b 892 1293 859 1299 882 1295 l 892 1415 b 802 1424 876 1419 844 1424 b 578 1236 654 1424 578 1364 "},"ɋ":{"ha":124,"x_min":0,"x_max":0,"o":"m 807 -277 b 898 -270 844 -277 878 -274 l 898 -134 b 852 -138 883 -137 868 -138 b 747 -57 798 -138 747 -121 l 747 736 l 578 736 l 578 616 l 568 616 "},"r":{"ha":-243,"x_min":0,"x_max":0,"o":""},"ŕ":{"ha":0,"x_min":0,"x_max":0,"o":""},"ř":{"ha":0,"x_min":0,"x_max":0,"o":""},"ŗ":{"ha":-243,"x_min":0,"x_max":0,"o":"m -52 -1055 l 73 -1055 l 170 -814 l 5 -814 z "},"ȑ":{"ha":0,"x_min":0,"x_max":0,"o":""},"ṙ":{"ha":0,"x_min":0,"x_max":0,"o":""},"ṛ":{"ha":0,"x_min":0,"x_max":0,"o":""},"ṝ":{"ha":0,"x_min":0,"x_max":0,"o":""},"ɾ":{"ha":-304,"x_min":0,"x_max":0,"o":"m 250 0 l 250 525 b 368 617 250 598 309 617 b 412 613 382 617 397 616 l 412 736 b 320 746 388 742 355 746 b 80 529 201 746 80 697 l 80 0 z "},"ɿ":{"ha":-307,"x_min":0,"x_max":0,"o":"m 380 -275 l 380 529 b 138 746 380 697 259 746 b 47 736 104 746 73 742 l 47 613 b 94 617 61 616 79 617 b 210 525 151 617 210 598 l 210 -275 z "},"ȓ":{"ha":-243,"x_min":0,"x_max":0,"o":""},"ṟ":{"ha":0,"x_min":0,"x_max":0,"o":""},"ɹ":{"ha":-243,"x_min":0,"x_max":0,"o":"m 441 736 l 267 736 l 267 302 l 435 302 z "},"ɺ":{"ha":-271,"x_min":0,"x_max":0,"o":"m 52 164 l 50 -4 b 110 -14 64 -9 90 -14 b 274 83 182 -14 237 22 l 278 0 l 446 0 l 446 1013 l 270 1013 l 270 239 b 121 157 247 186 199 157 b 52 164 99 157 73 160 z "},"ɻ":{"ha":-192,"x_min":0,"x_max":0,"o":"m 505 -288 b 597 -279 538 -288 570 -285 l 597 -161 b 551 -165 582 -164 566 -165 b 439 -64 476 -165 439 -132 l 439 0 l 441 0 l 441 736 l 267 736 l 267 302 l 266 302 l 266 232 b 499 15 266 69 370 15 z "},"s":{"ha":-39,"x_min":0,"x_max":0,"o":""},"ś":{"ha":0,"x_min":0,"x_max":0,"o":""},"ṥ":{"ha":0,"x_min":0,"x_max":0,"o":""},"š":{"ha":0,"x_min":0,"x_max":0,"o":""},"ṧ":{"ha":0,"x_min":0,"x_max":0,"o":""},"ş":{"ha":0,"x_min":0,"x_max":0,"o":"l -39 16 l -168 111 l -249 270 l -261 252 l -341 277 b -75 509 -178 291 -77 382 b -283 709 -77 614 -143 678 l -408 735 b -512 819 -482 753 -513 781 b -385 906 -513 869 -459 906 b -254 815 -311 906 -265 871 "},"ŝ":{"ha":0,"x_min":0,"x_max":0,"o":""},"ș":{"ha":0,"x_min":0,"x_max":0,"o":""},"ṡ":{"ha":0,"x_min":0,"x_max":0,"o":""},"ṣ":{"ha":0,"x_min":0,"x_max":0,"o":""},"ṩ":{"ha":0,"x_min":0,"x_max":0,"o":""},"ß":{"ha":87,"x_min":0,"x_max":0,"o":"m 91 726 l 91 0 l 264 0 l 264 705 b 415 848 264 791 326 848 b 563 708 507 848 563 788 b 433 568 563 633 513 568 l 378 568 l 378 427 l 458 427 b 628 283 563 427 628 369 b 476 145 628 201 568 145 l 374 145 l 374 0 l 496 0 b 802 270 678 0 802 104 b 591 514 803 408 719 503 l 591 524 b 739 734 681 552 739 629 b 411 996 739 903 591 996 b 91 726 218 996 91 894 z "},"ẛ":{"ha":-265,"x_min":0,"x_max":0,"o":"m 134 807 l 134 0 l 308 0 l 308 791 "},"ẜ":{"ha":-291,"x_min":0,"x_max":0,"o":"m 20 453 l 110 484 l 110 0 l 283 0 l 283 545 l 411 590 l 411 736 l 283 693 l 283 791 l 283 616 l 194 585 z "},"ʂ":{"ha":-39,"x_min":0,"x_max":0,"o":"m 50 201 l 50 -34 b 267 -250 50 -170 138 -250 b 345 -240 294 -250 320 -247 l 345 -118 b 298 -122 331 -122 313 -122 b 184 -26 236 -122 184 -99 l 184 20 b 365 -15 233 -3 293 -15 b 680 220 557 -15 678 81 z "},"ſ":{"ha":-302,"x_min":0,"x_max":0,"o":"m 262 0 l 262 779 b 368 886 262 848 298 886 b 430 880 395 886 411 883 l 445 1013 b 342 1027 411 1021 376 1027 b 83 779 179 1027 83 940 l 83 0 z "},"t":{"ha":-267,"x_min":0,"x_max":0,"o":""},"ŧ":{"ha":-267,"x_min":0,"x_max":0,"o":"m 27 381 l 27 487 l -161 487 l -161 647 l -16 647 l -16 741 l -161 741 l -161 869 l -16 869 l -16 1002 l -145 1002 l -145 897 z "},"ť":{"ha":0,"x_min":0,"x_max":0,"o":""},"ʨ":{"ha":0,"x_min":0,"x_max":0,"o":"l 383 0 l 383 -400 b 600 -613 383 -541 466 -613 b 812 -545 683 -612 752 -585 b 1037 -618 869 -592 945 -618 b 1339 -384 1217 -618 1339 -514 b 1140 -217 1338 -285 1269 -217 b 867 -321 1043 -217 956 -254 b 858 -235 861 -296 858 -267 b 1076 -35 1006 -235 1076 -144 b 972 -88 1076 47 1128 -88 b 671 -141 747 -88 671 -73 b NaN NaN 671 -111 614 NaN b NaN NaN NaN NaN NaN NaN b NaN NaN NaN NaN NaN NaN l NaN NaN l NaN NaN m NaN NaN b NaN NaN NaN NaN NaN NaN b NaN NaN NaN NaN NaN NaN b NaN NaN NaN NaN NaN NaN b NaN NaN NaN NaN NaN NaN z "},"ţ":{"ha":-267,"x_min":0,"x_max":0,"o":"m 450 736 l 39 736 l 38 625 l 104 562 l 198 541 l 179 452 l 206 484 b 213 NaN 208 510 210 526 l 213 NaN l 358 NaN z "},"ṱ":{"ha":0,"x_min":0,"x_max":0,"o":""},"ț":{"ha":0,"x_min":0,"x_max":0,"o":""},"ȶ":{"ha":-86,"x_min":0,"x_max":0,"o":"m 182 913 l 182 736 l 77 736 l 77 604 l 182 604 l 182 250 b 27 106 134 212 83 164 l 111 7 b 208 102 146 43 178 75 b 419 -15 245 25 323 -15 b 640 179 574 -15 640 80 b 442 358 640 281 567 358 b 355 346 414 358 385 354 l 355 604 l 500 604 l 500 736 l 355 736 l 355 913 z m 355 178 l 355 210 b 425 231 383 224 406 231 b 492 172 473 231 492 203 b 429 110 492 132 464 110 b 355 178 387 110 355 140 z "},"ẗ":{"ha":0,"x_min":0,"x_max":0,"o":""},"ṫ":{"ha":0,"x_min":0,"x_max":0,"o":""},"ṭ":{"ha":0,"x_min":0,"x_max":0,"o":""},"ʧ":{"ha":119,"x_min":0,"x_max":0,"o":"m 161 888 l 161 713 l 47 713 l 47 585 l 161 585 l 161 216 b 362 -14 160 77 205 -14 b 510 7 418 -14 474 -3 l 510 -28 b 331 -66 444 -28 403 -66 b 289 -65 305 -66 285 -65 b NaN NaN 273 -65 305 NaN b NaN NaN NaN NaN NaN NaN l NaN NaN b NaN NaN NaN NaN NaN NaN b NaN NaN NaN NaN NaN NaN l NaN NaN b NaN NaN NaN NaN NaN NaN b NaN NaN NaN NaN NaN NaN l NaN NaN l NaN NaN l NaN NaN z m NaN NaN l NaN NaN l NaN NaN l NaN NaN b NaN NaN NaN NaN NaN NaN b NaN NaN NaN NaN NaN NaN z "},"ƭ":{"ha":-204,"x_min":0,"x_max":0,"o":"m 477 713 l 350 713 l 350 807 b 460 905 350 883 404 905 b 505 899 476 905 492 902 l 505 1017 b 414 1027 479 1023 450 1027 b 174 807 283 1027 174 972 l 174 713 l 60 713 l 60 585 l 174 585 l 174 202 b 370 -14 174 49 254 -14 b 483 3 416 -14 453 -7 l 483 138 b 426 133 469 136 449 133 b 350 216 380 133 350 151 l 350 585 l 477 585 z "},"ṯ":{"ha":0,"x_min":0,"x_max":0,"o":""},"ƽ":{"ha":48,"x_min":0,"x_max":0,"o":"m 313 307 b 433 351 334 331 369 351 b 562 243 515 351 562 307 b 433 132 562 176 522 132 b 300 218 355 132 302 163 l 126 209 b 433 -11 126 57 283 -11 b 738 233 650 -11 738 94 b 479 475 738 387 642 477 b 334 439 419 473 363 457 l 353 571 l 693 571 l 693 713 l 77 713 l 77 571 l 189 571 l 156 315 z "},"ƅ":{"ha":268,"x_min":0,"x_max":0,"o":"m 286 0 l 652 0 l 652 -412 l 505 -412 l 505 -174 "},"ƨ":{"ha":-39,"x_min":0,"x_max":0,"o":"m 64 526 l 228 526 b 358 617 239 582 285 617 b 486 530 433 617 487 581 b 381 446 487 492 456 464 l 256 420 b 49 220 117 389 50 326 b 363 -15 50 81 171 -15 b 680 210 551 -15 662 69 l 503 210 b 363 117 492 148 444 117 b 225 205 281 117 225 151 b 332 290 225 247 259 274 l 450 316 b 658 521 587 343 658 415 b 361 746 658 656 541 746 b 64 526 184 746 76 661 z "},"ƫ":{"ha":-260,"x_min":0,"x_max":0,"o":"m 450 736 l 39 736 b 241 536 38 608 125 544 l 241 487 b 129 395 241 412 184 395 b 83 397 110 395 95 396 l 83 277 b 161 269 107 270 133 269 b 374 487 288 269 374 347 l 374 694 l 307 680 l 290 680 b 212 765 247 680 212 694 l 212 1147 l 357 1147 z "},"ʈ":{"ha":0,"x_min":0,"x_max":0,"o":"l -264 0 l -264 -686 b -33 -888 -264 -825 -163 -892 b 67 -871 16 -887 50 -878 l 39 -736 b -12 -743 29 -738 10 -743 b -90 -658 -56 -743 -90 -727 l -90 0 l 55 0 "},"ʦ":{"ha":295,"x_min":0,"x_max":0,"o":"m 163 888 l 163 736 l 49 736 l 49 608 l 163 608 l 163 229 b 361 0 163 60 248 0 l 715 0 b 1015 208 897 0 1015 77 b 747 425 1015 327 926 389 b 601 525 655 444 601 461 b 712 618 601 581 642 618 b 834 498 793 618 833 568 l 1010 498 b 715 746 1010 647 897 746 b 625 736 682 746 652 743 l 340 736 l 340 888 z m 841 208 b 719 145 841 161 799 145 l 416 145 b 340 229 366 145 340 167 l 340 608 l 449 608 b 429 518 435 581 429 550 b 693 294 429 392 526 326 b 841 208 804 271 841 244 z "},"ʇ":{"ha":-267,"x_min":0,"x_max":0,"o":"m 50 0 l 195 0 l 195 -176 l 368 -176 l 368 0 l 473 0 l 473 133 l 368 133 l 368 544 b 138 746 369 682 269 746 b 41 739 95 746 61 743 l 41 598 b 117 601 62 600 96 601 b 195 515 160 601 195 586 l 195 133 l 50 133 z "},"u":{"ha":41,"x_min":0,"x_max":0,"o":""},"ú":{"ha":0,"x_min":0,"x_max":0,"o":""},"ʉ":{"ha":100,"x_min":0,"x_max":0,"o":"m 873 479 l 755 479 l 755 736 l 583 736 l 583 479 l 286 479 l 286 736 l 113 736 l 113 479 l -7 479 l -7 370 l 113 370 l 113 267 l -18 267 l -18 434 l 353 434 l 353 552 z m 62 491 l 62 567 l 359 567 z "},"ŭ":{"ha":0,"x_min":0,"x_max":0,"o":""},"ǔ":{"ha":0,"x_min":0,"x_max":0,"o":""},"û":{"ha":0,"x_min":0,"x_max":0,"o":""},"ṷ":{"ha":0,"x_min":0,"x_max":0,"o":""},"ȕ":{"ha":0,"x_min":0,"x_max":0,"o":""},"ü":{"ha":0,"x_min":0,"x_max":0,"o":""},"ǘ":{"ha":0,"x_min":0,"x_max":0,"o":""},"ṳ":{"ha":41,"x_min":0,"x_max":0,"o":"m 324 0 z "},"ǚ":{"ha":0,"x_min":0,"x_max":0,"o":""},"ǜ":{"ha":0,"x_min":0,"x_max":0,"o":"b -431 214 0 41 -395 214 b -448 212 -395 214 -448 249 b -358 302 -448 267 -395 302 b -270 304 -315 302 -270 267 b -359 169 -270 252 -323 215 l -471 169 l -471 485 l -323 485 "},"ǖ":{"ha":0,"x_min":0,"x_max":0,"o":""},"ụ":{"ha":0,"x_min":0,"x_max":0,"o":""},"ù":{"ha":0,"x_min":0,"x_max":0,"o":""},"ủ":{"ha":0,"x_min":0,"x_max":0,"o":""},"ư":{"ha":136,"x_min":0,"x_max":0,"o":""},"ứ":{"ha":136,"x_min":0,"x_max":0,"o":"m -591 60 l -463 60 l -315 278 l -484 278 z "},"ự":{"ha":136,"x_min":0,"x_max":0,"o":"m -498 -1039 z "},"ừ":{"ha":136,"x_min":0,"x_max":0,"o":"m -587 60 l -458 60 l -566 278 l -735 278 z "},"ử":{"ha":0,"x_min":0,"x_max":0,"o":""},"ữ":{"ha":136,"x_min":0,"x_max":0,"o":"m -772 54 "},"ű":{"ha":0,"x_min":0,"x_max":0,"o":""},"ȗ":{"ha":41,"x_min":0,"x_max":0,"o":""},"ū":{"ha":0,"x_min":0,"x_max":0,"o":""},"ṻ":{"ha":0,"x_min":0,"x_max":0,"o":""},"ǹ":{"ha":0,"x_min":0,"x_max":0,"o":""},"ȟ":{"ha":0,"x_min":0,"x_max":0,"o":""},"ȡ":{"ha":0,"x_min":0,"x_max":0,"o":"l 192 0 l 192 358 l 178 358 l 178 362 l 45 362 l -117 220 l -35 114 l 75 209 b 292 102 109 145 177 102 b 517 274 439 102 519 171 b 292 456 519 382 432 456 b 220 449 268 456 244 454 l 220 1360 l 48 1360 l 48 994 l 41 994 m 383 785 l 383 810 b 458 829 409 824 434 831 b 527 765 504 826 527 800 b 459 703 527 728 500 703 b 383 785 418 703 383 730 z "},"ȣ":{"ha":105,"x_min":0,"x_max":0,"o":"m 429 464 l 444 464 b 633 298 562 464 633 403 b 444 129 633 189 562 129 l 429 129 b 239 297 312 129 239 189 b 429 464 239 403 312 464 z m 446 605 l 426 605 b 239 751 316 605 239 640 b 336 892 239 831 275 869 l 336 1027 b 61 754 178 1024 61 929 b 182 532 61 646 107 574 b 61 297 106 484 61 406 b 429 -14 61 92 217 -14 l 444 -14 b 812 298 655 -14 812 92 b 692 532 812 406 767 484 b 812 754 766 574 812 646 b 534 1027 812 930 694 1024 l 534 892 b 635 751 595 869 635 831 b 446 605 635 640 557 605 z "},"ȧ":{"ha":0,"x_min":0,"x_max":0,"o":""},"ȩ":{"ha":0,"x_min":0,"x_max":0,"o":""},"ȫ":{"ha":0,"x_min":0,"x_max":0,"o":""},"ȭ":{"ha":0,"x_min":0,"x_max":0,"o":""},"ȯ":{"ha":0,"x_min":0,"x_max":0,"o":""},"ȱ":{"ha":0,"x_min":0,"x_max":0,"o":""},"ȳ":{"ha":0,"x_min":0,"x_max":0,"o":""},"ȸ":{"ha":482,"x_min":0,"x_max":0,"o":"m 1181 358 l 1181 372 b 897 746 1181 598 1073 746 b 713 667 819 746 758 718 l 713 982 l 534 982 l 534 669 b 517 659 534 718 490 659 b 523 753 440 659 523 721 b NaN NaN 523 809 569 NaN l NaN NaN z m NaN NaN l NaN NaN l NaN NaN l NaN NaN b NaN NaN NaN NaN NaN NaN b NaN NaN NaN NaN NaN NaN l NaN NaN b NaN NaN NaN NaN NaN NaN b NaN NaN NaN NaN NaN NaN z "},"ȹ":{"ha":482,"x_min":0,"x_max":0,"o":"m 534 -274 l 534 -95 l 873 -95 l 873 -81 b 589 293 873 145 765 293 b 400 208 507 293 445 262 l 392 283 l 247 283 l 236 205 b 222 199 236 261 190 199 b 216 287 139 199 216 258 b NaN NaN 216 337 261 NaN z m NaN NaN l NaN NaN l NaN NaN l NaN NaN b NaN NaN NaN NaN NaN NaN b NaN NaN NaN NaN NaN NaN l NaN NaN b NaN NaN NaN NaN NaN NaN b NaN NaN NaN NaN NaN NaN z "},"ȼ":{"ha":1,"x_min":0,"x_max":0,"o":"m 674 982 l 566 982 l 477 741 b 404 746 454 744 430 746 b 52 365 189 746 52 590 b 221 31 52 214 113 94 l 109 -277 l 217 -277 l 316 -5 b 404 -15 343 -12 373 -15 b 720 251 589 -15 707 95 l 555 251 b 406 126 540 171 483 126 b 365 132 391 126 378 127 l 521 559 b 555 483 538 537 549 511 l 720 483 b 575 708 713 584 659 663 z m 227 369 b 406 608 227 517 298 608 b 430 606 414 608 422 607 l 278 189 b 227 369 245 230 227 292 z "},"ȿ":{"ha":0,"x_min":0,"x_max":0,"o":"b -126 50 -37 6 -85 22 b NaN NaN -159 160 -351 NaN l NaN NaN b NaN NaN NaN NaN NaN NaN b NaN NaN NaN NaN NaN NaN l NaN NaN b NaN NaN NaN NaN NaN NaN b NaN NaN NaN NaN NaN NaN b NaN NaN NaN NaN NaN NaN b NaN NaN NaN NaN NaN NaN "},"ɀ":{"ha":35,"x_min":0,"x_max":0,"o":"m 313 142 l 313 123 l 513 123 b 909 -153 709 123 711 -153 b 1084 -75 986 -153 1044 -111 l 1024 39 b 924 -5 1001 20 964 -5 b 549 266 808 -5 788 266 z "},"ɂ":{"ha":-18,"x_min":0,"x_max":0,"o":"m 81 457 l 259 457 b 377 605 259 551 298 605 b 490 460 458 605 490 547 b 361 313 490 368 452 313 l 290 313 l 290 0 l 468 0 l 468 218 b 667 467 605 241 667 335 b 377 746 667 646 556 746 b 81 457 202 746 81 637 z "},"ɇ":{"ha":21,"x_min":0,"x_max":0,"o":"m 674 982 l 566 982 l 477 739 b 400 746 452 743 427 746 b 247 736 245 746 307 628 l 134 429 l 243 429 l 342 700 b 435 690 371 694 402 690 b 755 902 606 690 724 774 l 586 902 b 437 826 564 859 513 826 b 389 831 420 826 404 827 l 460 1025 l 762 1025 l 762 1080 b 600 1409 762 1249 696 1356 z m 248 1025 l 351 1025 l 298 882 b 248 1025 267 916 250 964 z m 250 1143 b 429 1317 255 1238 324 1317 b 457 1316 438 1317 448 1316 l 395 1143 z m 503 1143 l 548 1270 b 597 1143 578 1238 596 1194 z "},"ɉ":{"ha":0,"x_min":0,"x_max":0,"o":""},"ɍ":{"ha":-243,"x_min":0,"x_max":0,"o":"m 83 0 l 256 0 l 256 301 l 279 301 l 279 -24 z "},"ɏ":{"ha":3,"x_min":0,"x_max":0,"o":"m 739 507 l 663 507 l 745 736 l 562 736 l 491 507 l 282 507 l 212 736 l 28 736 l 111 507 l 28 507 l 28 408 l 146 408 b -126 624 297 408 -126 547 b NaN 735 -126 693 -8 735 l NaN 1233 l NaN 1233 z m NaN 1233 l NaN 1233 l NaN 1005 l NaN 1005 z "},"ʙ":{"ha":0,"x_min":0,"x_max":0,"o":""},"ʜ":{"ha":0,"x_min":0,"x_max":0,"o":""},"ʫ":{"ha":260,"x_min":0,"x_max":0,"o":"m 955 142 l 576 142 l 947 628 l 947 736 l 256 736 l 256 982 l 83 982 l 83 0 l 256 0 l 256 594 l 728 594 l 357 111 l 357 0 l 955 0 z "},"ʬ":{"ha":-78,"x_min":0,"x_max":0,"o":"m 180 962 l 54 962 l 163 575 l 266 575 l 346 804 l 423 575 l 526 575 l 635 962 l 510 962 l 465 747 l 393 962 l 296 962 l 225 745 z m 180 385 l 54 385 l 163 0 l 266 0 l 346 231 l 423 0 l 526 0 l 635 385 l 510 385 l 465 172 l 393 385 l 296 385 l 225 172 z "},"ẝ":{"ha":-273,"x_min":0,"x_max":0,"o":"m 302 0 l 302 696 l 449 696 l 449 811 l 307 811 b 416 884 318 859 357 884 b 476 878 438 884 460 882 l 480 1015 b 384 1027 453 1021 418 1027 b 125 811 235 1027 138 951 l 15 811 l 15 696 l 123 696 l 123 0 z "},"ẟ":{"ha":48,"x_min":0,"x_max":0,"o":"m 168 830 b 298 651 168 751 216 690 l 298 647 b 85 349 180 617 85 495 l 85 336 b 426 -14 85 133 216 -14 b 765 343 635 -14 765 137 l 765 357 b 458 734 765 537 669 662 b 340 829 363 766 340 800 b 450 890 340 865 377 890 b 617 857 513 890 578 872 l 617 996 b 439 1027 555 1017 503 1027 b 168 830 271 1027 168 949 z m 263 351 l 263 362 b 426 582 263 484 317 582 b 589 362 522 563 589 461 l 589 351 b 426 127 589 224 534 127 b 263 351 317 127 263 224 z "},"ỻ":{"ha":112,"x_min":0,"x_max":0,"o":"m 821 899 l 659 899 l 659 982 l 486 982 l 486 899 l 368 899 l 368 982 l 194 982 l 194 899 l 58 899 l 58 783 l 194 783 l 194 0 l 368 0 l 368 783 l 486 783 l 486 0 l 659 0 l 659 783 l 821 783 z "},"ỽ":{"ha":48,"x_min":0,"x_max":0,"o":"m 487 642 l 416 510 b 560 292 498 476 560 408 b 411 130 560 189 505 130 b 256 347 320 130 256 208 l 256 403 b 583 903 256 667 403 823 l 525 1036 b 79 407 247 935 79 708 l 79 368 b 415 -14 79 153 203 -14 b 738 304 616 -14 738 106 b 487 642 738 465 629 591 z "},"ỿ":{"ha":104,"x_min":0,"x_max":0,"o":"m 350 736 l 156 736 l 345 217 b 297 221 329 220 313 221 b 39 -34 155 221 39 106 b 294 -288 39 -174 155 -288 b 556 -75 425 -288 503 -224 l 840 736 l 647 736 l 495 251 l 487 285 z m 298 -136 b 198 -34 241 -136 197 -100 b 298 71 197 35 241 71 b 396 -34 353 71 396 35 b 298 -136 396 -100 353 -136 z "},"ↄ":{"ha":0,"x_min":0,"x_max":0,"o":""},"ų":{"ha":41,"x_min":0,"x_max":0,"o":"m 553 309 l 444 309 b 366 137 382 263 359 197 l 366 873 l 194 873 z "},"ʊ":{"ha":106,"x_min":0,"x_max":0,"o":"m 437 127 b 251 290 285 127 251 220 b 330 593 251 400 330 483 b 81 746 330 666 289 746 l 81 610 b 149 556 111 610 149 600 b 75 247 149 468 75 401 b 437 -14 75 133 146 -14 b 800 247 728 -14 800 133 b 726 556 800 401 726 468 b 792 610 726 600 762 610 l 792 746 b 545 593 586 746 545 666 b 621 290 545 483 621 400 b 437 127 621 220 590 127 z "},"ů":{"ha":0,"x_min":0,"x_max":0,"o":""},"ũ":{"ha":0,"x_min":0,"x_max":0,"o":""},"ṹ":{"ha":0,"x_min":0,"x_max":0,"o":""},"ṵ":{"ha":0,"x_min":0,"x_max":0,"o":""},"v":{"ha":-1,"x_min":0,"x_max":0,"o":""},"ṿ":{"ha":0,"x_min":0,"x_max":0,"o":""},"ʋ":{"ha":-18,"x_min":0,"x_max":0,"o":"m 373 -14 b 678 285 553 -14 678 73 l 678 530 b 511 746 678 651 644 746 b 355 718 461 746 408 734 l 374 589 b 431 597 396 594 412 597 b 500 509 477 597 500 568 l 500 285 b 373 130 500 168 452 130 b 248 285 296 130 247 168 l 248 736 l 71 736 l 71 285 b 373 -14 71 73 195 -14 z "},"ṽ":{"ha":0,"x_min":0,"x_max":0,"o":""},"ʌ":{"ha":-1,"x_min":0,"x_max":0,"o":"m 26 0 l 209 0 l 380 548 l 388 548 l 557 0 l 742 0 l 479 736 l 289 736 z "},"w":{"ha":352,"x_min":0,"x_max":0,"o":""},"ẃ":{"ha":0,"x_min":0,"x_max":0,"o":""},"ŵ":{"ha":0,"x_min":0,"x_max":0,"o":""},"ẅ":{"ha":0,"x_min":0,"x_max":0,"o":""},"ẇ":{"ha":0,"x_min":0,"x_max":0,"o":""},"ẉ":{"ha":0,"x_min":0,"x_max":0,"o":""},"ẁ":{"ha":0,"x_min":0,"x_max":0,"o":""},"ẘ":{"ha":0,"x_min":0,"x_max":0,"o":""},"ʍ":{"ha":352,"x_min":0,"x_max":0,"o":"m 883 736 l 703 736 l 564 237 l 555 237 l 416 736 l 236 736 l 27 0 l 203 0 l 332 515 l 339 515 l 472 0 l 647 0 l 779 518 l 785 518 l 916 0 l 1092 0 z "},"ƿ":{"ha":111,"x_min":0,"x_max":0,"o":"m 115 -274 l 293 -274 l 293 -111 b 762 350 589 -28 762 90 l 762 384 b 477 746 762 600 662 746 b 288 662 395 746 332 715 l 281 736 l 115 736 z m 293 28 l 293 525 b 429 604 317 574 361 604 b 585 384 541 604 585 503 l 585 350 b 293 28 585 172 465 72 z "},"x":{"ha":-20,"x_min":0,"x_max":0,"o":""},"ẍ":{"ha":0,"x_min":0,"x_max":0,"o":""},"ẋ":{"ha":-20,"x_min":0,"x_max":0,"o":"m 0 377 z "},"y":{"ha":-1,"x_min":0,"x_max":0,"o":""},"ý":{"ha":0,"x_min":0,"x_max":0,"o":""},"ŷ":{"ha":0,"x_min":0,"x_max":0,"o":""},"ÿ":{"ha":0,"x_min":0,"x_max":0,"o":""},"ẏ":{"ha":0,"x_min":0,"x_max":0,"o":""},"ỵ":{"ha":0,"x_min":0,"x_max":0,"o":""},"ỳ":{"ha":0,"x_min":0,"x_max":0,"o":""},"ƴ":{"ha":75,"x_min":0,"x_max":0,"o":"m 191 -277 b 449 -90 326 -277 408 -208 l 707 652 b 793 764 732 726 753 761 b 861 749 815 765 838 758 l 897 878 b 768 911 861 898 817 911 b 548 697 648 911 585 815 l 387 180 l 370 140 b 212 72 339 56 288 50 l 172 -62 b 285 -81 195 -72 237 -81 z "},"ỷ":{"ha":0,"x_min":0,"x_max":0,"o":""},"ẙ":{"ha":0,"x_min":0,"x_max":0,"o":""},"ỹ":{"ha":0,"x_min":0,"x_max":0,"o":""},"ʎ":{"ha":-1,"x_min":0,"x_max":0,"o":"m 579 1013 b 321 826 441 1013 363 944 l 26 0 l 209 0 l 380 556 l 388 556 l 559 0 l 742 0 l 473 751 l 488 791 b 595 873 518 869 553 873 b 669 871 618 873 647 872 l 669 1009 b 579 1013 647 1012 613 1013 z "},"z":{"ha":-22,"x_min":0,"x_max":0,"o":""},"ź":{"ha":0,"x_min":0,"x_max":0,"o":""},"ƶ":{"ha":-22,"x_min":0,"x_max":0,"o":"m 73 0 l 202 167 l 370 167 l 370 277 l 288 277 l 435 469 l 308 308 l 123 308 l 123 198 l 220 198 l 56 -8 z "},"ž":{"ha":0,"x_min":0,"x_max":0,"o":""},"ẑ":{"ha":0,"x_min":0,"x_max":0,"o":""},"ʑ":{"ha":135,"x_min":0,"x_max":0,"o":"m 77 0 l 286 0 l 228 -83 l 342 -153 l 454 0 l 605 0 b 882 228 802 0 882 129 b 701 399 882 330 798 399 b 387 142 592 399 509 312 z m 864 174 b 884 232 772 174 852 232 b NaN NaN 919 232 960 NaN b NaN NaN NaN NaN NaN NaN b NaN NaN NaN NaN NaN NaN z "},"ż":{"ha":0,"x_min":0,"x_max":0,"o":""},"ẓ":{"ha":0,"x_min":0,"x_max":0,"o":""},"ȥ":{"ha":-26,"x_min":0,"x_max":0,"o":"m 552 -126 l 552 -170 l 697 -170 l 697 -91 b 454 142 697 50 610 142 l 454 -22 l 836 -22 b 933 -148 917 -22 933 -87 z "},"ẕ":{"ha":0,"x_min":0,"x_max":0,"o":""},"ʐ":{"ha":63,"x_min":0,"x_max":0,"o":"m 544 0 l 544 -71 b 760 -288 544 -209 631 -288 b 837 -279 785 -288 811 -286 l 837 -156 b 789 -160 821 -160 806 -160 b 678 -71 734 -160 678 -142 l 678 142 l 302 142 l 302 149 l 665 618 l 285 141 l 285 31 z "},"ａ":{"ha":0,"x_min":0,"x_max":0,"o":""},"ｂ":{"ha":535,"x_min":0,"x_max":0,"o":"m 323 0 "},"ｃ":{"ha":535,"x_min":0,"x_max":0,"o":""},"ｄ":{"ha":535,"x_min":0,"x_max":0,"o":""},"ｅ":{"ha":535,"x_min":0,"x_max":0,"o":"m 667 -15 b 1025 -393 667 -245 803 -393 "},"ｆ":{"ha":535,"x_min":0,"x_max":0,"o":"m 859 736 l 707 736 l 707 791 l 707 720 l 597 720 l 597 587 l 707 587 l 707 -16 l 880 -16 l 880 587 l 1032 587 z "},"ｇ":{"ha":0,"x_min":0,"x_max":0,"o":""},"ｈ":{"ha":535,"x_min":0,"x_max":0,"o":"m 500 431 l 673 431 l 673 901 l 1043 901 l 1043 731 l 61 731 l 61 905 z "},"ｉ":{"ha":535,"x_min":0,"x_max":0,"o":"m 566 0 "},"ｊ":{"ha":0,"x_min":0,"x_max":0,"o":""},"ｋ":{"ha":535,"x_min":0,"x_max":0,"o":"m 357 0 z "},"ｌ":{"ha":0,"x_min":0,"x_max":0,"o":""},"ｍ":{"ha":535,"x_min":0,"x_max":0,"o":"m 134 0 z "},"ｎ":{"ha":535,"x_min":0,"x_max":0,"o":"m 503 431 l 677 431 z "},"ｏ":{"ha":535,"x_min":0,"x_max":0,"o":""},"ｐ":{"ha":535,"x_min":0,"x_max":0,"o":"m 319 -277 l 492 -277 l 492 117 l 499 117 l 330 117 "},"ｑ":{"ha":0,"x_min":0,"x_max":0,"o":""},"ｒ":{"ha":535,"x_min":0,"x_max":0,"o":"m 473 0 "},"ɼ":{"ha":-227,"x_min":0,"x_max":0,"o":"m 83 -277 l 256 -277 l 256 434 b 416 593 256 528 326 593 b 486 578 445 593 468 586 l 540 720 b 441 747 513 736 480 747 l 355 747 l 355 677 z "},"ɽ":{"ha":-227,"x_min":0,"x_max":0,"o":"m 315 -277 b 406 -270 354 -277 384 -274 l 406 221 b 566 380 406 315 475 380 b 635 365 594 380 617 373 l 689 507 b 590 534 662 524 629 534 z "},"ｓ":{"ha":535,"x_min":0,"x_max":0,"o":""},"ｔ":{"ha":0,"x_min":0,"x_max":0,"o":""},"ｕ":{"ha":535,"x_min":0,"x_max":0,"o":"m 802 309 l 1538 309 l 1538 137 z "},"ｖ":{"ha":0,"x_min":0,"x_max":0,"o":""},"ｗ":{"ha":535,"x_min":0,"x_max":0,"o":"m 328 0 l 509 0 l 647 499 l 656 499 l 795 0 l 975 0 l 1184 736 l 1008 736 l 879 221 l 872 221 l 739 736 l 564 736 l 433 218 l 426 218 l 296 736 l 119 736 z "},"ｘ":{"ha":0,"x_min":0,"x_max":0,"o":""},"ｙ":{"ha":0,"x_min":0,"x_max":0,"o":""},"ｚ":{"ha":535,"x_min":0,"x_max":0,"o":"m 353 0 z "},"ₔ":{"ha":-143,"x_min":0,"x_max":0,"o":"m 296 259 b 83 164 190 259 118 212 l 160 84 b 288 145 193 121 236 145 b 425 38 358 145 411 104 l 71 38 l 71 -27 b 311 -288 71 -182 156 -288 b 563 -15 454 -288 563 -179 l 563 5 b 296 259 563 146 460 259 z m 208 -73 l 208 -64 l 425 -64 b 312 -172 412 -132 376 -172 b 208 -73 244 -172 208 -133 z "},"ₐ":{"ha":0,"x_min":0,"x_max":0,"o":""},"ₑ":{"ha":0,"x_min":0,"x_max":0,"o":""},"ᵢ":{"ha":0,"x_min":0,"x_max":0,"o":""},"ⱼ":{"ha":0,"x_min":0,"x_max":0,"o":""},"ₒ":{"ha":0,"x_min":0,"x_max":0,"o":""},"ᵣ":{"ha":0,"x_min":0,"x_max":0,"o":""},"ᵤ":{"ha":0,"x_min":0,"x_max":0,"o":""},"ᵥ":{"ha":0,"x_min":0,"x_max":0,"o":""},"ₓ":{"ha":0,"x_min":0,"x_max":0,"o":""},"ǃ":{"ha":-364,"x_min":0,"x_max":0,"o":"m 293 982 l 109 982 l 125 289 l 278 289 "},"ʔ":{"ha":-20,"x_min":0,"x_max":0,"o":"m 358 369 z "},"ǀ":{"ha":-393,"x_min":0,"x_max":0,"o":"m 244 971 l 130 971 l 130 0 l 244 0 z "},"ǁ":{"ha":-267,"x_min":0,"x_max":0,"o":"m 217 971 l 103 971 l 103 0 l 217 0 z m 395 971 l 281 971 l 281 0 l 395 0 z "},"ǂ":{"ha":-268,"x_min":0,"x_max":0,"o":"m 307 971 l 193 971 l 193 704 l 19 704 l 19 594 l 193 594 l 193 385 l 22 385 l 22 275 l 193 275 l 193 0 l 307 0 l 307 275 l 480 275 l 480 385 l 307 385 l 307 594 l 477 594 l 477 704 l 307 704 z "},"ƻ":{"ha":0,"x_min":0,"x_max":0,"o":"l 70 81 b 205 220 126 134 170 180 l 367 220 l 367 330 l 284 330 b 317 464 307 376 317 418 b -20 749 317 629 181 749 b -355 442 -216 749 -356 628 l -186 442 b -21 605 -188 541 -123 605 b 147 456 75 605 147 547 b 100 330 147 410 132 372 l -92 330 l -92 220 l 1 220 l -3 216 l -351 -119 "},"ꟿ":{"ha":858,"x_min":0,"x_max":0,"o":"m 349 962 l 164 962 l 69 0 l 254 0 l 321 678 l 675 0 l 677 1 l 677 0 l 859 0 l 925 678 l 1279 0 l 1280 1 l 1280 0 l 1462 0 l 1556 962 l 1374 962 l 1309 283 l 952 962 l 770 962 l 704 281 z "},"ʶ":{"ha":-144,"x_min":0,"x_max":0,"o":"m 305 430 b 529 609 444 430 529 511 b 438 762 529 671 496 728 l 557 959 l 401 959 l 301 793 l 202 793 l 202 959 l 65 959 l 65 430 z m 202 547 l 202 680 l 307 680 b 392 613 365 680 392 650 b 300 547 392 575 362 547 z "},"ʵ":{"ha":-272,"x_min":0,"x_max":0,"o":"m 52 568 l 52 429 b 92 423 58 425 73 423 b 208 491 139 423 179 448 l 208 392 b 346 221 209 273 247 221 b 445 231 380 221 420 225 l 445 354 b 401 347 433 350 415 347 b 346 406 365 347 346 369 l 346 959 l 208 959 l 208 605 b 118 557 190 574 160 557 b 52 568 94 557 72 560 z "},"ʱ":{"ha":-142,"x_min":0,"x_max":0,"o":"m 224 1008 b 278 1065 224 1046 243 1065 b 323 1059 294 1065 311 1063 l 323 1183 b 224 1192 300 1187 254 1192 b 87 1020 125 1192 87 1141 l 87 430 l 224 430 l 224 796 b 315 852 240 829 269 852 b 401 727 372 852 400 815 l 401 430 l 540 430 l 540 765 b 363 967 538 907 472 967 b 224 892 303 967 256 939 z "},"ʴ":{"ha":-397,"x_min":0,"x_max":0,"o":"m 38 568 l 38 429 b 79 423 45 425 61 423 b 205 509 132 423 176 455 l 225 430 l 332 430 l 332 959 l 195 959 l 195 608 b 104 557 178 575 148 557 b 38 568 77 557 56 562 z "},"ʰ":{"ha":0,"x_min":0,"x_max":0,"o":""},"ⁱ":{"ha":0,"x_min":0,"x_max":0,"o":""},"ʲ":{"ha":0,"x_min":0,"x_max":0,"o":""},"ˡ":{"ha":-539,"x_min":0,"x_max":0,"o":"m 179 1145 l 49 1145 l 49 491 l 179 491 z "},"ⁿ":{"ha":0,"x_min":0,"x_max":0,"o":""},"ʳ":{"ha":0,"x_min":0,"x_max":0,"o":""},"ˢ":{"ha":-277,"x_min":0,"x_max":0,"o":""},"ʷ":{"ha":0,"x_min":0,"x_max":0,"o":""},"ˣ":{"ha":0,"x_min":0,"x_max":0,"o":""},"ʸ":{"ha":0,"x_min":0,"x_max":0,"o":""},"ª":{"ha":0,"x_min":0,"x_max":0,"o":""},"º":{"ha":0,"x_min":0,"x_max":0,"o":""},"А":{"ha":0,"x_min":0,"x_max":0,"o":""},"Б":{"ha":0,"x_min":0,"x_max":0,"o":""},"В":{"ha":109,"x_min":0,"x_max":0,"o":""},"Г":{"ha":0,"x_min":0,"x_max":0,"o":""},"Ѓ":{"ha":0,"x_min":0,"x_max":0,"o":""},"Ґ":{"ha":5,"x_min":0,"x_max":0,"o":"m 91 0 l 267 0 l 267 834 l 724 834 l 724 1214 l 555 1214 l 555 982 l 91 982 z "},"Ӷ":{"ha":3,"x_min":0,"x_max":0,"o":"m 723 982 l 91 982 l 91 0 l 264 0 l 264 -237 l 434 -237 l 434 129 l 267 129 l 267 834 l 723 834 z "},"Ғ":{"ha":3,"x_min":0,"x_max":0,"o":"m 723 982 l 91 982 l 91 1248 l 547 1248 z "},"Ҕ":{"ha":117,"x_min":0,"x_max":0,"o":"m 723 982 l 91 982 l 91 0 l 267 0 l 267 407 l 426 407 l 426 248 l 711 248 l 711 704 z "},"Д":{"ha":267,"x_min":0,"x_max":0,"o":"m 27 -237 l 197 -237 l 197 0 l 823 0 l 823 -236 l 993 -236 l 993 145 l 883 145 l 883 982 l 256 982 l 231 567 b 92 145 216 301 159 197 l 27 145 z m 298 145 b 400 567 351 231 388 366 l 416 834 l 713 834 l 713 145 z "},"Е":{"ha":41,"x_min":0,"x_max":0,"o":""},"Ѐ":{"ha":0,"x_min":0,"x_max":0,"o":""},"Ё":{"ha":0,"x_min":0,"x_max":0,"o":""},"Ж":{"ha":622,"x_min":0,"x_max":0,"o":""},"З":{"ha":111,"x_min":0,"x_max":0,"o":"m 438 -14 b 804 273 651 -14 806 107 l 627 273 b 990 -7 631 107 780 -7 z "},"И":{"ha":222,"x_min":0,"x_max":0,"o":""},"Й":{"ha":0,"x_min":0,"x_max":0,"o":""},"Ѝ":{"ha":0,"x_min":0,"x_max":0,"o":""},"Ҋ":{"ha":0,"x_min":0,"x_max":0,"o":"l 222 0 l 222 91 l 349 91 l 349 -68 l -115 -739 l -123 -739 l -123 -68 "},"К":{"ha":147,"x_min":0,"x_max":0,"o":"m 680 0 l 897 0 "},"Ќ":{"ha":0,"x_min":0,"x_max":0,"o":""},"Л":{"ha":0,"x_min":0,"x_max":0,"o":"l 199 0 l 199 174 l 1181 174 l 1181 -469 l 1164 -918 b 1003 -1302 1154 -1198 1116 -1297 l 976 -1305 "},"М":{"ha":444,"x_min":0,"x_max":0,"o":""},"Н":{"ha":226,"x_min":0,"x_max":0,"o":""},"О":{"ha":267,"x_min":0,"x_max":0,"o":""},"П":{"ha":0,"x_min":0,"x_max":0,"o":""},"Р":{"ha":0,"x_min":0,"x_max":0,"o":""},"С":{"ha":224,"x_min":0,"x_max":0,"o":""},"Т":{"ha":111,"x_min":0,"x_max":0,"o":""},"У":{"ha":104,"x_min":0,"x_max":0,"o":""},"Ў":{"ha":0,"x_min":0,"x_max":0,"o":""},"Ф":{"ha":353,"x_min":0,"x_max":0,"o":"m 659 872 l 646 872 l 646 1000 l 475 1000 l 475 872 l 461 872 b 66 475 232 872 66 715 b 461 85 66 240 231 85 l 475 85 l 475 -41 l 646 -41 l 646 85 l 659 85 b 1054 476 888 85 1054 241 b 659 872 1054 715 888 872 z m 461 723 l 475 723 l 475 236 l 461 236 b 233 475 323 236 233 321 b 461 723 233 635 321 723 z m 646 236 l 646 723 l 661 723 b 886 476 799 723 886 633 b 661 236 886 323 799 236 z "},"Х":{"ha":151,"x_min":0,"x_max":0,"o":""},"Ч":{"ha":208,"x_min":0,"x_max":0,"o":""},"Ц":{"ha":272,"x_min":0,"x_max":0,"o":"m 998 148 l 875 148 l 875 982 l 703 982 l 703 146 l 260 146 l 260 982 l 91 982 l 91 0 l 814 0 l 814 -232 l 986 -232 z "},"Ш":{"ha":542,"x_min":0,"x_max":0,"o":"m 91 982 l 91 0 l 1217 0 l 1217 982 z "},"Щ":{"ha":618,"x_min":0,"x_max":0,"o":"m 1344 141 l 1217 141 l 1217 982 l 1043 982 l 1043 0 l 2120 0 l 2120 -232 l 2284 -232 z "},"Џ":{"ha":199,"x_min":0,"x_max":0,"o":"m 91 0 l 396 0 l 396 -237 l 570 -237 l 570 0 l 875 0 l 875 982 l 700 982 l 700 146 l 264 146 l 264 982 l 91 982 z "},"Ь":{"ha":0,"x_min":0,"x_max":0,"o":""},"Ы":{"ha":0,"x_min":0,"x_max":0,"o":""},"Ъ":{"ha":325,"x_min":0,"x_max":0,"o":"m 47 840 l 311 840 l 311 0 l 690 0 l 690 -439 "},"Љ":{"ha":718,"x_min":0,"x_max":0,"o":"m 43 0 l 90 0 b 397 477 308 0 381 125 l 414 836 l 704 836 l 704 0 l 1072 0 b 1432 305 1298 0 1432 125 b 1072 602 1432 486 1298 602 l 880 602 l 880 982 l 247 982 l 231 533 b 69 149 220 216 167 152 l 43 148 z m 880 145 l 880 458 l 1072 458 "},"Њ":{"ha":737,"x_min":0,"x_max":0,"o":"m 91 0 l 267 0 l 267 458 l 723 458 l 723 0 l 1103 0 l 1103 -176 l 723 -176 l 723 -632 l 1103 -632 l 1103 -808 "},"Ѕ":{"ha":97,"x_min":0,"x_max":0,"o":""},"Є":{"ha":146,"x_min":0,"x_max":0,"o":"m 465 -14 b 853 317 690 -14 842 111 l 677 317 b 465 133 669 202 579 133 b 240 408 336 133 246 243 l 574 408 l 574 556 l 240 556 b 471 846 248 730 338 846 b 677 659 582 846 670 776 l 853 659 b 471 996 840 868 689 996 b 66 514 228 996 66 803 l 66 445 b 465 -14 66 170 225 -14 z "},"Э":{"ha":151,"x_min":0,"x_max":0,"o":""},"І":{"ha":-408,"x_min":0,"x_max":0,"o":""},"Ї":{"ha":0,"x_min":0,"x_max":0,"o":""},"Ј":{"ha":0,"x_min":0,"x_max":0,"o":""},"Ћ":{"ha":420,"x_min":0,"x_max":0,"o":"m 800 982 l 47 982 l 47 837 l 304 837 l 304 0 l 477 0 l 477 464 b 700 487 543 479 633 487 b 894 320 829 487 894 445 l 894 0 l 1067 0 l 1067 229 l 1390 229 z "},"Ю":{"ha":626,"x_min":0,"x_max":0,"o":"m 267 982 l 91 982 l 91 0 l 267 0 l 267 406 l 431 406 b 876 -14 463 141 643 -14 b 1001 -84 1194 -14 1001 174 b 534 -512 1001 -326 817 -491 l 372 -512 z m 1254 -569 z "},"Я":{"ha":139,"x_min":0,"x_max":0,"o":"m 815 0 l 815 982 l 448 982 b 102 669 221 982 102 856 b 278 389 102 536 162 436 l 65 0 l 263 0 l 456 359 l 639 359 l 639 0 z m 282 669 b 475 834 282 773 340 834 l 639 834 l 639 507 l 473 507 b 282 669 340 507 282 564 z "},"Ђ":{"ha":351,"x_min":0,"x_max":0,"o":"m 830 982 l 47 982 l 47 834 l 351 834 l 351 0 l 528 0 l 528 435 b 690 454 583 448 640 454 b 884 286 811 454 884 389 b 693 129 884 189 817 129 l 694 -11 b 1063 290 956 -14 1063 117 b 697 590 1063 488 913 590 b 528 568 641 590 583 581 l 528 834 l 830 834 z "},"Ѡ":{"ha":504,"x_min":0,"x_max":0,"o":"m 91 296 b 407 -14 91 92 224 -14 b 636 87 502 -14 583 20 b 859 -14 686 20 765 -14 b 1179 296 1040 -14 1179 92 l 1179 982 l 1002 982 l 1002 296 b 859 133 1002 189 944 133 b 723 296 774 133 723 189 l 723 982 l 548 982 l 548 296 b 407 133 548 189 495 133 b 267 296 324 133 267 189 l 267 982 l 91 982 z "},"Ѣ":{"ha":0,"x_min":0,"x_max":0,"o":""},"Ѥ":{"ha":555,"x_min":0,"x_max":0,"o":"m 910 564 l 591 564 b 853 837 613 748 718 837 b 1062 658 967 837 1062 776 b 616 236 1062 423 886 262 l 467 236 l 467 654 l 290 654 l 290 -328 l 467 -328 l 467 94 l 616 94 b 1053 -342 640 -180 817 -342 b 1462 -23 1256 -342 1416 -222 l 1289 -7 b 1053 -182 1259 -123 1165 -182 b 791 94 916 -182 811 -94 l 1109 94 z "},"Ѧ":{"ha":170,"x_min":0,"x_max":0,"o":"m 715 0 l 907 0 l 563 982 l 377 982 z m 113 1115 l -233 133 l -123 468 l -12 133 z "},"Ѩ":{"ha":554,"x_min":0,"x_max":0,"o":"m 248 982 l 72 982 l 72 0 l 248 0 l 248 279 l 475 279 l 376 0 l 467 -278 l 659 -278 l 315 704 l 129 704 l -72 133 l -345 133 z m 111 133 l 221 468 l 332 133 z "},"Ѫ":{"ha":424,"x_min":0,"x_max":0,"o":"m 77 228 l 77 0 l 262 0 l 262 228 b 433 382 262 351 324 382 l 511 382 l 511 0 l 694 0 l 694 382 l 760 382 b 929 228 878 382 929 343 l 929 0 l 1114 0 l 1114 228 b 774 532 1114 451 976 528 l 1044 982 l 167 982 l 435 532 l 433 532 b 77 228 197 532 77 441 z m 450 831 l 760 831 l 605 557 z "},"Ѭ":{"ha":859,"x_min":0,"x_max":0,"o":"m 96 0 l 273 0 l 273 382 l 507 382 b 477 228 488 340 477 290 l 477 0 l 662 0 l 662 228 b 833 382 662 351 724 382 l 911 382 l 911 0 l 1095 0 l 1095 382 l 1160 382 b 1329 228 1278 382 1329 343 l 1329 0 l 1514 0 l 1514 228 b 1175 532 1514 451 1376 528 l 1444 982 l 567 982 l 836 532 l 273 532 l 273 982 l 96 982 z m 850 831 l 1160 831 l 1005 557 z "},"Ѯ":{"ha":-21,"x_min":0,"x_max":0,"o":"m 316 982 l 132 982 l 132 837 l 316 837 b 479 708 427 837 479 791 b 315 571 479 629 429 571 l 216 571 l 216 425 l 311 425 b 505 281 435 425 505 378 b 340 132 505 189 444 132 l 302 132 b 66 -57 157 132 66 69 b 274 -296 66 -184 156 -264 l 330 -187 b 231 -79 282 -167 231 -136 b 311 -14 231 -41 255 -14 l 349 -14 b 682 267 548 -14 682 94 b 496 500 682 386 616 464 b 656 732 599 542 656 624 b 316 982 656 894 529 982 z m 309 1261 l 167 1261 l 167 1255 l 365 1070 l 469 1070 l 666 1255 l 666 1261 l 525 1261 l 418 1161 z "},"Ѱ":{"ha":0,"x_min":0,"x_max":0,"o":""},"Ѳ":{"ha":0,"x_min":0,"x_max":0,"o":""},"Ѵ":{"ha":220,"x_min":0,"x_max":0,"o":""},"Ѷ":{"ha":0,"x_min":0,"x_max":0,"o":""},"Ѹ":{"ha":0,"x_min":0,"x_max":0,"o":""},"Җ":{"ha":-232,"x_min":0,"x_max":0,"o":"l 622 0 l 622 109 l 477 109 "},"Ҙ":{"ha":111,"x_min":0,"x_max":0,"o":"m 75 266 l 79 112 l 208 3 l 395 -11 l 377 -92 l 403 94 b 686 NaN 420 224 534 222 b 471 NaN 688 NaN 609 NaN l 471 NaN b 650 NaN 578 NaN 651 NaN b 323 NaN 651 NaN 522 NaN b -23 NaN 130 NaN -19 NaN l 146 NaN b 321 NaN 149 NaN 229 NaN b 479 NaN 418 NaN 480 NaN b 302 NaN 480 NaN 407 NaN l 214 NaN l 214 NaN l 302 NaN b 506 NaN 430 NaN 506 NaN b 320 NaN 506 NaN 429 NaN b 134 NaN 218 NaN 140 NaN z "},"Қ":{"ha":196,"x_min":0,"x_max":0,"o":"m 680 0 l 750 0 l 750 -233 l 920 -233 l 920 133 l 791 133 "},"Ҝ":{"ha":157,"x_min":0,"x_max":0,"o":"m 332 734 l 332 566 l 266 566 l 266 982 l 91 982 l 91 0 l 266 0 l 266 399 l 332 399 l 332 248 l 445 248 l 445 399 l 487 399 l 697 0 l 906 0 l 627 509 l 883 982 l 675 982 l 475 566 l 445 566 l 445 734 z "},"Ҡ":{"ha":318,"x_min":0,"x_max":0,"o":"m 418 982 l 11 982 l 11 840 l 240 840 l 240 0 l 418 0 l 418 430 l 487 430 l 829 0 l 1046 0 l 642 0 l 642 506 z "},"Ң":{"ha":336,"x_min":0,"x_max":0,"o":"m 91 0 l 267 0 l 267 418 l 724 418 l 724 0 l 894 0 l 894 -161 l 1747 -161 l 1747 -339 z "},"Ҥ":{"ha":570,"x_min":0,"x_max":0,"o":"m 1289 982 l 724 982 l 724 566 l 267 566 l 267 982 l 91 982 l 91 0 l 267 0 l 267 418 l 724 418 l 724 0 l 902 0 l 902 834 l 1289 834 z "},"Ҧ":{"ha":733,"x_min":0,"x_max":0,"o":"m 860 982 l 79 982 l 79 0 l 254 0 l 254 836 l 684 836 l 684 0 l 860 0 l 860 406 l 991 406 l 991 274 z "},"Ҩ":{"ha":357,"x_min":0,"x_max":0,"o":"m 1040 -12 l 1040 132 b 916 144 996 132 954 136 b 1034 464 991 227 1034 339 l 1034 609 b 732 996 1034 834 911 996 b 445 633 560 996 445 838 l 445 479 b 589 144 445 344 496 228 b 540 140 572 141 556 140 b 266 438 376 140 266 267 l 266 594 b 425 842 266 735 332 842 l 425 997 b 84 593 221 997 84 821 l 84 438 b 540 -14 84 183 267 -14 b 768 34 624 -14 701 3 b 1040 -12 846 4 939 -12 z m 612 479 l 612 635 b 735 842 612 760 665 842 b 859 627 806 842 859 760 l 859 464 b 749 212 859 360 818 270 b 612 479 660 274 612 368 z "},"Ҫ":{"ha":0,"x_min":0,"x_max":0,"o":""},"Ҭ":{"ha":111,"x_min":0,"x_max":0,"o":"m 47 834 l 351 834 l 351 0 l 521 0 l 521 -163 l 1226 -163 l 1226 140 l 1374 140 l 1374 -643 z "},"Ү":{"ha":170,"x_min":0,"x_max":0,"o":""},"Ұ":{"ha":170,"x_min":0,"x_max":0,"o":"m 23 982 l 340 438 l 239 438 l 239 328 l 381 328 l 381 0 l 557 0 l 557 328 l 697 328 l 697 438 l 598 438 "},"Ҳ":{"ha":-228,"x_min":0,"x_max":0,"o":"l 151 0 l 151 88 l -86 88 l -86 258 l 280 258 l 280 125 "},"Ҵ":{"ha":465,"x_min":0,"x_max":0,"o":"m 692 982 l 47 982 l 47 840 l 283 840 l 283 0 l 1006 0 l 1006 -232 l 1179 -232 l 1191 148 l 1067 148 l 1067 982 l 895 982 l 895 146 l 453 146 l 453 840 l 692 840 z "},"Ҷ":{"ha":0,"x_min":0,"x_max":0,"o":""},"Ҹ":{"ha":208,"x_min":0,"x_max":0,"o":"m 541 692 l 430 692 l 430 499 b 293 662 339 511 293 557 l 293 982 l 119 982 l 119 662 b 430 351 119 460 238 366 l 430 198 l 541 198 l 541 350 b 709 374 600 353 661 361 l 709 0 l 883 0 l 883 982 l 709 982 l 709 519 b 541 496 661 507 597 500 z "},"Һ":{"ha":208,"x_min":0,"x_max":0,"o":"m 856 0 l 856 374 l 682 374 l 682 -608 l 856 -608 l 856 -144 b 1078 -121 921 -129 1011 -121 b 1272 -288 1207 -121 1272 -163 l 1272 -608 z "},"Ҽ":{"ha":0,"x_min":0,"x_max":0,"o":"b -412 522 0 356 -258 522 b -35 654 -138 522 -35 633 b NaN NaN -35 687 23 NaN l NaN NaN b NaN NaN NaN NaN NaN NaN b NaN NaN NaN NaN NaN NaN l NaN NaN l NaN NaN l NaN NaN b NaN NaN NaN NaN NaN NaN b NaN NaN NaN NaN NaN NaN b NaN NaN NaN NaN NaN NaN m NaN NaN l NaN NaN b NaN NaN NaN NaN NaN NaN b NaN NaN NaN NaN NaN NaN l NaN NaN z "},"Ҿ":{"ha":0,"x_min":0,"x_max":0,"o":"b -364 476 0 356 -220 476 b -196 NaN -159 476 -196 NaN l -196 NaN l -26 NaN l -26 NaN b 191 NaN 59 NaN 142 NaN l 159 NaN b -78 NaN 83 NaN -9 NaN b -349 NaN -252 NaN -349 NaN l -349 NaN l 246 NaN l 246 NaN b -131 NaN 246 NaN 105 NaN b -522 NaN -366 NaN -521 NaN b -610 NaN -578 NaN -610 NaN m -349 NaN l -349 NaN b -130 NaN -349 NaN -264 NaN b 74 NaN -3 NaN 74 NaN l 74 NaN z "},"Ӏ":{"ha":-408,"x_min":0,"x_max":0,"o":""},"Ӂ":{"ha":0,"x_min":0,"x_max":0,"o":""},"Ӄ":{"ha":151,"x_min":0,"x_max":0,"o":"m 264 411 l 452 411 b 684 156 597 411 685 315 b 498 -81 682 9 613 -81 l 499 -221 b 857 163 722 -221 857 -76 b 525 538 856 376 733 513 l 859 982 l 647 982 l 349 570 l 264 570 l 264 982 l 91 982 l 91 0 l 264 0 z "},"Ӆ":{"ha":0,"x_min":0,"x_max":0,"o":"l 199 0 l 199 122 l 56 122 l 56 1005 l -587 1005 l -603 556 b -764 172 -614 277 -652 178 l -791 170 "},"Ӈ":{"ha":226,"x_min":0,"x_max":0,"o":"m 724 418 l 724 -49 b 609 -142 724 -123 669 -142 b 559 -138 593 -142 571 -140 l 559 -281 b 631 -286 570 -283 602 -286 b 901 -58 848 -286 901 -163 l 901 0 l 902 0 l 902 982 l 724 982 l 724 0 l 901 0 l 901 418 z "},"Ӊ":{"ha":321,"x_min":0,"x_max":0,"o":"m 91 0 l 267 0 l 267 418 l 724 418 l 724 0 l 853 0 l 853 -178 z "},"Ӌ":{"ha":0,"x_min":0,"x_max":0,"o":""},"Ӎ":{"ha":0,"x_min":0,"x_max":0,"o":"l 501 0 l 501 91 l 622 91 l 622 -126 l 330 -840 l 318 -840 l 26 -126 "},"Ӑ":{"ha":0,"x_min":0,"x_max":0,"o":""},"Ӓ":{"ha":0,"x_min":0,"x_max":0,"o":""},"Ӕ":{"ha":0,"x_min":0,"x_max":0,"o":""},"Ӗ":{"ha":0,"x_min":0,"x_max":0,"o":""},"Ә":{"ha":0,"x_min":0,"x_max":0,"o":""},"Ӛ":{"ha":0,"x_min":0,"x_max":0,"o":""},"Ӝ":{"ha":0,"x_min":0,"x_max":0,"o":""},"Ӟ":{"ha":111,"x_min":0,"x_max":0,"o":"m 438 -14 b 804 273 651 -14 806 107 l 627 273 b 990 -7 631 107 780 -7 "},"Ӡ":{"ha":0,"x_min":0,"x_max":0,"o":""},"Ӣ":{"ha":0,"x_min":0,"x_max":0,"o":""},"Ӥ":{"ha":0,"x_min":0,"x_max":0,"o":""},"Ӧ":{"ha":0,"x_min":0,"x_max":0,"o":""},"Ө":{"ha":0,"x_min":0,"x_max":0,"o":""},"Ӫ":{"ha":0,"x_min":0,"x_max":0,"o":""},"Ӭ":{"ha":0,"x_min":0,"x_max":0,"o":""},"Ӯ":{"ha":0,"x_min":0,"x_max":0,"o":""},"Ӱ":{"ha":0,"x_min":0,"x_max":0,"o":""},"Ӳ":{"ha":0,"x_min":0,"x_max":0,"o":""},"Ӵ":{"ha":0,"x_min":0,"x_max":0,"o":""},"Ӹ":{"ha":437,"x_min":0,"x_max":0,"o":"m 464 602 l 273 602 l 273 982 l 96 982 l 96 0 l 464 0 b 825 305 690 0 825 125 b 464 602 825 486 690 602 "},"Ӻ":{"ha":3,"x_min":0,"x_max":0,"o":"m 723 982 l 91 982 l 91 1156 l 58 1156 l 58 989 l 363 989 l 363 1255 l 819 1255 z "},"Ӽ":{"ha":0,"x_min":0,"x_max":0,"o":"l 151 0 l 151 102 l 119 102 l 119 -61 "},"Ӿ":{"ha":151,"x_min":0,"x_max":0,"o":"m 239 982 l 35 982 l 307 548 l 229 548 l 229 438 l 309 438 l 31 438 l 31 0 l 236 0 l -38 438 l 37 438 l 37 548 l -37 548 "},"Ҁ":{"ha":105,"x_min":0,"x_max":0,"o":"m 559 133 l 442 133 b 248 385 320 133 248 235 l 248 598 b 445 848 248 751 309 848 b 624 665 553 848 624 787 l 808 665 b 446 996 808 873 661 996 b 65 597 206 996 65 837 l 65 385 b 376 -8 65 173 186 20 l 376 -241 l 559 -241 z "},"Ҍ":{"ha":0,"x_min":0,"x_max":0,"o":""},"Ҏ":{"ha":101,"x_min":0,"x_max":0,"o":"m 510 640 l 422 585 l 488 483 b 435 477 472 479 454 477 l 270 477 l 270 834 l 435 834 b 628 656 568 834 628 762 b 583 529 628 605 613 560 z m 94 0 l 270 0 l 270 332 l 460 332 b 576 346 503 332 541 337 l 650 233 l 738 289 l 674 388 b 808 656 762 444 808 541 l 439 656 z "},"а":{"ha":0,"x_min":0,"x_max":0,"o":""},"б":{"ha":36,"x_min":0,"x_max":0,"o":"m 732 898 l 671 1009 b 435 982 625 975 548 985 b 52 464 182 979 52 810 l 52 397 b 403 -15 52 127 189 -15 b 751 355 616 -15 751 129 b 441 704 751 576 623 704 b 197 566 328 704 243 655 l 189 566 b 441 836 206 749 275 833 b 732 898 586 840 667 842 z m 403 123 b 227 351 293 123 227 212 b 401 567 228 490 294 567 b 576 351 510 567 576 490 b 403 123 576 212 510 123 z "},"в":{"ha":0,"x_min":0,"x_max":0,"o":""},"г":{"ha":-154,"x_min":0,"x_max":0,"o":""},"ѓ":{"ha":0,"x_min":0,"x_max":0,"o":""},"ґ":{"ha":-138,"x_min":0,"x_max":0,"o":"m 586 921 l 425 921 l 425 736 l 83 736 l 83 0 l 252 0 l 252 595 l 586 595 z "},"ӷ":{"ha":-154,"x_min":0,"x_max":0,"o":"m 570 736 l 83 736 l 83 0 l 250 0 l 250 -240 l 419 -240 l 419 126 l 252 126 l 252 595 l 570 595 z "},"ғ":{"ha":0,"x_min":0,"x_max":0,"o":"l -154 0 l -154 170 l 178 170 l 178 315 l 288 315 l 288 170 l 441 170 l 441 487 "},"ҕ":{"ha":-16,"x_min":0,"x_max":0,"o":"m 570 736 l 83 736 l 83 0 l 252 0 l 252 296 l 311 296 b 513 117 429 296 513 231 b 362 -69 511 28 446 -37 l 427 -189 b 680 117 583 -141 680 -19 b 311 437 678 321 526 437 l 252 437 l 252 595 l 570 595 z "},"д":{"ha":104,"x_min":0,"x_max":0,"o":"m 18 -214 l 187 -214 l 187 0 l 670 0 l 670 -214 l 837 -214 l 837 142 l 723 142 l 723 736 l 191 736 l 171 477 b 76 142 157 312 138 190 l 18 142 z m 254 142 b 330 477 300 210 317 323 l 342 597 l 557 597 l 557 142 z "},"е":{"ha":0,"x_min":0,"x_max":0,"o":""},"ѐ":{"ha":0,"x_min":0,"x_max":0,"o":"l 21 0 l 21 -77 l 870 -77 l 870 -247 "},"ё":{"ha":0,"x_min":0,"x_max":0,"o":""},"ж":{"ha":383,"x_min":0,"x_max":0,"o":""},"з":{"ha":-83,"x_min":0,"x_max":0,"o":""},"и":{"ha":40,"x_min":0,"x_max":0,"o":""},"й":{"ha":0,"x_min":0,"x_max":0,"o":""},"ҋ":{"ha":0,"x_min":0,"x_max":0,"o":"l 0 142 l 118 142 l -27 142 l -27 779 l -203 779 "},"ѝ":{"ha":0,"x_min":0,"x_max":0,"o":""},"к":{"ha":-10,"x_min":0,"x_max":0,"o":""},"ќ":{"ha":0,"x_min":0,"x_max":0,"o":""},"л":{"ha":0,"x_min":0,"x_max":0,"o":"l 31 0 l 31 167 l 767 167 l 767 -370 l 755 -696 b 644 -964 747 -903 720 -964 l 618 -964 "},"м":{"ha":0,"x_min":0,"x_max":0,"o":"l 0 250 l 164 250 l 164 987 l -45 987 "},"н":{"ha":0,"x_min":0,"x_max":0,"o":""},"о":{"ha":41,"x_min":0,"x_max":0,"o":""},"п":{"ha":0,"x_min":0,"x_max":0,"o":"l 21 0 l 21 736 l -602 736 "},"р":{"ha":64,"x_min":0,"x_max":0,"o":""},"с":{"ha":1,"x_min":0,"x_max":0,"o":""},"т":{"ha":-37,"x_min":0,"x_max":0,"o":"m 43 595 l 282 595 l 282 0 l 448 0 l 448 595 l 688 595 l 688 736 l 43 736 z "},"у":{"ha":-1,"x_min":0,"x_max":0,"o":""},"ў":{"ha":0,"x_min":0,"x_max":0,"o":""},"ф":{"ha":239,"x_min":0,"x_max":0,"o":"m 416 -251 l 590 -251 l 590 -15 b 955 365 806 -15 955 140 b 590 746 955 593 806 746 l 590 982 l 416 982 l 416 746 b 52 365 201 746 52 593 b 416 -15 52 140 201 -15 z m 416 125 b 228 365 293 125 228 233 b 416 608 228 496 293 608 z m 590 125 l 590 608 b 779 365 715 608 779 496 b 590 125 779 233 715 125 z "},"х":{"ha":-20,"x_min":0,"x_max":0,"o":""},"ч":{"ha":12,"x_min":0,"x_max":0,"o":""},"ц":{"ha":0,"x_min":0,"x_max":0,"o":"l 92 0 l 92 566 l -21 566 "},"ш":{"ha":361,"x_min":0,"x_max":0,"o":"m 83 736 l 83 0 l 1048 0 l 1048 736 l 882 736 l 882 142 l 648 142 l 648 736 l 483 736 l 483 142 l 250 142 l 250 736 z "},"щ":{"ha":460,"x_min":0,"x_max":0,"o":"m 1188 141 l 1048 141 l 1048 736 l 882 736 l 882 142 l 648 142 l 648 736 l 483 736 l 483 142 l 250 142 l 250 736 l 83 736 l 83 0 l 1010 0 l 1010 -212 l 1173 -212 z "},"џ":{"ha":0,"x_min":0,"x_max":0,"o":"l 21 0 l 21 228 l -216 228 l -216 395 l 21 395 l 21 623 "},"ь":{"ha":0,"x_min":0,"x_max":0,"o":""},"ы":{"ha":0,"x_min":0,"x_max":0,"o":""},"ъ":{"ha":150,"x_min":0,"x_max":0,"o":"m 400 736 l 38 736 l 38 594 l 233 594 l 233 0 l 65 0 z m 65 -355 "},"љ":{"ha":494,"x_min":0,"x_max":0,"o":"m 58 0 l 111 0 b 353 357 271 0 340 111 l 366 595 l 576 595 l 576 736 l 208 736 l 194 411 b 83 142 186 203 159 142 l 58 142 "},"њ":{"ha":452,"x_min":0,"x_max":0,"o":"m 83 0 b 566 -28 250 0 566 288 b NaN 118 566 305 654 118 l NaN 118 l NaN 370 l NaN 370 l NaN 92 l NaN 92 l NaN 370 l NaN 370 z m NaN -225 l NaN -23 l NaN -23 b NaN -121 NaN -23 NaN -56 b NaN -225 NaN -182 NaN -225 z "},"ѕ":{"ha":-39,"x_min":0,"x_max":0,"o":""},"є":{"ha":-16,"x_min":0,"x_max":0,"o":"m 426 420 l 201 420 b 377 605 214 532 275 605 b 529 484 465 605 511 553 l 693 505 b 377 746 666 651 544 746 b 30 369 164 746 30 590 b 377 -15 30 144 161 -15 b 692 221 544 -15 663 83 l 528 241 b 377 129 509 175 458 129 b 202 305 277 129 218 197 l 426 305 z "},"э":{"ha":-37,"x_min":0,"x_max":0,"o":""},"і":{"ha":-428,"x_min":0,"x_max":0,"o":""},"ї":{"ha":0,"x_min":0,"x_max":0,"o":""},"ј":{"ha":0,"x_min":0,"x_max":0,"o":""},"ћ":{"ha":0,"x_min":0,"x_max":0,"o":""},"ю":{"ha":333,"x_min":0,"x_max":0,"o":"m 212 736 l 39 736 l 39 0 l 212 0 l 212 293 l 351 293 b 693 -15 377 108 505 -15 b 1042 366 906 -15 1040 141 b 693 746 1040 593 906 746 b 350 434 503 746 375 623 l 212 434 z m 693 129 b 513 366 567 129 513 232 b 693 605 513 500 567 605 b 875 366 821 605 875 500 b 693 129 875 233 821 129 z "},"я":{"ha":-6,"x_min":0,"x_max":0,"o":"m 518 0 l 680 0 l 680 736 l 361 736 b 71 503 180 736 69 644 b 208 304 70 410 119 339 l 42 0 l 213 0 l 365 278 l 518 278 z m 236 499 b 361 597 236 555 281 597 l 518 597 l 518 404 l 355 404 b 236 499 278 404 236 444 z "},"ђ":{"ha":48,"x_min":0,"x_max":0,"o":"m 560 0 l 560 -57 b 456 -138 560 -121 511 -138 b 411 -134 439 -138 425 -137 l 411 -270 b 500 -277 433 -274 463 -277 b 734 -57 631 -277 734 -218 l 734 469 b 480 746 734 647 633 746 b 262 612 366 746 296 694 l 262 602 l 449 602 l 449 747 l 559 747 l 559 602 l 632 602 l 632 433 l 559 433 l 559 289 l 449 289 l 449 433 l -350 433 l -350 -9 z "},"ѡ":{"ha":371,"x_min":0,"x_max":0,"o":"m 83 278 b 362 -14 83 85 201 -14 b 572 83 450 -14 525 19 b 773 -14 616 19 686 -14 b 1058 278 939 -14 1058 87 l 1058 736 l 891 736 l 891 278 b 773 127 891 179 842 127 b 655 278 700 127 655 179 l 655 736 l 490 736 l 490 278 b 362 127 490 179 439 127 b 250 278 297 127 250 182 l 250 736 l 83 736 z "},"ѣ":{"ha":50,"x_min":0,"x_max":0,"o":"m 495 834 l 301 834 l 301 1081 l 134 1081 l 134 834 l 20 834 l 20 718 l 134 718 l 134 0 l 469 0 b 764 248 656 0 764 103 b 469 496 764 396 656 496 l 301 496 l 301 718 l 495 718 "},"ѥ":{"ha":340,"x_min":0,"x_max":0,"o":"m 770 416 l 528 416 b 705 605 541 531 601 605 b 857 484 792 605 840 553 l 1020 505 b 704 746 994 651 871 746 b 361 416 507 746 378 612 l 244 416 l 244 736 l 71 736 l 71 0 l 244 0 l 244 298 l 363 298 b 705 -15 387 111 513 -15 b 1019 221 872 -15 991 83 l 854 241 b 705 129 837 174 785 129 b 530 298 607 129 548 195 l 770 298 z "},"ѧ":{"ha":45,"x_min":0,"x_max":0,"o":"m 388 454 l 407 534 l 425 454 l 483 300 l 331 300 z m 594 0 l 776 0 l 492 727 l 317 727 l 38 0 l 218 0 l 286 180 l 339 180 l 339 0 l 469 0 l 469 180 l 528 180 z "},"ѩ":{"ha":337,"x_min":0,"x_max":0,"o":"m 906 0 l 1085 0 l 803 736 l 627 736 l 461 300 l 250 300 l 250 736 l 77 736 l 77 0 l 250 0 l 250 182 l 416 182 l 347 0 l 525 0 l 591 180 l 651 180 l 651 0 l 770 0 l 770 180 l 840 180 z m 635 300 l 694 464 l 715 549 l 735 464 l 796 300 z "},"ѫ":{"ha":231,"x_min":0,"x_max":0,"o":"m 252 0 l 252 117 b 392 267 252 236 300 267 l 415 267 l 415 0 l 591 0 l 591 267 l 608 267 b 747 117 704 267 746 232 l 747 0 l 925 0 l 925 117 b 667 400 924 304 828 385 l 865 736 l 142 736 l 343 401 b 75 117 173 389 73 308 l 75 0 z m 404 616 l 608 616 l 506 412 z "},"ѭ":{"ha":607,"x_min":0,"x_max":0,"o":"m 248 736 l 76 736 l 76 0 l 248 0 l 248 271 l 460 271 b 429 117 439 231 429 180 l 429 0 l 606 0 l 606 117 b 746 267 606 236 654 267 l 769 267 l 769 0 l 945 0 l 945 267 l 962 267 b 1101 117 1058 267 1101 232 l 1101 0 l 1279 0 l 1279 117 b 1020 400 1279 304 1182 386 l 1219 736 l 496 736 l 696 403 l 248 403 z m 758 616 l 962 616 l 860 412 z "},"ѯ":{"ha":-90,"x_min":0,"x_max":0,"o":"m 252 736 l 69 736 l 69 605 l 252 605 b 395 525 349 605 395 581 b 259 433 396 468 346 433 l 152 433 l 152 316 l 255 316 b 422 218 365 316 420 283 b 273 118 422 152 369 118 l 237 118 b 14 -57 92 118 14 56 b 209 -288 15 -157 90 -245 l 263 -187 b 171 -79 202 -159 171 -122 b 260 -14 171 -37 202 -14 l 293 -14 b 600 212 484 -14 600 81 b 453 380 600 296 549 351 b 574 544 531 413 574 471 b 252 736 574 669 456 736 z m 222 1016 l 80 1016 l 80 1009 l 278 826 l 382 826 l 581 1009 l 581 1016 l 439 1016 l 331 917 z "},"ѱ":{"ha":0,"x_min":0,"x_max":0,"o":""},"ѳ":{"ha":0,"x_min":0,"x_max":0,"o":""},"ѵ":{"ha":50,"x_min":0,"x_max":0,"o":""},"ѷ":{"ha":0,"x_min":0,"x_max":0,"o":""},"ѹ":{"ha":0,"x_min":0,"x_max":0,"o":""},"җ":{"ha":-179,"x_min":0,"x_max":0,"o":"l 383 0 l 383 111 l 146 111 l 146 281 l 512 281 l 512 111 l 512 111 "},"ҙ":{"ha":-83,"x_min":0,"x_max":0,"o":"m 213 202 l 42 202 l 47 79 l 148 2 l 292 -12 l 274 -92 l 298 NaN b 553 NaN 448 NaN 553 NaN b 399 NaN 553 NaN 486 NaN z "},"қ":{"ha":92,"x_min":0,"x_max":0,"o":"m 83 0 l 256 0 l 256 278 l 334 278 l 544 0 l 650 0 l 650 -237 l 819 -237 l 819 129 l 655 129 l 476 129 l 476 363 l 774 363 l 774 190 z "},"ҝ":{"ha":54,"x_min":0,"x_max":0,"o":"m 83 0 l 256 0 l 256 278 l 317 278 l 317 155 l 420 155 l 420 278 l 467 278 l 618 0 l 818 0 l 600 376 l 815 736 l 617 736 l 449 438 l 420 438 l 420 563 l 317 563 l 317 438 l 256 438 l 256 736 l 83 736 z "},"ҡ":{"ha":216,"x_min":0,"x_max":0,"o":"m 484 736 l 43 736 l 43 594 l 311 594 l 311 0 z "},"ң":{"ha":0,"x_min":0,"x_max":0,"o":""},"ҥ":{"ha":215,"x_min":0,"x_max":0,"o":"m 956 736 l 537 736 l 537 439 l 250 439 l 250 736 l 415 736 l 415 1332 l 669 1332 z "},"ҧ":{"ha":0,"x_min":0,"x_max":0,"o":"l 469 0 l 469 298 l 565 298 b 782 121 687 298 782 236 b 626 -65 781 33 725 -26 l 694 -184 b 946 121 874 -134 946 18 b 565 441 946 330 789 441 l 469 441 l 469 736 l -154 736 "},"ҩ":{"ha":174,"x_min":0,"x_max":0,"o":"m 860 -15 l 860 92 b 749 103 820 92 783 96 b 838 335 806 164 838 245 l 838 444 b 605 746 838 614 747 746 b 380 469 469 746 380 627 l 380 358 b 468 125 380 269 410 187 l 452 123 b 258 357 339 123 258 229 l 258 433 b 357 601 258 528 301 595 l 357 745 b 84 433 194 745 84 610 l 84 357 b 452 -14 84 146 232 -14 b 629 22 517 -14 578 -1 b 860 -15 694 -2 771 -15 z m 510 351 l 510 461 b 591 601 510 544 543 601 b 673 453 639 601 673 541 l 673 343 b 595 174 673 275 644 214 b 510 351 540 219 510 281 z "},"ҫ":{"ha":0,"x_min":0,"x_max":0,"o":""},"ҭ":{"ha":-37,"x_min":0,"x_max":0,"o":"m 43 595 l 282 595 l 282 0 l 445 0 l 445 469 l 685 469 l 685 610 l 41 610 z "},"ү":{"ha":0,"x_min":0,"x_max":0,"o":""},"ұ":{"ha":-47,"x_min":0,"x_max":0,"o":"m 24 736 l 241 117 l 132 117 l 132 7 l 278 7 l 278 -277 l 444 -277 l 444 7 l 590 7 l 590 117 l 481 117 l 696 736 l 518 736 l 363 209 l 203 736 z "},"ҳ":{"ha":0,"x_min":0,"x_max":0,"o":"l -20 0 l -20 224 l 717 224 l 717 296 l 578 296 l 431 536 l 653 903 l 470 903 l 318 631 "},"ҵ":{"ha":207,"x_min":0,"x_max":0,"o":"m 532 736 l 54 736 l 54 594 l 209 594 l 209 0 l 757 0 l 757 -212 l 921 -212 l 933 141 l 831 141 l 831 736 l 666 736 l 666 141 l 376 141 l 376 594 l 532 594 z "},"ҷ":{"ha":0,"x_min":0,"x_max":0,"o":"l 0 136 l 163 136 "},"ҹ":{"ha":12,"x_min":0,"x_max":0,"o":"m 445 540 l 334 540 l 334 368 b 248 492 276 382 248 420 l 248 738 l 83 738 l 83 492 b 334 222 83 327 178 241 l 334 126 l 445 126 l 445 221 b 532 235 475 222 504 227 l 532 0 l 697 0 l 697 736 l 532 736 l 532 376 b 445 362 503 369 475 363 z "},"һ":{"ha":48,"x_min":0,"x_max":0,"o":""},"ҽ":{"ha":0,"x_min":0,"x_max":0,"o":"b 161 16 234 0 28 16 b NaN NaN 31 16 239 NaN b NaN NaN NaN NaN NaN NaN b NaN NaN NaN NaN NaN NaN "},"ҿ":{"ha":0,"x_min":0,"x_max":0,"o":"l 234 15 l 50 121 l -73 293 l -97 275 l -178 298 b 111 509 -25 307 81 389 b -205 174 111 322 -19 201 b -323 315 -290 178 -322 229 "},"ӏ":{"ha":-408,"x_min":0,"x_max":0,"o":""},"ӂ":{"ha":0,"x_min":0,"x_max":0,"o":""},"ӄ":{"ha":45,"x_min":0,"x_max":0,"o":"m 83 0 l 256 0 l 256 278 l 376 278 b 593 107 506 278 593 209 b 441 -71 591 27 530 -43 l 506 -193 b 757 107 656 -148 757 -27 b 498 399 757 254 657 362 l 750 736 l 543 736 l 319 438 l 256 438 l 256 736 l 83 736 z "},"ӆ":{"ha":0,"x_min":0,"x_max":0,"o":"l 136 0 l 136 118 l -9 118 l -9 755 l -546 755 l -558 430 b -669 161 -566 222 -593 161 l -695 161 "},"ӈ":{"ha":16,"x_min":0,"x_max":0,"o":"m 703 -41 l 703 736 l 537 736 l 537 439 l 250 439 l 250 736 l 248 736 l 248 696 b 156 590 248 627 208 590 b 88 598 137 590 109 591 l 79 458 b 171 449 111 450 137 449 b 415 696 321 449 415 533 z "},"ӊ":{"ha":0,"x_min":0,"x_max":0,"o":"l 121 0 l 121 117 l 73 -140 l 204 -140 l 315 214 "},"ӌ":{"ha":0,"x_min":0,"x_max":0,"o":"l 0 12 l -109 12 l -109 -158 l -475 -158 l -475 12 l -235 12 l -235 177 "},"ӎ":{"ha":0,"x_min":0,"x_max":0,"o":"l 0 356 l 117 356 l -30 356 l -30 994 l -239 994 "},"ӑ":{"ha":0,"x_min":0,"x_max":0,"o":""},"ӓ":{"ha":0,"x_min":0,"x_max":0,"o":""},"ӕ":{"ha":0,"x_min":0,"x_max":0,"o":""},"ӗ":{"ha":0,"x_min":0,"x_max":0,"o":""},"ә":{"ha":0,"x_min":0,"x_max":0,"o":""},"ӛ":{"ha":0,"x_min":0,"x_max":0,"o":""},"ӝ":{"ha":0,"x_min":0,"x_max":0,"o":""},"ӟ":{"ha":0,"x_min":0,"x_max":0,"o":""},"ӡ":{"ha":0,"x_min":0,"x_max":0,"o":""},"ӣ":{"ha":0,"x_min":0,"x_max":0,"o":""},"ӥ":{"ha":0,"x_min":0,"x_max":0,"o":""},"ӧ":{"ha":0,"x_min":0,"x_max":0,"o":""},"ө":{"ha":0,"x_min":0,"x_max":0,"o":""},"ӫ":{"ha":0,"x_min":0,"x_max":0,"o":""},"ӭ":{"ha":0,"x_min":0,"x_max":0,"o":""},"ӯ":{"ha":0,"x_min":0,"x_max":0,"o":""},"ӱ":{"ha":0,"x_min":0,"x_max":0,"o":""},"ӳ":{"ha":0,"x_min":0,"x_max":0,"o":""},"ӵ":{"ha":0,"x_min":0,"x_max":0,"o":""},"ӹ":{"ha":0,"x_min":0,"x_max":0,"o":""},"ӻ":{"ha":0,"x_min":0,"x_max":0,"o":"l -154 0 l -154 1 l -186 1 l -186 0 l -7 0 l -7 145 l 102 145 l 102 0 l 256 0 l 256 317 "},"ӽ":{"ha":-39,"x_min":0,"x_max":0,"o":"m 35 0 l 220 0 l 366 244 l 465 87 b 514 -33 498 34 513 1 b 422 -146 521 -109 473 -146 b 362 -137 406 -146 376 -142 l 353 -278 b 441 -288 384 -286 410 -288 b 681 -72 595 -288 674 -187 b 595 167 686 23 636 102 l 473 369 l 693 736 l 510 736 l 366 486 l 224 736 l 41 736 l 256 369 z "},"ӿ":{"ha":-20,"x_min":0,"x_max":0,"o":"m 224 736 l 41 736 l 227 426 l 144 426 l 144 316 l 228 316 l 35 316 l 35 0 l 217 0 l 23 316 l 107 316 l 107 426 l 26 426 l 213 736 l 30 736 l -122 464 z "},"ҁ":{"ha":-20,"x_min":0,"x_max":0,"o":"m 503 127 l 392 127 b 239 346 274 127 239 239 l 239 372 b 388 605 239 494 275 605 b 519 453 471 605 519 544 l 686 453 b 392 746 688 636 567 746 b 62 372 178 746 62 585 l 62 346 b 326 -8 62 170 153 22 l 326 -243 l 503 -243 z "},"ҍ":{"ha":50,"x_min":0,"x_max":0,"o":"m 495 962 l 301 962 l 301 1081 l 134 1081 l 134 962 l 20 962 l 20 844 l 134 844 l 134 0 l 469 0 b 764 248 656 0 764 103 b 469 496 764 396 656 496 l 301 496 l 301 844 l 495 844 "},"ҏ":{"ha":47,"x_min":0,"x_max":0,"o":"m 487 294 l 415 232 l 494 141 b 430 129 474 133 453 129 b 255 369 317 129 255 225 b 216 203 255 303 241 245 z m -264 -277 l -91 -277 l -91 117 l -84 117 b 41 144 -39 117 3 126 l 102 72 l 175 134 l 119 201 b 220 498 181 265 220 366 b -84 876 220 743 85 876 b -296 746 -214 876 -269 799 l -307 746 l -307 867 l -476 867 z "},"ԯ":{"ha":0,"x_min":0,"x_max":0,"o":"l 158 0 l 158 165 l -105 165 l -105 335 l 261 335 l 261 167 l 895 167 l 895 -370 l 882 -696 b 771 -964 874 -903 847 -964 l 745 -964 "},"Α":{"ha":0,"x_min":0,"x_max":0,"o":""},"Β":{"ha":109,"x_min":0,"x_max":0,"o":""},"Γ":{"ha":0,"x_min":0,"x_max":0,"o":""},"Δ":{"ha":196,"x_min":0,"x_max":0,"o":"m 27 0 l 937 0 l 590 982 l 373 982 z m 264 149 l 477 781 l 486 781 l 699 149 z "},"∆":{"ha":196,"x_min":0,"x_max":0,"o":"m 27 0 l 937 0 l 590 982 l 373 982 z m 264 149 l 477 781 l 486 781 l 699 149 z "},"Ε":{"ha":41,"x_min":0,"x_max":0,"o":""},"Ζ":{"ha":101,"x_min":0,"x_max":0,"o":""},"Η":{"ha":226,"x_min":0,"x_max":0,"o":""},"Θ":{"ha":267,"x_min":0,"x_max":0,"o":"m 699 553 l 334 553 l 334 429 l 699 429 z "},"Ι":{"ha":-408,"x_min":0,"x_max":0,"o":""},"Κ":{"ha":135,"x_min":0,"x_max":0,"o":""},"Λ":{"ha":196,"x_min":0,"x_max":0,"o":"m 216 0 l 477 781 l 486 781 l 749 0 z "},"Μ":{"ha":444,"x_min":0,"x_max":0,"o":""},"Ν":{"ha":222,"x_min":0,"x_max":0,"o":""},"Ξ":{"ha":48,"x_min":0,"x_max":0,"o":"m 80 0 l 734 0 l 734 145 l 80 145 z m 153 427 l 662 427 l 662 568 l 153 568 z m 94 836 l 712 836 l 712 982 l 94 982 z "},"Ο":{"ha":267,"x_min":0,"x_max":0,"o":""},"Π":{"ha":0,"x_min":0,"x_max":0,"o":""},"Ρ":{"ha":0,"x_min":0,"x_max":0,"o":""},"Σ":{"ha":108,"x_min":0,"x_max":0,"o":"m 784 151 l 340 151 l 587 480 l 587 491 l 342 821 l 764 821 l 764 972 l 91 972 l 91 871 l 393 486 l 91 100 l 91 0 l 784 0 z "},"Τ":{"ha":111,"x_min":0,"x_max":0,"o":""},"Υ":{"ha":170,"x_min":0,"x_max":0,"o":""},"Φ":{"ha":319,"x_min":0,"x_max":0,"o":"m 631 982 l 460 982 l 460 859 b 69 486 233 852 71 706 b 460 123 69 271 231 130 l 460 0 l 631 0 l 631 123 b 1016 488 858 131 1016 273 b 631 859 1016 708 856 851 z m 239 486 b 460 704 239 621 332 698 l 460 281 b 239 486 330 286 239 358 z m 631 281 l 631 704 b 849 488 759 698 849 623 b 631 281 849 361 761 286 z "},"Χ":{"ha":151,"x_min":0,"x_max":0,"o":""},"Ψ":{"ha":0,"x_min":0,"x_max":0,"o":""},"Ω":{"ha":264,"x_min":0,"x_max":0,"o":""},"Ω":{"ha":264,"x_min":0,"x_max":0,"o":""},"Ά":{"ha":0,"x_min":0,"x_max":0,"o":""},"Έ":{"ha":237,"x_min":0,"x_max":0,"o":"m 286 0 "},"Ή":{"ha":444,"x_min":0,"x_max":0,"o":"m 309 0 "},"Ί":{"ha":0,"x_min":0,"x_max":0,"o":""},"Ό":{"ha":0,"x_min":0,"x_max":0,"o":""},"Ύ":{"ha":455,"x_min":0,"x_max":0,"o":"m 270 982 l 628 368 "},"Ώ":{"ha":302,"x_min":0,"x_max":0,"o":"m 100 0 "},"Ϊ":{"ha":0,"x_min":0,"x_max":0,"o":""},"Ϋ":{"ha":0,"x_min":0,"x_max":0,"o":""},"Ͱ":{"ha":109,"x_min":0,"x_max":0,"o":"m 761 567 l 300 567 l 300 982 l 115 982 l 115 0 l 300 0 l 300 419 l 761 419 z "},"Ͳ":{"ha":119,"x_min":0,"x_max":0,"o":"m 838 594 l 838 982 l 56 982 l 56 594 l 205 594 l 205 834 l 359 834 l 359 0 l 534 0 l 534 834 l 690 834 l 690 594 z "},"Ͷ":{"ha":256,"x_min":0,"x_max":0,"o":"m 107 982 l 107 0 l 264 0 l 730 671 l 738 671 l 738 0 l 914 0 l 914 982 l 755 982 l 292 311 l 283 311 l 283 982 z "},"Ϙ":{"ha":248,"x_min":0,"x_max":0,"o":"m 948 491 b 507 996 948 807 760 996 b 66 491 255 996 66 807 b 419 -5 66 212 212 33 l 419 -274 l 597 -274 l 597 -5 b 948 491 803 34 948 212 z m 772 491 b 507 146 772 254 659 146 b 243 491 357 146 241 254 b 507 837 241 726 357 837 b 772 491 659 837 772 726 z "},"Ϛ":{"ha":233,"x_min":0,"x_max":0,"o":"m 579 -117 l 579 -259 b 860 -45 754 -254 860 -172 b 709 136 860 43 810 103 l 481 210 b 293 484 354 252 293 340 l 293 560 b 518 845 293 746 369 845 b 711 661 635 845 697 788 l 894 661 b 515 996 873 868 730 996 b 106 560 270 996 106 821 l 106 484 b 414 61 106 263 212 122 l 616 -1 b 674 -58 659 -15 674 -31 b 579 -117 674 -98 642 -115 z "},"Ϝ":{"ha":111,"x_min":0,"x_max":0,"o":"m 692 547 l 680 547 l 680 566 l 286 566 l 286 834 l 746 834 l 746 982 l 110 982 l 110 0 l 286 0 l 286 418 l 543 418 l 543 258 l 692 258 z "},"Ϟ":{"ha":170,"x_min":0,"x_max":0,"o":"m 153 149 l 629 510 l 609 278 b 604 168 605 239 602 199 b 831 -14 609 61 686 -14 b 890 -9 848 -14 872 -12 l 901 122 b 872 121 894 121 882 121 b 760 203 803 121 766 151 b 762 286 757 217 757 248 l 815 830 l 795 850 l 311 477 l 331 724 b 332 808 334 754 335 783 b 110 996 321 932 252 996 b 49 991 94 996 66 994 l 38 859 b 68 861 46 860 53 861 b 179 777 142 861 172 836 b 178 720 180 761 180 742 l 130 168 z "},"Ϡ":{"ha":299,"x_min":0,"x_max":0,"o":"m 68 576 l 244 576 b 505 845 260 738 350 845 b 743 711 610 845 690 797 l 243 425 l 313 301 l 795 576 b 815 385 808 519 815 455 l 381 140 l 454 15 l 811 218 b 515 -117 791 9 696 -117 l 515 -288 b 1000 308 825 -288 998 -57 l 1000 378 b 514 996 1000 751 827 996 b 68 576 221 996 90 789 z "},"Ϗ":{"ha":173,"x_min":0,"x_max":0,"o":"m 260 982 l 77 982 l 77 0 l 260 0 l 260 288 l 370 403 l 643 4 l 483 -132 l 581 -241 l 864 0 l 492 536 l 865 982 l 639 982 l 353 636 l 260 518 z "},"ϒ":{"ha":154,"x_min":0,"x_max":0,"o":""},"ϓ":{"ha":329,"x_min":0,"x_max":0,"o":"m 549 0 l 723 0 l 723 342 l 925 796 b 990 841 939 825 959 841 b 1028 837 1004 841 1023 838 l 1054 978 b 959 996 1023 989 991 996 b 770 841 865 996 811 944 l 637 518 l 506 845 b 316 996 460 962 397 996 b 221 977 279 996 251 989 l 245 837 b 283 841 250 838 271 841 b 349 796 315 841 335 826 l 549 340 "},"ϔ":{"ha":0,"x_min":0,"x_max":0,"o":""},"ϴ":{"ha":0,"x_min":0,"x_max":0,"o":""},"Ϸ":{"ha":0,"x_min":0,"x_max":0,"o":""},"Ϲ":{"ha":224,"x_min":0,"x_max":0,"o":""},"Ϻ":{"ha":444,"x_min":0,"x_max":0,"o":""},"Ͻ":{"ha":173,"x_min":0,"x_max":0,"o":"m 260 321 l 76 321 b 453 -14 95 117 237 -14 b 864 446 709 -14 864 163 l 864 536 b 461 996 864 818 716 996 b 77 665 247 996 95 873 l 260 665 b 454 845 277 800 347 845 b 678 536 621 845 678 735 l 678 445 b 452 136 678 245 610 136 b 260 321 336 136 275 194 z "},"Ͼ":{"ha":0,"x_min":0,"x_max":0,"o":""},"Ͽ":{"ha":0,"x_min":0,"x_max":0,"o":""},"Ἀ":{"ha":0,"x_min":0,"x_max":0,"o":""},"Ἁ":{"ha":0,"x_min":0,"x_max":0,"o":""},"Ἂ":{"ha":0,"x_min":0,"x_max":0,"o":""},"Ἃ":{"ha":0,"x_min":0,"x_max":0,"o":""},"Ἄ":{"ha":0,"x_min":0,"x_max":0,"o":""},"Ἅ":{"ha":0,"x_min":0,"x_max":0,"o":""},"Ἆ":{"ha":0,"x_min":0,"x_max":0,"o":""},"Ἇ":{"ha":0,"x_min":0,"x_max":0,"o":""},"Ὰ":{"ha":0,"x_min":0,"x_max":0,"o":""},"Ά":{"ha":0,"x_min":0,"x_max":0,"o":""},"Ᾰ":{"ha":0,"x_min":0,"x_max":0,"o":""},"Ᾱ":{"ha":0,"x_min":0,"x_max":0,"o":""},"ᾼ":{"ha":0,"x_min":0,"x_max":0,"o":""},"ᾈ":{"ha":0,"x_min":0,"x_max":0,"o":""},"ᾉ":{"ha":0,"x_min":0,"x_max":0,"o":""},"ᾊ":{"ha":0,"x_min":0,"x_max":0,"o":""},"ᾋ":{"ha":0,"x_min":0,"x_max":0,"o":""},"ᾌ":{"ha":0,"x_min":0,"x_max":0,"o":""},"ᾍ":{"ha":0,"x_min":0,"x_max":0,"o":""},"ᾎ":{"ha":0,"x_min":0,"x_max":0,"o":""},"ᾏ":{"ha":0,"x_min":0,"x_max":0,"o":""},"Ἐ":{"ha":229,"x_min":0,"x_max":0,"o":"m 278 0 "},"Ἑ":{"ha":226,"x_min":0,"x_max":0,"o":"m 277 0 z "},"Ἒ":{"ha":490,"x_min":0,"x_max":0,"o":"m 540 0 z "},"Ἓ":{"ha":446,"x_min":0,"x_max":0,"o":"m 496 0 "},"Ἔ":{"ha":452,"x_min":0,"x_max":0,"o":"m 502 0 "},"Ἕ":{"ha":473,"x_min":0,"x_max":0,"o":"m 522 0 "},"Ὲ":{"ha":284,"x_min":0,"x_max":0,"o":"m 334 0 "},"Έ":{"ha":262,"x_min":0,"x_max":0,"o":"m 312 0 "},"Ἠ":{"ha":0,"x_min":0,"x_max":0,"o":""},"Ἡ":{"ha":435,"x_min":0,"x_max":0,"o":""},"Ἢ":{"ha":699,"x_min":0,"x_max":0,"o":""},"Ἣ":{"ha":0,"x_min":0,"x_max":0,"o":""},"Ἤ":{"ha":0,"x_min":0,"x_max":0,"o":""},"Ἥ":{"ha":0,"x_min":0,"x_max":0,"o":""},"Ἦ":{"ha":0,"x_min":0,"x_max":0,"o":""},"Ἧ":{"ha":0,"x_min":0,"x_max":0,"o":""},"Ὴ":{"ha":0,"x_min":0,"x_max":0,"o":""},"Ή":{"ha":0,"x_min":0,"x_max":0,"o":""},"ῌ":{"ha":226,"x_min":0,"x_max":0,"o":""},"ᾘ":{"ha":413,"x_min":0,"x_max":0,"o":"m 278 0 "},"ᾙ":{"ha":435,"x_min":0,"x_max":0,"o":""},"ᾚ":{"ha":699,"x_min":0,"x_max":0,"o":""},"ᾛ":{"ha":0,"x_min":0,"x_max":0,"o":""},"ᾜ":{"ha":0,"x_min":0,"x_max":0,"o":""},"ᾝ":{"ha":0,"x_min":0,"x_max":0,"o":""},"ᾞ":{"ha":0,"x_min":0,"x_max":0,"o":""},"ᾟ":{"ha":0,"x_min":0,"x_max":0,"o":""},"Ἰ":{"ha":0,"x_min":0,"x_max":0,"o":""},"Ἱ":{"ha":-224,"x_min":0,"x_max":0,"o":""},"Ἲ":{"ha":40,"x_min":0,"x_max":0,"o":""},"Ἳ":{"ha":0,"x_min":0,"x_max":0,"o":""},"Ἴ":{"ha":0,"x_min":0,"x_max":0,"o":""},"Ἵ":{"ha":0,"x_min":0,"x_max":0,"o":""},"Ἶ":{"ha":0,"x_min":0,"x_max":0,"o":""},"Ἷ":{"ha":0,"x_min":0,"x_max":0,"o":""},"Ὶ":{"ha":0,"x_min":0,"x_max":0,"o":""},"Ί":{"ha":0,"x_min":0,"x_max":0,"o":""},"Ῐ":{"ha":0,"x_min":0,"x_max":0,"o":""},"Ῑ":{"ha":0,"x_min":0,"x_max":0,"o":""},"Ὀ":{"ha":0,"x_min":0,"x_max":0,"o":""},"Ὁ":{"ha":370,"x_min":0,"x_max":0,"o":""},"Ὂ":{"ha":574,"x_min":0,"x_max":0,"o":""},"Ὃ":{"ha":0,"x_min":0,"x_max":0,"o":""},"Ὄ":{"ha":0,"x_min":0,"x_max":0,"o":""},"Ὅ":{"ha":0,"x_min":0,"x_max":0,"o":""},"Ὸ":{"ha":0,"x_min":0,"x_max":0,"o":""},"Ό":{"ha":0,"x_min":0,"x_max":0,"o":""},"Ῥ":{"ha":284,"x_min":0,"x_max":0,"o":"m 275 0 "},"Ὑ":{"ha":406,"x_min":0,"x_max":0,"o":"m 221 982 l 579 368 z "},"Ὓ":{"ha":615,"x_min":0,"x_max":0,"o":"m 430 982 l 788 368 "},"Ὕ":{"ha":691,"x_min":0,"x_max":0,"o":"m 506 982 l 864 368 "},"Ὗ":{"ha":599,"x_min":0,"x_max":0,"o":"m 412 982 l 770 368 "},"Ὺ":{"ha":435,"x_min":0,"x_max":0,"o":"m 250 982 l 608 368 "},"Ύ":{"ha":425,"x_min":0,"x_max":0,"o":"m 239 982 l 597 368 "},"Ῠ":{"ha":0,"x_min":0,"x_max":0,"o":""},"Ῡ":{"ha":0,"x_min":0,"x_max":0,"o":""},"Ὠ":{"ha":0,"x_min":0,"x_max":0,"o":""},"Ὡ":{"ha":376,"x_min":0,"x_max":0,"o":""},"Ὢ":{"ha":588,"x_min":0,"x_max":0,"o":""},"Ὣ":{"ha":0,"x_min":0,"x_max":0,"o":""},"Ὤ":{"ha":0,"x_min":0,"x_max":0,"o":""},"Ὥ":{"ha":0,"x_min":0,"x_max":0,"o":""},"Ὦ":{"ha":0,"x_min":0,"x_max":0,"o":""},"Ὧ":{"ha":0,"x_min":0,"x_max":0,"o":""},"Ὼ":{"ha":382,"x_min":0,"x_max":0,"o":"m 180 0 "},"Ώ":{"ha":328,"x_min":0,"x_max":0,"o":"m 126 0 "},"ῼ":{"ha":264,"x_min":0,"x_max":0,"o":""},"ᾨ":{"ha":0,"x_min":0,"x_max":0,"o":""},"ᾩ":{"ha":376,"x_min":0,"x_max":0,"o":""},"ᾪ":{"ha":588,"x_min":0,"x_max":0,"o":""},"ᾫ":{"ha":0,"x_min":0,"x_max":0,"o":""},"ᾬ":{"ha":0,"x_min":0,"x_max":0,"o":""},"ᾭ":{"ha":0,"x_min":0,"x_max":0,"o":""},"ᾮ":{"ha":0,"x_min":0,"x_max":0,"o":""},"ᾯ":{"ha":0,"x_min":0,"x_max":0,"o":""},"Ϳ":{"ha":0,"x_min":0,"x_max":0,"o":""},"α":{"ha":0,"x_min":0,"x_max":0,"o":""},"β":{"ha":36,"x_min":0,"x_max":0,"o":"m 400 996 b 83 707 221 996 84 880 l 83 -277 l 252 -277 l 252 61 l 259 64 b 449 -11 313 7 381 -11 b 750 281 620 -11 750 111 b 613 528 750 381 704 475 b 708 734 675 581 708 659 b 400 996 708 884 575 996 z m 252 294 l 252 699 b 400 842 252 788 316 842 b 541 712 483 842 541 788 b 397 578 541 650 498 578 l 350 578 l 350 444 l 425 444 b 583 293 515 444 583 380 b 416 137 583 208 519 137 b 252 294 313 137 252 209 z "},"γ":{"ha":0,"x_min":0,"x_max":0,"o":""},"δ":{"ha":48,"x_min":0,"x_max":0,"o":"m 151 830 b 281 651 151 751 198 690 l 281 647 b 68 349 163 617 68 495 l 68 336 b 408 -14 68 133 198 -14 b 747 343 617 -14 747 137 l 747 357 b 441 734 747 537 651 662 b 323 829 346 766 323 800 b 433 890 323 865 359 890 b 600 857 495 890 560 872 l 600 996 b 422 1027 537 1017 486 1027 b 151 830 254 1027 151 949 z m 245 351 l 245 362 b 408 582 245 484 300 582 b 571 362 505 563 571 461 l 571 351 b 408 127 571 224 517 127 b 245 351 300 127 245 224 z "},"ε":{"ha":0,"x_min":0,"x_max":0,"o":""},"ζ":{"ha":-48,"x_min":0,"x_max":0,"o":"m 658 982 l 50 982 l 50 834 l 435 834 l 283 651 b 99 252 167 511 99 419 b 324 5 99 133 180 43 l 377 -8 b 460 -73 430 -23 461 -47 b 399 -186 460 -103 439 -144 l 490 -256 b 636 -41 582 -190 636 -113 b 445 126 636 31 567 92 l 380 146 b 269 274 309 167 269 213 b 419 578 269 388 323 457 l 658 879 z "},"η":{"ha":44,"x_min":0,"x_max":0,"o":""},"θ":{"ha":50,"x_min":0,"x_max":0,"o":"m 734 412 l 734 563 b 408 986 734 853 602 986 b 83 563 214 986 83 852 l 83 412 b 410 -14 83 121 216 -14 b 734 412 604 -14 734 121 z m 564 590 l 564 555 l 252 555 l 252 590 b 408 844 251 758 311 844 b 564 590 502 844 563 764 z m 252 388 l 252 418 l 564 418 l 564 388 b 410 130 563 210 503 130 b 252 388 312 130 251 217 z "},"ɩ":{"ha":-372,"x_min":0,"x_max":0,"o":""},"ι":{"ha":-372,"x_min":0,"x_max":0,"o":""},"κ":{"ha":0,"x_min":0,"x_max":0,"o":""},"λ":{"ha":31,"x_min":0,"x_max":0,"o":"m 694 -12 b 766 -3 718 -12 747 -8 l 745 130 b 723 129 739 130 730 129 b 658 198 686 129 675 153 l 423 821 b 180 996 381 936 297 996 b 81 978 141 996 107 989 l 121 840 b 278 760 210 864 241 848 l 298 709 l 31 0 l 212 0 l 377 483 l 387 483 l 513 121 b 694 -12 545 33 610 -12 z "},"μ":{"ha":101,"x_min":0,"x_max":0,"o":""},"ν":{"ha":52,"x_min":0,"x_max":0,"o":"m 307 0 l 473 0 b 753 736 654 222 749 481 l 583 736 b 411 172 575 526 544 388 l 403 172 l 212 736 l 31 736 z "},"ξ":{"ha":-20,"x_min":0,"x_max":0,"o":"m 614 826 l 642 964 b 453 996 587 985 521 996 b 125 753 255 996 125 901 b 273 560 125 659 176 594 b 72 289 140 517 72 426 b 327 18 72 145 148 62 l 418 -11 b 500 -80 476 -26 500 -45 b 437 -190 500 -104 486 -140 l 530 -260 b 675 -34 614 -197 674 -109 b 494 119 675 42 623 91 l 416 137 b 250 309 302 163 250 220 b 477 486 250 426 330 486 l 572 486 l 572 632 l 473 632 b 302 743 363 632 302 669 b 461 850 302 812 359 850 b 614 826 509 850 552 844 z "},"ο":{"ha":41,"x_min":0,"x_max":0,"o":""},"π":{"ha":172,"x_min":0,"x_max":0,"o":"m 852 736 l 65 736 l 65 602 l 180 602 l 180 0 l 350 0 l 350 602 l 570 602 l 570 198 b 761 -9 570 49 646 -9 b 875 8 808 -9 846 0 l 875 144 b 818 137 861 141 840 137 b 738 214 770 137 738 152 l 738 602 l 852 602 z "},"ρ":{"ha":0,"x_min":0,"x_max":0,"o":""},"ς":{"ha":-21,"x_min":0,"x_max":0,"o":"m 395 746 b 61 368 187 746 61 598 l 61 346 b 373 3 61 163 159 56 b 454 -65 435 -12 454 -28 b 391 -176 454 -98 437 -129 l 484 -247 b 627 -18 563 -187 627 -106 b 427 137 627 49 590 94 b 231 346 290 174 231 237 l 231 368 b 393 605 231 514 290 605 b 519 453 472 605 519 552 l 686 453 b 395 746 686 636 572 746 z "},"σ":{"ha":106,"x_min":0,"x_max":0,"o":"m 76 365 l 76 349 b 415 -14 76 144 199 -14 b 745 323 625 -14 745 138 l 745 336 b 625 572 745 434 694 519 l 798 572 l 798 713 l 414 713 b 76 365 198 713 76 563 z m 254 349 l 254 365 b 414 572 254 476 298 572 b 567 365 525 572 567 476 l 567 349 b 415 127 567 228 525 127 b 254 349 297 127 254 228 z "},"τ":{"ha":-66,"x_min":0,"x_max":0,"o":"m 673 736 l 30 736 l 30 595 l 259 595 l 259 210 b 456 -14 259 57 330 -14 b 582 14 505 -14 540 -8 l 559 144 b 494 130 540 137 522 130 b 427 208 458 130 427 141 l 427 595 l 673 595 z "},"υ":{"ha":14,"x_min":0,"x_max":0,"o":""},"φ":{"ha":306,"x_min":0,"x_max":0,"o":"m 449 563 l 449 136 b 244 395 296 164 244 271 b 345 650 245 505 281 586 l 232 746 b 75 395 137 677 75 552 b 449 -8 75 197 172 21 l 449 -277 l 613 -277 l 613 -9 b 998 374 897 16 998 186 b 656 746 998 594 853 746 b 449 563 528 746 449 684 z m 613 133 l 613 545 b 666 608 613 581 631 608 b 830 374 765 608 827 506 b 613 133 830 256 768 157 z "},"χ":{"ha":47,"x_min":0,"x_max":0,"o":"m 58 -277 l 235 -277 l 420 73 l 528 -137 b 765 -277 587 -250 637 -277 l 804 -277 l 804 -137 l 765 -137 b 666 -71 708 -137 699 -133 l 509 231 l 784 736 l 609 736 l 422 392 l 315 597 b 76 742 252 712 203 742 l 37 742 l 37 602 l 76 602 b 175 530 134 602 138 600 l 334 235 z "},"ψ":{"ha":0,"x_min":0,"x_max":0,"o":""},"ω":{"ha":422,"x_min":0,"x_max":0,"o":""},"ί":{"ha":0,"x_min":0,"x_max":0,"o":""},"ϊ":{"ha":0,"x_min":0,"x_max":0,"o":""},"ΐ":{"ha":0,"x_min":0,"x_max":0,"o":""},"ύ":{"ha":0,"x_min":0,"x_max":0,"o":""},"ϋ":{"ha":0,"x_min":0,"x_max":0,"o":""},"ΰ":{"ha":0,"x_min":0,"x_max":0,"o":""},"ό":{"ha":0,"x_min":0,"x_max":0,"o":""},"ώ":{"ha":0,"x_min":0,"x_max":0,"o":""},"ά":{"ha":0,"x_min":0,"x_max":0,"o":""},"έ":{"ha":0,"x_min":0,"x_max":0,"o":""},"ή":{"ha":0,"x_min":0,"x_max":0,"o":""},"ͱ":{"ha":-21,"x_min":0,"x_max":0,"o":"m 381 0 l 381 281 l 697 281 l 697 422 l 381 422 l 381 529 b 142 746 381 699 260 746 b 50 738 107 746 75 742 l 50 620 b 95 624 64 621 80 624 b 202 529 151 624 202 601 l 202 0 z "},"ͳ":{"ha":45,"x_min":0,"x_max":0,"o":"m 746 982 l 66 982 l 66 646 l 209 646 l 209 840 l 321 840 l 321 0 l 492 0 l 492 840 l 604 840 l 604 646 l 746 646 z "},"ͷ":{"ha":106,"x_min":0,"x_max":0,"o":"m 263 0 l 529 483 l 529 224 b 703 -14 529 60 595 -14 b 788 4 732 -14 760 -11 l 770 137 b 755 133 768 134 762 133 b 707 224 724 133 707 155 l 707 736 l 529 736 l 263 255 l 263 736 l 85 736 l 85 0 z "},"ͻ":{"ha":0,"x_min":0,"x_max":0,"o":""},"ͼ":{"ha":-20,"x_min":0,"x_max":0,"o":"m 300 362 b 385 281 298 317 332 281 b 473 362 439 281 473 317 b 385 444 473 408 441 444 b 300 362 332 444 300 408 z m 391 -14 b 690 252 553 -14 688 96 l 522 252 b 389 129 519 175 464 129 b 235 355 259 129 235 244 l 235 377 b 388 605 235 488 260 605 b 522 463 473 605 519 544 l 690 463 b 391 746 688 636 568 746 b 57 377 168 746 57 585 l 57 355 b 391 -14 57 148 167 -14 z "},"ͽ":{"ha":-20,"x_min":0,"x_max":0,"o":"m 224 241 l 57 241 b 357 -14 60 96 179 -14 b 690 355 579 -14 690 148 l 690 377 b 355 746 690 585 581 746 b 57 452 193 746 60 636 l 224 452 b 358 604 228 557 283 604 b 511 377 488 604 511 488 l 511 355 b 358 127 511 245 487 127 b 224 241 274 127 228 190 z m 361 273 b 448 354 415 273 448 307 b 361 434 448 399 415 434 b 273 354 307 434 273 399 b 361 273 273 307 307 273 z "},"ϙ":{"ha":58,"x_min":0,"x_max":0,"o":"m 397 129 b 216 366 270 129 216 232 b 397 605 216 500 270 605 b 578 366 524 605 578 500 b 397 129 578 232 524 129 z m 50 366 b 302 -3 50 177 145 36 l 302 -275 l 480 -275 l 480 -5 b 745 366 644 29 745 172 b 397 746 745 593 609 746 b 50 366 184 746 50 593 z "},"ϛ":{"ha":-20,"x_min":0,"x_max":0,"o":"m 434 -121 l 434 -260 b 696 -64 585 -259 696 -205 b 563 107 696 37 643 83 l 401 155 b 229 359 302 183 229 231 l 229 399 b 382 605 229 507 259 605 b 517 453 467 605 513 544 l 684 453 b 385 746 681 636 562 746 b 52 396 160 746 52 587 l 52 357 b 300 31 52 144 167 72 l 461 -12 b 519 -66 496 -20 518 -38 b 434 -121 518 -103 486 -121 z "},"ϝ":{"ha":-18,"x_min":0,"x_max":0,"o":"m 663 736 l 87 736 l 87 -274 l 264 -274 l 264 247 l 463 247 l 463 122 l 605 122 l 605 387 l 264 387 l 264 597 l 663 597 z "},"ϟ":{"ha":47,"x_min":0,"x_max":0,"o":"m 739 552 l 285 552 l 461 982 l 279 982 l 76 500 l 76 411 l 537 411 l 366 0 l 548 0 l 739 468 z "},"ϡ":{"ha":229,"x_min":0,"x_max":0,"o":"m 217 1036 l 53 948 b 521 643 260 859 412 761 l 90 396 l 160 273 l 609 529 b 690 370 641 479 668 427 l 235 110 l 307 -14 l 732 229 b 780 -288 767 83 781 -86 l 944 -201 b 217 1036 944 431 788 799 z "},"ϗ":{"ha":231,"x_min":0,"x_max":0,"o":"m 300 0 l 635 450 b 670 273 643 374 656 320 b 776 -26 716 130 776 68 b 654 -126 776 -95 736 -126 b 620 -122 646 -126 631 -125 l 620 -254 b 703 -263 646 -259 678 -263 b 937 -39 872 -263 937 -148 b 810 345 937 109 864 182 b 764 623 787 411 770 500 l 848 736 b 800 678 848 708 806 703 l 800 548 b 848 553 817 552 834 553 b 952 457 907 553 952 532 l 952 28 l 888 -57 z "},"ϐ":{"ha":108,"x_min":0,"x_max":0,"o":"m 480 613 b 247 518 385 613 307 578 b 266 690 247 579 253 638 b 467 656 345 663 412 656 b 713 844 637 656 713 750 b 480 1027 713 952 624 1027 b 100 490 244 1027 100 821 l 100 446 b 445 -14 100 142 220 -14 b 776 308 652 -14 776 121 b 480 613 776 498 661 613 z m 441 469 b 600 308 547 469 600 415 b 438 127 600 199 548 127 b 281 308 330 127 281 199 b 441 469 281 416 351 469 z m 312 806 b 457 894 346 860 394 894 b 544 830 518 894 544 865 b 450 777 544 803 511 777 b 312 806 412 777 363 787 z "},"ϑ":{"ha":106,"x_min":0,"x_max":0,"o":"m 799 388 l 792 534 b 716 521 766 529 740 524 l 716 726 b 475 996 716 897 624 996 b 222 739 326 996 222 898 l 222 720 b 533 369 222 538 347 404 l 533 298 b 395 133 533 193 479 133 b 247 298 305 133 247 197 l 247 476 l 77 476 l 77 298 b 399 -14 77 115 206 -14 b 716 298 583 -14 716 106 l 716 369 b 799 388 741 373 769 379 z m 393 727 l 393 747 b 464 840 395 814 422 840 b 533 742 509 840 533 810 l 533 529 b 393 727 442 559 392 631 z "},"ϕ":{"ha":245,"x_min":0,"x_max":0,"o":"m 425 -277 l 587 -277 l 587 -9 b 949 369 817 13 951 157 b 587 745 951 576 815 721 l 587 997 l 425 997 l 425 745 b 62 369 197 721 62 576 b 425 -9 62 157 196 12 z m 231 369 b 425 624 231 500 303 602 l 425 110 b 231 369 303 133 231 237 z m 587 109 l 587 624 b 781 369 709 602 781 500 b 587 109 781 237 709 132 z "},"ϖ":{"ha":425,"x_min":0,"x_max":0,"o":"m 1138 736 l 54 736 l 54 609 l 137 609 b -19 565 137 580 62 565 b -104 634 -20 565 -104 649 b NaN 790 -104 715 -132 790 l NaN 790 z m NaN 547 b NaN 790 NaN 625 NaN 701 l NaN 790 b NaN 547 NaN 701 NaN 625 b NaN 310 NaN 398 NaN 310 b NaN 503 NaN 310 NaN 378 b NaN 503 NaN 657 NaN 503 z "},"ϰ":{"ha":231,"x_min":0,"x_max":0,"o":"m 160 0 l 311 0 l 620 416 l 620 220 b 833 -14 620 94 674 -14 b 928 -3 861 -14 905 -9 l 928 127 b 880 123 911 125 892 123 b 776 218 818 123 776 146 l 776 625 l 859 736 b 811 678 859 707 817 701 l 811 548 b 860 553 826 552 844 553 b 963 457 918 553 963 532 l 964 30 z "},"ϱ":{"ha":108,"x_min":0,"x_max":0,"o":"m 572 -313 l 716 -313 b 463 -84 716 -161 629 -117 b 250 132 351 -60 275 -1 b 472 39 309 72 382 39 b 776 370 666 39 776 182 l 776 388 b 438 746 776 600 654 746 b 100 363 223 746 101 591 l 100 362 l 100 319 b 429 -222 100 -18 228 -180 b 572 -313 526 -244 572 -259 z m 438 180 b 277 370 321 180 277 270 l 277 388 b 438 605 277 511 320 605 b 600 388 559 605 600 507 l 600 370 b 438 180 600 269 555 180 z "},"ϲ":{"ha":1,"x_min":0,"x_max":0,"o":""},"ϳ":{"ha":0,"x_min":0,"x_max":0,"o":""},"ϵ":{"ha":-146,"x_min":0,"x_max":0,"o":"m 377 134 b 224 301 269 134 233 213 l 473 301 l 473 430 l 224 430 b 377 595 233 526 273 595 l 579 595 l 579 736 l 377 736 b 43 377 155 736 43 581 l 43 354 b 377 -7 43 151 153 -7 l 579 -7 l 579 134 z "},"ϸ":{"ha":0,"x_min":0,"x_max":0,"o":""},"ϻ":{"ha":231,"x_min":0,"x_max":0,"o":"m 498 213 l 296 736 l 75 736 l 75 -274 l 252 -274 l 252 469 l 438 0 l 559 0 l 747 472 l 747 0 l 925 0 l 925 736 l 703 736 z "},"ϼ":{"ha":10,"x_min":0,"x_max":0,"o":"m 79 385 l 79 -57 l -66 -57 l -66 -167 l 79 -167 l 79 -274 l 248 -274 l 248 -167 l 392 -167 l 392 -57 l 248 -57 l 247 72 b 430 -14 289 17 347 -14 b 724 342 613 -14 724 130 l 724 355 b 401 746 724 576 625 746 b 79 385 209 746 79 623 "},"ἀ":{"ha":0,"x_min":0,"x_max":0,"o":""},"ἁ":{"ha":0,"x_min":0,"x_max":0,"o":""},"ἂ":{"ha":0,"x_min":0,"x_max":0,"o":""},"ἃ":{"ha":0,"x_min":0,"x_max":0,"o":""},"ἄ":{"ha":0,"x_min":0,"x_max":0,"o":""},"ἅ":{"ha":0,"x_min":0,"x_max":0,"o":""},"ἆ":{"ha":0,"x_min":0,"x_max":0,"o":""},"ἇ":{"ha":0,"x_min":0,"x_max":0,"o":""},"ὰ":{"ha":0,"x_min":0,"x_max":0,"o":""},"ά":{"ha":0,"x_min":0,"x_max":0,"o":""},"ᾶ":{"ha":0,"x_min":0,"x_max":0,"o":""},"ᾰ":{"ha":0,"x_min":0,"x_max":0,"o":""},"ᾱ":{"ha":0,"x_min":0,"x_max":0,"o":""},"ᾳ":{"ha":0,"x_min":0,"x_max":0,"o":""},"ᾲ":{"ha":0,"x_min":0,"x_max":0,"o":""},"ᾴ":{"ha":0,"x_min":0,"x_max":0,"o":""},"ᾀ":{"ha":0,"x_min":0,"x_max":0,"o":""},"ᾁ":{"ha":0,"x_min":0,"x_max":0,"o":""},"ᾂ":{"ha":0,"x_min":0,"x_max":0,"o":""},"ᾃ":{"ha":0,"x_min":0,"x_max":0,"o":""},"ᾄ":{"ha":0,"x_min":0,"x_max":0,"o":""},"ᾅ":{"ha":0,"x_min":0,"x_max":0,"o":""},"ᾆ":{"ha":0,"x_min":0,"x_max":0,"o":""},"ᾇ":{"ha":0,"x_min":0,"x_max":0,"o":""},"ᾷ":{"ha":0,"x_min":0,"x_max":0,"o":""},"ἐ":{"ha":0,"x_min":0,"x_max":0,"o":""},"ἑ":{"ha":0,"x_min":0,"x_max":0,"o":""},"ἒ":{"ha":-21,"x_min":0,"x_max":0,"o":"m -279 -811 b 716 -363 -279 -233 574 -363 b 818 -54 632 -363 818 -193 b NaN 37 818 27 963 37 l NaN 37 b NaN -56 NaN -24 NaN -56 b NaN 39 NaN -56 NaN -15 b NaN 140 NaN 102 NaN 140 l NaN 140 l NaN 263 l NaN 263 b NaN 346 NaN 263 NaN 296 b NaN 437 NaN 396 NaN 437 b NaN 353 NaN 437 NaN 407 l NaN 353 b NaN 570 NaN 490 NaN 570 b NaN 345 NaN 441 NaN 374 b NaN 174 NaN 315 NaN 246 z "},"ἓ":{"ha":0,"x_min":0,"x_max":0,"o":""},"ἔ":{"ha":0,"x_min":0,"x_max":0,"o":""},"ἕ":{"ha":0,"x_min":0,"x_max":0,"o":""},"ὲ":{"ha":0,"x_min":0,"x_max":0,"o":""},"έ":{"ha":0,"x_min":0,"x_max":0,"o":""},"ἠ":{"ha":0,"x_min":0,"x_max":0,"o":""},"ἡ":{"ha":44,"x_min":0,"x_max":0,"o":""},"ἢ":{"ha":44,"x_min":0,"x_max":0,"o":""},"ἣ":{"ha":0,"x_min":0,"x_max":0,"o":""},"ἤ":{"ha":0,"x_min":0,"x_max":0,"o":""},"ἥ":{"ha":0,"x_min":0,"x_max":0,"o":""},"ἦ":{"ha":0,"x_min":0,"x_max":0,"o":""},"ἧ":{"ha":0,"x_min":0,"x_max":0,"o":""},"ὴ":{"ha":0,"x_min":0,"x_max":0,"o":""},"ή":{"ha":0,"x_min":0,"x_max":0,"o":""},"ῆ":{"ha":0,"x_min":0,"x_max":0,"o":""},"ῃ":{"ha":44,"x_min":0,"x_max":0,"o":""},"ῂ":{"ha":0,"x_min":0,"x_max":0,"o":""},"ῄ":{"ha":0,"x_min":0,"x_max":0,"o":""},"ᾐ":{"ha":0,"x_min":0,"x_max":0,"o":""},"ᾑ":{"ha":44,"x_min":0,"x_max":0,"o":""},"ᾒ":{"ha":44,"x_min":0,"x_max":0,"o":""},"ᾓ":{"ha":0,"x_min":0,"x_max":0,"o":""},"ᾔ":{"ha":0,"x_min":0,"x_max":0,"o":""},"ᾕ":{"ha":0,"x_min":0,"x_max":0,"o":""},"ᾖ":{"ha":0,"x_min":0,"x_max":0,"o":""},"ᾗ":{"ha":0,"x_min":0,"x_max":0,"o":""},"ῇ":{"ha":0,"x_min":0,"x_max":0,"o":""},"ἰ":{"ha":0,"x_min":0,"x_max":0,"o":""},"ἱ":{"ha":-372,"x_min":0,"x_max":0,"o":""},"ἲ":{"ha":-372,"x_min":0,"x_max":0,"o":""},"ἳ":{"ha":0,"x_min":0,"x_max":0,"o":""},"ἴ":{"ha":0,"x_min":0,"x_max":0,"o":""},"ἵ":{"ha":0,"x_min":0,"x_max":0,"o":""},"ἶ":{"ha":0,"x_min":0,"x_max":0,"o":""},"ἷ":{"ha":0,"x_min":0,"x_max":0,"o":""},"ὶ":{"ha":0,"x_min":0,"x_max":0,"o":""},"ί":{"ha":0,"x_min":0,"x_max":0,"o":""},"ῖ":{"ha":0,"x_min":0,"x_max":0,"o":""},"ῐ":{"ha":0,"x_min":0,"x_max":0,"o":""},"ῑ":{"ha":0,"x_min":0,"x_max":0,"o":""},"ῒ":{"ha":0,"x_min":0,"x_max":0,"o":""},"ΐ":{"ha":-372,"x_min":0,"x_max":0,"o":"m -125 68 l -453 68 l -453 294 l -355 294 l -247 427 l -382 427 z "},"ῗ":{"ha":0,"x_min":0,"x_max":0,"o":""},"ὀ":{"ha":0,"x_min":0,"x_max":0,"o":""},"ὁ":{"ha":41,"x_min":0,"x_max":0,"o":""},"ὂ":{"ha":41,"x_min":0,"x_max":0,"o":""},"ὃ":{"ha":0,"x_min":0,"x_max":0,"o":""},"ὄ":{"ha":0,"x_min":0,"x_max":0,"o":""},"ὅ":{"ha":0,"x_min":0,"x_max":0,"o":""},"ὸ":{"ha":0,"x_min":0,"x_max":0,"o":""},"ό":{"ha":0,"x_min":0,"x_max":0,"o":""},"ῤ":{"ha":0,"x_min":0,"x_max":0,"o":""},"ῥ":{"ha":10,"x_min":0,"x_max":0,"o":"m -57 -692 b 606 -353 -57 -468 564 -353 b 826 -197 716 -353 826 -240 b NaN NaN 826 -307 692 NaN l NaN NaN b NaN NaN NaN NaN NaN NaN b NaN NaN NaN NaN NaN NaN z "},"ὐ":{"ha":0,"x_min":0,"x_max":0,"o":""},"ὑ":{"ha":14,"x_min":0,"x_max":0,"o":""},"ὒ":{"ha":14,"x_min":0,"x_max":0,"o":""},"ὓ":{"ha":0,"x_min":0,"x_max":0,"o":""},"ὔ":{"ha":0,"x_min":0,"x_max":0,"o":""},"ὕ":{"ha":0,"x_min":0,"x_max":0,"o":""},"ὖ":{"ha":0,"x_min":0,"x_max":0,"o":""},"ὗ":{"ha":0,"x_min":0,"x_max":0,"o":""},"ὺ":{"ha":0,"x_min":0,"x_max":0,"o":""},"ύ":{"ha":0,"x_min":0,"x_max":0,"o":""},"ῦ":{"ha":0,"x_min":0,"x_max":0,"o":""},"ῠ":{"ha":0,"x_min":0,"x_max":0,"o":""},"ῡ":{"ha":0,"x_min":0,"x_max":0,"o":""},"ῢ":{"ha":0,"x_min":0,"x_max":0,"o":""},"ΰ":{"ha":14,"x_min":0,"x_max":0,"o":"m -125 68 l -244 68 l -244 294 l -146 294 l -38 427 l -174 427 z "},"ῧ":{"ha":0,"x_min":0,"x_max":0,"o":""},"ὠ":{"ha":0,"x_min":0,"x_max":0,"o":""},"ὡ":{"ha":422,"x_min":0,"x_max":0,"o":""},"ὢ":{"ha":422,"x_min":0,"x_max":0,"o":""},"ὣ":{"ha":0,"x_min":0,"x_max":0,"o":""},"ὤ":{"ha":0,"x_min":0,"x_max":0,"o":""},"ὥ":{"ha":0,"x_min":0,"x_max":0,"o":""},"ὦ":{"ha":0,"x_min":0,"x_max":0,"o":""},"ὧ":{"ha":0,"x_min":0,"x_max":0,"o":""},"ὼ":{"ha":0,"x_min":0,"x_max":0,"o":""},"ώ":{"ha":0,"x_min":0,"x_max":0,"o":""},"ῶ":{"ha":0,"x_min":0,"x_max":0,"o":""},"ῳ":{"ha":422,"x_min":0,"x_max":0,"o":""},"ῲ":{"ha":0,"x_min":0,"x_max":0,"o":""},"ῴ":{"ha":0,"x_min":0,"x_max":0,"o":""},"ᾠ":{"ha":0,"x_min":0,"x_max":0,"o":""},"ᾡ":{"ha":422,"x_min":0,"x_max":0,"o":""},"ᾢ":{"ha":422,"x_min":0,"x_max":0,"o":""},"ᾣ":{"ha":0,"x_min":0,"x_max":0,"o":""},"ᾤ":{"ha":0,"x_min":0,"x_max":0,"o":""},"ᾥ":{"ha":0,"x_min":0,"x_max":0,"o":""},"ᾦ":{"ha":0,"x_min":0,"x_max":0,"o":""},"ᾧ":{"ha":0,"x_min":0,"x_max":0,"o":""},"ῷ":{"ha":0,"x_min":0,"x_max":0,"o":""},"ι":{"ha":-393,"x_min":0,"x_max":0,"o":""},"ͺ":{"ha":-393,"x_min":0,"x_max":0,"o":""},"ㄱ":{"ha":0,"x_min":0,"x_max":0,"o":"m 989 821 l 212 821 l 212 699 l 840 699 l 840 170 l 989 170 z "},"ﾡ":{"ha":0,"x_min":0,"x_max":0,"o":"m 989 821 l 212 821 l 212 699 l 840 699 l 840 170 l 989 170 z "},"ㄲ":{"ha":0,"x_min":0,"x_max":0,"o":"m 586 821 l 144 821 l 144 699 l 439 699 l 439 170 l 586 170 z m 1078 823 l 650 823 l 650 701 l 928 701 l 928 171 l 1078 171 z "},"ﾢ":{"ha":0,"x_min":0,"x_max":0,"o":"m 586 821 l 144 821 l 144 699 l 439 699 l 439 170 l 586 170 z m 1078 823 l 650 823 l 650 701 l 928 701 l 928 171 l 1078 171 z "},"ㄳ":{"ha":0,"x_min":0,"x_max":0,"o":"m 548 818 l 141 818 l 141 697 l 399 697 l 399 170 l 548 170 l 548 256 l 620 157 b 834 372 726 201 795 277 b 1047 157 872 277 941 201 l 1127 267 b 906 608 967 326 906 467 l 906 831 l 762 831 l 762 608 b 548 270 762 469 703 330 z "},"ﾣ":{"ha":0,"x_min":0,"x_max":0,"o":"m 548 818 l 141 818 l 141 697 l 399 697 l 399 170 l 548 170 l 548 256 l 620 157 b 834 372 726 201 795 277 b 1047 157 872 277 941 201 l 1127 267 b 906 608 967 326 906 467 l 906 831 l 762 831 l 762 608 b 548 270 762 469 703 330 z "},"ㄴ":{"ha":0,"x_min":0,"x_max":0,"o":"m 1005 307 l 366 307 l 366 821 l 216 821 l 216 184 l 1005 184 z "},"ﾤ":{"ha":0,"x_min":0,"x_max":0,"o":"m 1005 307 l 366 307 l 366 821 l 216 821 l 216 184 l 1005 184 z "},"ㄵ":{"ha":0,"x_min":0,"x_max":0,"o":"m 315 823 l 163 823 l 163 156 l 228 156 b 556 186 353 155 448 157 l 553 208 l 598 151 b 798 376 698 197 760 277 b 1004 148 836 275 901 195 l 1088 259 b 868 637 926 327 868 481 l 868 699 l 1043 699 l 1043 818 l 556 818 l 556 699 l 727 699 l 727 637 b 544 275 726 492 679 349 l 538 307 b 315 278 465 286 393 280 z "},"ﾥ":{"ha":0,"x_min":0,"x_max":0,"o":"m 315 823 l 163 823 l 163 156 l 228 156 b 556 186 353 155 448 157 l 553 208 l 598 151 b 798 376 698 197 760 277 b 1004 148 836 275 901 195 l 1088 259 b 868 637 926 327 868 481 l 868 699 l 1043 699 l 1043 818 l 556 818 l 556 699 l 727 699 l 727 637 b 544 275 726 492 679 349 l 538 307 b 315 278 465 286 393 280 z "},"ㄶ":{"ha":0,"x_min":0,"x_max":0,"o":"m 311 803 l 161 803 l 161 164 l 228 164 b 556 195 350 164 448 165 l 538 316 b 311 286 464 296 391 288 z m 1050 728 l 873 728 l 873 840 l 727 840 l 727 728 l 537 728 l 537 606 l 1050 606 z m 796 571 b 578 353 671 571 576 479 b 796 134 576 225 671 134 b 1013 353 917 134 1012 225 b 796 571 1012 479 917 571 z m 796 453 b 887 353 848 453 887 415 b 796 251 887 289 848 251 b 705 353 743 251 705 289 b 796 453 705 415 743 453 z "},"ﾦ":{"ha":0,"x_min":0,"x_max":0,"o":"m 311 803 l 161 803 l 161 164 l 228 164 b 556 195 350 164 448 165 l 538 316 b 311 286 464 296 391 288 z m 1050 728 l 873 728 l 873 840 l 727 840 l 727 728 l 537 728 l 537 606 l 1050 606 z m 796 571 b 578 353 671 571 576 479 b 796 134 576 225 671 134 b 1013 353 917 134 1012 225 b 796 571 1012 479 917 571 z m 796 453 b 887 353 848 453 887 415 b 796 251 887 289 848 251 b 705 353 743 251 705 289 b 796 453 705 415 743 453 z "},"ㄷ":{"ha":0,"x_min":0,"x_max":0,"o":"m 983 826 l 218 826 l 218 171 l 994 171 l 994 290 l 370 290 l 370 704 l 983 704 z "},"ﾧ":{"ha":0,"x_min":0,"x_max":0,"o":"m 983 826 l 218 826 l 218 171 l 994 171 l 994 290 l 370 290 l 370 704 l 983 704 z "},"ㄸ":{"ha":0,"x_min":0,"x_max":0,"o":"m 571 826 l 172 826 l 172 182 l 241 182 b 589 213 370 182 471 186 l 575 336 b 320 309 488 316 409 310 l 320 704 l 571 704 z m 1029 826 l 636 826 l 636 180 l 1036 180 l 1036 302 l 785 302 l 785 704 l 1029 704 z "},"ﾨ":{"ha":0,"x_min":0,"x_max":0,"o":"m 571 826 l 172 826 l 172 182 l 241 182 b 589 213 370 182 471 186 l 575 336 b 320 309 488 316 409 310 l 320 704 l 571 704 z m 1029 826 l 636 826 l 636 180 l 1036 180 l 1036 302 l 785 302 l 785 704 l 1029 704 z "},"ㄹ":{"ha":0,"x_min":0,"x_max":0,"o":"m 986 840 l 206 840 l 206 720 l 842 720 l 842 567 l 209 567 l 209 167 l 1006 167 l 1006 289 l 351 289 l 351 449 l 986 449 z "},"ﾩ":{"ha":0,"x_min":0,"x_max":0,"o":"m 986 840 l 206 840 l 206 720 l 842 720 l 842 567 l 209 567 l 209 167 l 1006 167 l 1006 289 l 351 289 l 351 449 l 986 449 z "},"ㄺ":{"ha":0,"x_min":0,"x_max":0,"o":"l 576 0 l 576 831 l 431 831 l 431 563 l 37 563 l 37 643 b 449 671 191 643 309 644 l 434 792 b 107 762 323 770 223 764 l 107 916 l 374 916 m 840 1303 l 415 1303 l 415 1183 l 692 1183 l 692 644 l 840 644 z "},"ﾪ":{"ha":0,"x_min":0,"x_max":0,"o":"l 576 0 l 576 831 l 431 831 l 431 563 l 37 563 l 37 643 b 449 671 191 643 309 644 l 434 792 b 107 762 323 770 223 764 l 107 916 l 374 916 m 840 1303 l 415 1303 l 415 1183 l 692 1183 l 692 644 l 840 644 z "},"ㄻ":{"ha":0,"x_min":0,"x_max":0,"o":"l -395 0 l -395 75 b -20 100 -259 75 -152 77 l -35 220 b -319 194 -136 200 -222 195 l -319 346 l -54 346 m 442 735 l 8 735 l 8 76 l 442 76 z m 141 614 l 311 614 l 311 195 l 141 195 z "},"ﾫ":{"ha":0,"x_min":0,"x_max":0,"o":"l -395 0 l -395 75 b -20 100 -259 75 -152 77 l -35 220 b -319 194 -136 200 -222 195 l -319 346 l -54 346 m 442 735 l 8 735 l 8 76 l 442 76 z m 141 614 l 311 614 l 311 195 l 141 195 z "},"ㄼ":{"ha":0,"x_min":0,"x_max":0,"o":"l -397 0 l -397 75 b -22 104 -258 75 -152 77 l -37 225 b -321 197 -136 203 -222 197 l -321 349 l -57 349 m 140 739 l 1 739 l 1 75 l 441 75 l 441 739 l 298 739 l 298 532 l 140 532 z m 140 198 l 140 410 l 298 410 l 298 198 z "},"ﾬ":{"ha":0,"x_min":0,"x_max":0,"o":"l -397 0 l -397 75 b -22 104 -258 75 -152 77 l -37 225 b -321 197 -136 203 -222 197 l -321 349 l -57 349 m 140 739 l 1 739 l 1 75 l 441 75 l 441 739 l 298 739 l 298 532 l 140 532 z m 140 198 l 140 410 l 298 410 l 298 198 z "},"ㄽ":{"ha":0,"x_min":0,"x_max":0,"o":"m 566 831 l 151 831 l 151 709 l 416 709 l 416 566 l 152 566 l 152 171 l 225 171 b 602 201 369 171 476 174 l 601 218 l 637 165 b 842 377 739 208 805 283 b 1047 165 880 283 945 208 l 1127 274 b 914 612 972 335 914 473 l 914 836 l 772 836 l 772 612 b 591 289 772 484 720 355 l 587 321 b 302 290 492 300 404 292 l 302 442 l 566 442 z "},"ﾭ":{"ha":0,"x_min":0,"x_max":0,"o":"m 566 831 l 151 831 l 151 709 l 416 709 l 416 566 l 152 566 l 152 171 l 225 171 b 602 201 369 171 476 174 l 601 218 l 637 165 b 842 377 739 208 805 283 b 1047 165 880 283 945 208 l 1127 274 b 914 612 972 335 914 473 l 914 836 l 772 836 l 772 612 b 591 289 772 484 720 355 l 587 321 b 302 290 492 300 404 292 l 302 442 l 566 442 z "},"ㄾ":{"ha":0,"x_min":0,"x_max":0,"o":"m 568 831 l 155 831 l 155 709 l 422 709 l 422 566 l 157 566 l 157 171 l 229 171 b 606 202 373 171 481 174 l 591 324 b 307 293 494 300 408 294 l 307 442 l 568 442 z m 1057 831 l 637 831 l 637 168 l 1067 168 l 1067 290 l 787 290 l 787 442 l 1042 442 l 1042 563 l 787 563 l 787 709 l 1057 709 z "},"ﾮ":{"ha":0,"x_min":0,"x_max":0,"o":"m 568 831 l 155 831 l 155 709 l 422 709 l 422 566 l 157 566 l 157 171 l 229 171 b 606 202 373 171 481 174 l 591 324 b 307 293 494 300 408 294 l 307 442 l 568 442 z m 1057 831 l 637 831 l 637 168 l 1067 168 l 1067 290 l 787 290 l 787 442 l 1042 442 l 1042 563 l 787 563 l 787 709 l 1057 709 z "},"ㄿ":{"ha":0,"x_min":0,"x_max":0,"o":"m 556 831 l 156 831 l 156 709 l 408 709 l 408 566 l 157 566 l 157 171 l 229 171 b 600 201 368 171 475 174 l 583 321 b 305 290 490 300 404 292 l 305 442 l 556 442 z m 1084 829 l 610 829 l 610 707 l 674 707 l 674 289 l 608 289 l 608 171 l 1088 171 l 1088 289 l 1021 289 l 1021 707 l 1084 707 z m 804 289 l 804 707 l 888 707 l 888 289 z "},"ﾯ":{"ha":0,"x_min":0,"x_max":0,"o":"m 556 831 l 156 831 l 156 709 l 408 709 l 408 566 l 157 566 l 157 171 l 229 171 b 600 201 368 171 475 174 l 583 321 b 305 290 490 300 404 292 l 305 442 l 556 442 z m 1084 829 l 610 829 l 610 707 l 674 707 l 674 289 l 608 289 l 608 171 l 1088 171 l 1088 289 l 1021 289 l 1021 707 l 1084 707 z m 804 289 l 804 707 l 888 707 l 888 289 z "},"ㅀ":{"ha":0,"x_min":0,"x_max":0,"o":"m 543 831 l 161 831 l 161 713 l 393 713 l 393 567 l 163 567 l 163 171 l 236 171 b 595 198 368 171 475 172 l 581 319 b 313 290 489 298 408 292 l 313 450 l 543 450 z m 1092 746 l 921 746 l 921 863 l 776 863 l 776 746 l 595 746 l 595 624 l 1092 624 z m 844 589 b 625 373 720 589 624 498 b 844 157 624 247 720 156 b 1059 373 966 156 1059 247 b 844 589 1059 498 966 589 z m 844 471 b 933 373 895 469 932 434 b 844 274 932 309 895 273 b 751 373 788 273 751 309 b 844 471 751 434 788 469 z "},"ﾰ":{"ha":0,"x_min":0,"x_max":0,"o":"m 543 831 l 161 831 l 161 713 l 393 713 l 393 567 l 163 567 l 163 171 l 236 171 b 595 198 368 171 475 172 l 581 319 b 313 290 489 298 408 292 l 313 450 l 543 450 z m 1092 746 l 921 746 l 921 863 l 776 863 l 776 746 l 595 746 l 595 624 l 1092 624 z m 844 589 b 625 373 720 589 624 498 b 844 157 624 247 720 156 b 1059 373 966 156 1059 247 b 844 589 1059 498 966 589 z m 844 471 b 933 373 895 469 932 434 b 844 274 932 309 895 273 b 751 373 788 273 751 309 b 844 471 751 434 788 469 z "},"ㅁ":{"ha":0,"x_min":0,"x_max":0,"o":"m 994 822 l 214 822 l 214 176 l 994 176 z m 366 700 l 844 700 l 844 297 l 366 297 z "},"ﾱ":{"ha":0,"x_min":0,"x_max":0,"o":"m 994 822 l 214 822 l 214 176 l 994 176 z m 366 700 l 844 700 l 844 297 l 366 297 z "},"ㅂ":{"ha":0,"x_min":0,"x_max":0,"o":"m 365 840 l 217 840 l 217 168 l 991 168 l 991 840 l 841 840 l 841 633 l 365 633 z m 365 300 l 365 502 l 841 502 l 841 300 z "},"ﾲ":{"ha":0,"x_min":0,"x_max":0,"o":"m 365 840 l 217 840 l 217 168 l 991 168 l 991 840 l 841 840 l 841 633 l 365 633 z m 365 300 l 365 502 l 841 502 l 841 300 z "},"ㅃ":{"ha":0,"x_min":0,"x_max":0,"o":"m 313 827 l 175 827 l 175 171 l 589 171 l 589 827 l 450 827 l 450 625 l 313 625 z m 313 293 l 313 503 l 450 503 l 450 293 z m 773 827 l 633 827 l 633 171 l 1048 171 l 1048 827 l 909 827 l 909 625 l 773 625 z m 773 293 l 773 503 l 909 503 l 909 293 z "},"ﾳ":{"ha":0,"x_min":0,"x_max":0,"o":"m 313 827 l 175 827 l 175 171 l 589 171 l 589 827 l 450 827 l 450 625 l 313 625 z m 313 293 l 313 503 l 450 503 l 450 293 z m 773 827 l 633 827 l 633 171 l 1048 171 l 1048 827 l 909 827 l 909 625 l 773 625 z m 773 293 l 773 503 l 909 503 l 909 293 z "},"ㅄ":{"ha":0,"x_min":0,"x_max":0,"o":"m 925 608 l 925 831 l 783 831 l 783 608 b 589 279 781 475 728 343 l 589 827 l 450 827 l 450 625 l 313 625 l 313 827 l 175 827 l 175 171 l 589 171 l 589 227 l 637 157 b 854 372 744 201 814 277 b 1069 157 892 277 961 201 l 1146 267 b 925 608 987 326 924 467 z m 313 293 l 313 503 l 450 503 l 450 293 z "},"ﾴ":{"ha":0,"x_min":0,"x_max":0,"o":"m 925 608 l 925 831 l 783 831 l 783 608 b 589 279 781 475 728 343 l 589 827 l 450 827 l 450 625 l 313 625 l 313 827 l 175 827 l 175 171 l 589 171 l 589 227 l 637 157 b 854 372 744 201 814 277 b 1069 157 892 277 961 201 l 1146 267 b 925 608 987 326 924 467 z m 313 293 l 313 503 l 450 503 l 450 293 z "},"ㅅ":{"ha":0,"x_min":0,"x_max":0,"o":"m 678 658 l 678 844 l 530 844 l 530 658 b 159 271 529 469 399 321 l 232 151 b 605 420 408 193 537 287 b 978 151 672 287 802 193 l 1050 271 b 678 658 810 321 678 469 z "},"ﾵ":{"ha":0,"x_min":0,"x_max":0,"o":"m 678 658 l 678 844 l 530 844 l 530 658 b 159 271 529 469 399 321 l 232 151 b 605 420 408 193 537 287 b 978 151 672 287 802 193 l 1050 271 b 678 658 810 321 678 469 z "},"ㅆ":{"ha":0,"x_min":0,"x_max":0,"o":"m 465 693 l 465 812 l 315 812 l 315 694 b 88 305 313 549 256 381 l 172 195 b 392 454 283 248 353 343 b 614 179 430 339 500 235 b 838 453 730 235 800 337 b 1059 195 876 342 946 249 l 1142 308 b 917 694 972 380 917 541 l 917 812 l 764 812 l 764 693 b 614 340 764 571 722 432 b 465 693 505 433 464 574 z "},"ﾶ":{"ha":0,"x_min":0,"x_max":0,"o":"m 465 693 l 465 812 l 315 812 l 315 694 b 88 305 313 549 256 381 l 172 195 b 392 454 283 248 353 343 b 614 179 430 339 500 235 b 838 453 730 235 800 337 b 1059 195 876 342 946 249 l 1142 308 b 917 694 972 380 917 541 l 917 812 l 764 812 l 764 693 b 614 340 764 571 722 432 b 465 693 505 433 464 574 z "},"ㅇ":{"ha":0,"x_min":0,"x_max":0,"o":"m 601 844 b 212 500 385 844 210 700 b 601 157 210 302 385 157 b 993 500 818 157 991 302 b 601 844 991 700 818 844 z m 601 713 b 846 500 739 713 845 628 b 601 283 845 373 739 283 b 355 500 464 283 354 373 b 601 713 354 628 464 713 z "},"ﾷ":{"ha":0,"x_min":0,"x_max":0,"o":"m 601 844 b 212 500 385 844 210 700 b 601 157 210 302 385 157 b 993 500 818 157 991 302 b 601 844 991 700 818 844 z m 601 713 b 846 500 739 713 845 628 b 601 283 845 373 739 283 b 355 500 464 283 354 373 b 601 713 354 628 464 713 z "},"ㅈ":{"ha":0,"x_min":0,"x_max":0,"o":"m 682 666 l 682 716 l 1000 716 l 1000 838 l 221 838 l 221 716 l 530 716 l 530 666 b 180 274 530 479 408 328 l 251 157 b 606 439 421 203 544 301 b 963 157 668 301 791 203 l 1034 274 b 682 666 804 328 682 479 z "},"ﾸ":{"ha":0,"x_min":0,"x_max":0,"o":"m 682 666 l 682 716 l 1000 716 l 1000 838 l 221 838 l 221 716 l 530 716 l 530 666 b 180 274 530 479 408 328 l 251 157 b 606 439 421 203 544 301 b 963 157 668 301 791 203 l 1034 274 b 682 666 804 328 682 479 z "},"ㅉ":{"ha":0,"x_min":0,"x_max":0,"o":"m 452 708 l 452 722 l 589 722 l 589 844 l 136 844 l 136 722 l 302 722 l 302 708 b 73 288 302 538 247 363 l 163 167 b 370 392 262 214 328 294 b 614 151 412 279 488 197 b 859 391 741 197 817 279 b 1063 167 899 295 964 216 l 1153 288 b 926 708 979 366 925 538 l 926 722 l 1090 722 l 1090 844 l 639 844 l 639 722 l 777 722 l 777 708 b 614 315 777 528 736 387 b 452 708 492 387 452 528 z "},"ﾹ":{"ha":0,"x_min":0,"x_max":0,"o":"m 452 708 l 452 722 l 589 722 l 589 844 l 136 844 l 136 722 l 302 722 l 302 708 b 73 288 302 538 247 363 l 163 167 b 370 392 262 214 328 294 b 614 151 412 279 488 197 b 859 391 741 197 817 279 b 1063 167 899 295 964 216 l 1153 288 b 926 708 979 366 925 538 l 926 722 l 1090 722 l 1090 844 l 639 844 l 639 722 l 777 722 l 777 708 b 614 315 777 528 736 387 b 452 708 492 387 452 528 z "},"ㅊ":{"ha":0,"x_min":0,"x_max":0,"o":"m 690 585 l 690 606 l 994 606 l 994 730 l 678 730 l 678 909 l 526 909 l 526 730 l 210 730 l 210 606 l 510 606 l 510 585 b 168 251 510 425 397 294 l 239 136 b 601 396 416 174 541 265 b 963 136 660 265 785 174 l 1034 251 b 690 585 804 294 690 425 z "},"ﾺ":{"ha":0,"x_min":0,"x_max":0,"o":"m 690 585 l 690 606 l 994 606 l 994 730 l 678 730 l 678 909 l 526 909 l 526 730 l 210 730 l 210 606 l 510 606 l 510 585 b 168 251 510 425 397 294 l 239 136 b 601 396 416 174 541 265 b 963 136 660 265 785 174 l 1034 251 b 690 585 804 294 690 425 z "},"ㅋ":{"ha":0,"x_min":0,"x_max":0,"o":"m 1000 840 l 231 840 l 231 718 l 846 718 l 846 545 l 201 515 l 218 382 l 846 427 l 846 159 l 1000 159 z "},"ﾻ":{"ha":0,"x_min":0,"x_max":0,"o":"m 1000 840 l 231 840 l 231 718 l 846 718 l 846 545 l 201 515 l 218 382 l 846 427 l 846 159 l 1000 159 z "},"ㅌ":{"ha":0,"x_min":0,"x_max":0,"o":"m 990 829 l 216 829 l 216 168 l 1002 168 l 1002 290 l 365 290 l 365 442 l 981 442 l 981 566 l 365 566 l 365 707 l 990 707 z "},"ﾼ":{"ha":0,"x_min":0,"x_max":0,"o":"m 990 829 l 216 829 l 216 168 l 1002 168 l 1002 290 l 365 290 l 365 442 l 981 442 l 981 566 l 365 566 l 365 707 l 990 707 z "},"ㅍ":{"ha":0,"x_min":0,"x_max":0,"o":"m 1005 827 l 205 827 l 205 705 l 342 705 l 342 281 l 187 281 l 187 159 l 1024 159 l 1024 281 l 871 281 l 871 705 l 1005 705 z m 492 281 l 492 705 l 719 705 l 719 281 z "},"ﾽ":{"ha":0,"x_min":0,"x_max":0,"o":"m 1005 827 l 205 827 l 205 705 l 342 705 l 342 281 l 187 281 l 187 159 l 1024 159 l 1024 281 l 871 281 l 871 705 l 1005 705 z m 492 281 l 492 705 l 719 705 l 719 281 z "},"ㅎ":{"ha":0,"x_min":0,"x_max":0,"o":"m 1015 768 l 682 768 l 682 924 l 532 924 l 532 768 l 195 768 l 195 643 l 1015 643 z m 606 572 b 239 255 473 391 376 255 b 456 437 372 255 274 437 b 553 574 589 437 686 574 b NaN NaN 651 574 469 NaN z m NaN NaN b NaN NaN NaN NaN NaN NaN b NaN NaN NaN NaN NaN NaN b NaN NaN NaN NaN NaN NaN b NaN NaN NaN NaN NaN NaN z "},"ﾾ":{"ha":0,"x_min":0,"x_max":0,"o":"m 1015 768 l 682 768 l 682 924 l 532 924 l 532 768 l 195 768 l 195 643 l 1015 643 z m 606 572 b 239 255 473 391 376 255 b 456 437 372 255 274 437 b 553 574 589 437 686 574 b NaN NaN 651 574 469 NaN z m NaN NaN b NaN NaN NaN NaN NaN NaN b NaN NaN NaN NaN NaN NaN b NaN NaN NaN NaN NaN NaN b NaN NaN NaN NaN NaN NaN z "},"ㅏ":{"ha":0,"x_min":0,"x_max":0,"o":"m 637 1089 l 487 1089 l 487 -118 l 637 -118 l 637 491 l 905 491 l 905 614 l 637 614 z "},"ￂ":{"ha":0,"x_min":0,"x_max":0,"o":"m 637 1089 l 487 1089 l 487 -118 l 637 -118 l 637 491 l 905 491 l 905 614 l 637 614 z "},"ㅐ":{"ha":0,"x_min":0,"x_max":0,"o":"m 844 1093 l 701 1093 l 701 625 l 521 625 l 521 1073 l 1093 1073 l 1093 1253 l 476 1253 l 476 1396 z "},"ￃ":{"ha":0,"x_min":0,"x_max":0,"o":"m 844 1093 l 701 1093 l 701 625 l 521 625 l 521 1073 l 1093 1073 l 1093 1253 l 476 1253 l 476 1396 z "},"ㅑ":{"ha":0,"x_min":0,"x_max":0,"o":"m 867 768 l 606 768 l 606 1092 l 454 1092 l 454 -117 l 606 -117 l 606 300 l 867 300 l 867 426 l 606 426 l 606 643 l 867 643 z "},"ￄ":{"ha":0,"x_min":0,"x_max":0,"o":"m 867 768 l 606 768 l 606 1092 l 454 1092 l 454 -117 l 606 -117 l 606 300 l 867 300 l 867 426 l 606 426 l 606 643 l 867 643 z "},"ㅒ":{"ha":0,"x_min":0,"x_max":0,"o":"m 838 1090 l 693 1090 l 693 787 l 521 787 l 521 1073 l 378 1073 l 378 -75 l 521 -75 l 521 320 l 693 320 l 693 -119 l 838 -119 z m 521 445 l 521 663 l 693 663 l 693 445 z "},"ￅ":{"ha":0,"x_min":0,"x_max":0,"o":"m 838 1090 l 693 1090 l 693 787 l 521 787 l 521 1073 l 378 1073 l 378 -75 l 521 -75 l 521 320 l 693 320 l 693 -119 l 838 -119 z m 521 445 l 521 663 l 693 663 l 693 445 z "},"ㅓ":{"ha":0,"x_min":0,"x_max":0,"o":"m 799 1092 l 648 1092 l 648 625 l 377 625 l 377 500 l 648 500 l 648 -117 l 799 -117 z "},"ￆ":{"ha":0,"x_min":0,"x_max":0,"o":"m 799 1092 l 648 1092 l 648 625 l 377 625 l 377 500 l 648 500 l 648 -117 l 799 -117 z "},"ㅔ":{"ha":0,"x_min":0,"x_max":0,"o":"m 887 1093 l 742 1093 l 742 -117 l 887 -117 z m 629 1072 l 487 1072 l 487 627 l 292 627 l 292 502 l 487 502 l 487 -77 l 629 -77 z "},"ￇ":{"ha":0,"x_min":0,"x_max":0,"o":"m 887 1093 l 742 1093 l 742 -117 l 887 -117 z m 629 1072 l 487 1072 l 487 627 l 292 627 l 292 502 l 487 502 l 487 -77 l 629 -77 z "},"ㅕ":{"ha":0,"x_min":0,"x_max":0,"o":"m 802 1090 l 651 1090 l 651 781 l 376 781 l 376 658 l 651 658 l 651 446 l 376 446 l 376 320 l 651 320 l 651 -117 l 802 -117 z "},"ￊ":{"ha":0,"x_min":0,"x_max":0,"o":"m 802 1090 l 651 1090 l 651 781 l 376 781 l 376 658 l 651 658 l 651 446 l 376 446 l 376 320 l 651 320 l 651 -117 l 802 -117 z "},"ㅖ":{"ha":0,"x_min":0,"x_max":0,"o":"m 882 1089 l 738 1089 l 738 -119 l 882 -119 z m 629 1069 l 487 1069 l 487 780 l 282 780 l 282 656 l 487 656 l 487 450 l 277 450 l 277 327 l 487 327 l 487 -77 l 629 -77 z "},"ￋ":{"ha":0,"x_min":0,"x_max":0,"o":"m 882 1089 l 738 1089 l 738 -119 l 882 -119 z m 629 1069 l 487 1069 l 487 780 l 282 780 l 282 656 l 487 656 l 487 450 l 277 450 l 277 327 l 487 327 l 487 -77 l 629 -77 z "},"ㅗ":{"ha":0,"x_min":0,"x_max":0,"o":"m 1157 362 l 673 362 l 673 848 l 524 848 l 524 362 l 43 362 l 43 239 l 1157 239 z "},"ￌ":{"ha":0,"x_min":0,"x_max":0,"o":"m 1157 362 l 673 362 l 673 848 l 524 848 l 524 362 l 43 362 l 43 239 l 1157 239 z "},"ㅘ":{"ha":-151,"x_min":0,"x_max":0,"o":"m 498 715 l 351 715 l 351 300 b 42 296 241 296 135 296 l 58 171 b 806 220 270 171 555 178 l 792 328 b 498 305 699 317 599 309 z m 1002 1090 z "},"ￍ":{"ha":-151,"x_min":0,"x_max":0,"o":"m 498 715 l 351 715 l 351 300 b 42 296 241 296 135 296 l 58 171 b 806 220 270 171 555 178 l 792 328 b 498 305 699 317 599 309 z m 1002 1090 z "},"ㅙ":{"ha":0,"x_min":0,"x_max":0,"o":"m 444 715 l 304 715 l 304 330 b 53 326 211 326 123 326 l 68 202 b 680 244 232 203 487 212 l 667 355 b 444 336 600 347 522 340 z m 1118 1093 l 971 1093 l 971 608 l 863 608 l 863 1077 l 722 1077 l 722 -73 l 863 -73 l 863 483 l 971 483 l 971 -117 l 1118 -117 z "},"ￎ":{"ha":0,"x_min":0,"x_max":0,"o":"m 444 715 l 304 715 l 304 330 b 53 326 211 326 123 326 l 68 202 b 680 244 232 203 487 212 l 667 355 b 444 336 600 347 522 340 z m 1118 1093 l 971 1093 l 971 608 l 863 608 l 863 1077 l 722 1077 l 722 -73 l 863 -73 l 863 483 l 971 483 l 971 -117 l 1118 -117 z "},"ㅚ":{"ha":0,"x_min":0,"x_max":0,"o":"m 564 707 l 416 707 l 416 327 b 98 323 303 323 193 323 l 118 198 b 869 244 331 198 616 203 l 857 357 b 564 332 764 345 664 336 z m 1077 1095 l 925 1095 l 925 -115 l 1077 -115 z "},"ￏ":{"ha":0,"x_min":0,"x_max":0,"o":"m 564 707 l 416 707 l 416 327 b 98 323 303 323 193 323 l 118 198 b 869 244 331 198 616 203 l 857 357 b 564 332 764 345 664 336 z m 1077 1095 l 925 1095 l 925 -115 l 1077 -115 z "},"ㅛ":{"ha":0,"x_min":0,"x_max":0,"o":"m 1162 330 l 898 330 l 898 841 l 749 841 l 749 330 l 464 330 l 464 841 l 313 841 l 313 330 l 49 330 l 49 206 l 1162 206 z "},"ￒ":{"ha":0,"x_min":0,"x_max":0,"o":"m 1162 330 l 898 330 l 898 841 l 749 841 l 749 330 l 464 330 l 464 841 l 313 841 l 313 330 l 49 330 l 49 206 l 1162 206 z "},"ㅜ":{"ha":0,"x_min":0,"x_max":0,"o":"l 1162 0 l 1162 697 l 652 697 l 652 848 l 1162 848 l 1162 1331 "},"ￓ":{"ha":0,"x_min":0,"x_max":0,"o":"l 1162 0 l 1162 697 l 652 697 l 652 848 l 1162 848 l 1162 1331 "},"ㅝ":{"ha":0,"x_min":0,"x_max":0,"o":"m 1112 1093 l 960 1093 l 960 339 l 693 339 l 693 222 l 960 222 l 960 -117 l 1112 -117 z m 66 570 l 84 448 b 380 454 175 448 275 450 l 380 -26 l 530 -26 l 530 461 b 880 496 647 468 765 479 l 869 606 b 66 570 605 575 304 571 z "},"ￔ":{"ha":0,"x_min":0,"x_max":0,"o":"m 1112 1093 l 960 1093 l 960 339 l 693 339 l 693 222 l 960 222 l 960 -117 l 1112 -117 z m 66 570 l 84 448 b 380 454 175 448 275 450 l 380 -26 l 530 -26 l 530 461 b 880 496 647 468 765 479 l 869 606 b 66 570 605 575 304 571 z "},"ㅞ":{"ha":0,"x_min":0,"x_max":0,"o":"m 1134 1093 l 989 1093 l 989 -114 l 1134 -114 z m 891 1069 l 747 1069 l 747 342 l 548 342 l 548 222 l 747 222 l 747 -80 l 891 -80 z m 57 560 l 73 445 b 311 452 141 445 224 447 l 311 -28 l 454 -28 l 454 460 b 697 488 539 467 623 476 l 688 590 b 57 560 498 567 229 560 z "},"ￕ":{"ha":0,"x_min":0,"x_max":0,"o":"m 1134 1093 l 989 1093 l 989 -114 l 1134 -114 z m 891 1069 l 747 1069 l 747 342 l 548 342 l 548 222 l 747 222 l 747 -80 l 891 -80 z m 57 560 l 73 445 b 311 452 141 445 224 447 l 311 -28 l 454 -28 l 454 460 b 697 488 539 467 623 476 l 688 590 b 57 560 498 567 229 560 z "},"ㅟ":{"ha":0,"x_min":0,"x_max":0,"o":"m 1104 1090 l 952 1090 l 952 -119 l 1104 -119 z m 91 551 l 109 427 b 425 433 206 427 313 429 l 425 -26 l 574 -26 l 574 441 b 899 472 682 447 793 457 l 891 582 b 91 551 629 553 331 549 z "},"ￖ":{"ha":0,"x_min":0,"x_max":0,"o":"m 1104 1090 l 952 1090 l 952 -119 l 1104 -119 z m 91 551 l 109 427 b 425 433 206 427 313 429 l 425 -26 l 574 -26 l 574 441 b 899 472 682 447 793 457 l 891 582 b 91 551 629 553 331 549 z "},"ㅠ":{"ha":0,"x_min":0,"x_max":0,"o":"m 1157 701 l 43 701 l 43 579 l 313 579 l 313 66 l 467 66 l 467 579 l 727 579 l 727 66 l 878 66 l 878 579 l 1157 579 z "},"ￗ":{"ha":0,"x_min":0,"x_max":0,"o":"m 1157 701 l 43 701 l 43 579 l 313 579 l 313 66 l 467 66 l 467 579 l 727 579 l 727 66 l 878 66 l 878 579 l 1157 579 z "},"ㅡ":{"ha":0,"x_min":0,"x_max":0,"o":"m 1157 578 l 43 578 l 43 453 l 1157 453 z "},"ￚ":{"ha":0,"x_min":0,"x_max":0,"o":"m 1157 578 l 43 578 l 43 453 l 1157 453 z "},"ㅢ":{"ha":-151,"x_min":0,"x_max":0,"o":"m 1088 1084 z m -121 1583 l -103 1461 l 8 1206 b -26 NaN -23 910 -24 673 z "},"ￛ":{"ha":-151,"x_min":0,"x_max":0,"o":"m 1088 1084 z m -121 1583 l -103 1461 l 8 1206 b -26 NaN -23 910 -24 673 z "},"ㅣ":{"ha":0,"x_min":0,"x_max":0,"o":"m 680 1093 l 529 1093 l 529 -115 l 680 -115 z "},"ￜ":{"ha":0,"x_min":0,"x_max":0,"o":"m 680 1093 l 529 1093 l 529 -115 l 680 -115 z "},"ㅤ":{"ha":0,"x_min":0,"x_max":0,"o":""},"ㆍ":{"ha":0,"x_min":0,"x_max":0,"o":""},"가":{"ha":0,"x_min":0,"x_max":0,"o":"m 1001 1105 l 1619 1105 l 1619 1287 l 1746 1287 l 1746 1105 "},"각":{"ha":0,"x_min":0,"x_max":0,"o":""},"갂":{"ha":0,"x_min":0,"x_max":0,"o":""},"갃":{"ha":0,"x_min":0,"x_max":0,"o":""},"간":{"ha":0,"x_min":0,"x_max":0,"o":"m 1008 1105 "},"갅":{"ha":-665,"x_min":0,"x_max":0,"o":"m -701 -471 l -551 -471 l -551 -206 l -699 -206 l -699 -647 l -633 -647 b -332 -601 -535 -647 -427 -639 l -283 -681 b -56 -494 -173 -645 -99 -578 b 172 -681 -14 -578 60 -646 l 243 -567 b 16 -298 86 -522 16 -413 l 202 -298 l 202 -182 l -315 -182 l -315 -298 l -127 -298 b -321 -556 -128 -401 -191 -504 l -349 -473 b -551 -521 -406 -503 -481 -515 z "},"갆":{"ha":0,"x_min":0,"x_max":0,"o":""},"갇":{"ha":0,"x_min":0,"x_max":0,"o":""},"갈":{"ha":-616,"x_min":0,"x_max":0,"o":"m -334 205 l -183 205 l -183 439 l -761 439 l -761 317 l -351 317 b -821 -35 -372 159 -526 24 l -764 -160 b -183 439 -399 -81 -183 118 z m 151 -176 l -651 -176 l -651 -297 l 0 -297 l 0 -389 l -650 -389 l -650 -724 l 189 -724 l 189 -604 l -500 -604 l -500 -503 l 151 -503 z "},"갉":{"ha":0,"x_min":0,"x_max":0,"o":"m 1008 1104 l 857 1104 l 857 457 l 1008 457 l 1008 719 l 1180 719 l 1180 842 l 1008 842 "},"갊":{"ha":0,"x_min":0,"x_max":0,"o":"l 256 0 l 256 171 l 382 171 l 382 0 "},"갋":{"ha":0,"x_min":0,"x_max":0,"o":""},"갌":{"ha":0,"x_min":0,"x_max":0,"o":""},"갍":{"ha":0,"x_min":0,"x_max":0,"o":""},"갎":{"ha":0,"x_min":0,"x_max":0,"o":""},"갏":{"ha":0,"x_min":0,"x_max":0,"o":""},"감":{"ha":0,"x_min":0,"x_max":0,"o":""},"갑":{"ha":0,"x_min":0,"x_max":0,"o":"m 1008 1105 "},"값":{"ha":0,"x_min":0,"x_max":0,"o":""},"갓":{"ha":0,"x_min":0,"x_max":0,"o":"m 1179 780 l 1008 780 l 1008 1105 l 857 1105 l 857 296 l 1008 296 l 1008 656 l 1179 656 b 1534 472 1179 155 1534 259 b 1860 NaN 1534 705 1860 NaN z m 1881 NaN l 1925 NaN b 2103 NaN 1881 NaN 2028 NaN b 2513 NaN 2177 NaN 2324 NaN l 2574 NaN b 2178 NaN 2328 NaN 2178 NaN z "},"갔":{"ha":0,"x_min":0,"x_max":0,"o":""},"강":{"ha":0,"x_min":0,"x_max":0,"o":""},"갖":{"ha":0,"x_min":0,"x_max":0,"o":"l -685 0 l -685 151 l -416 151 l -416 321 l -293 321 l -293 151 "},"갗":{"ha":0,"x_min":0,"x_max":0,"o":"m 1179 836 l 1008 836 l 1008 1105 l 857 1105 l 857 434 l 1008 434 l 1008 712 l 1179 712 "},"갘":{"ha":0,"x_min":0,"x_max":0,"o":""},"같":{"ha":258,"x_min":0,"x_max":0,"o":"m -331 180 l -911 180 l -911 61 l -499 61 b -970 -283 -517 -94 -663 -227 l -906 -404 b -331 180 -537 -331 -332 -137 z m 4 -431 l -798 -431 l -798 -945 l 33 -945 l 33 -833 l -646 -833 l -646 -741 l -8 -741 l -8 -632 l -646 -632 l -646 -543 l 4 -543 z "},"갚":{"ha":0,"x_min":0,"x_max":0,"o":"m 1008 1104 l 857 1104 l 857 434 l 1008 434 l 1008 711 l 1179 711 l 1179 831 l 1008 831 "},"갛":{"ha":0,"x_min":0,"x_max":0,"o":""},"개":{"ha":-145,"x_min":0,"x_max":0,"o":"m 1093 1105 z "},"객":{"ha":0,"x_min":0,"x_max":0,"o":"l -290 0 l -290 -129 l -23 -129 l -23 -271 l -713 -271 l -713 -129 l -414 -129 l -414 0 l -719 0 l -719 144 m -719 94 l -1564 94 l -1564 -28 l -869 -28 l -869 -362 l -719 -362 b -1552 414 -1233 777 -1413 652 b NaN NaN -1643 486 -1755 NaN l NaN NaN b NaN NaN NaN NaN NaN NaN z "},"갞":{"ha":0,"x_min":0,"x_max":0,"o":"l -290 0 l -290 -129 l -23 -129 l -23 -271 l -693 -271 l -693 -129 l -411 -129 l -411 0 l -700 0 l -700 144 b -1527 395 -1214 758 -1392 632 b NaN NaN -1615 467 -1727 NaN l NaN NaN b NaN NaN NaN NaN NaN NaN "},"갟":{"ha":-288,"x_min":0,"x_max":0,"o":""},"갠":{"ha":0,"x_min":0,"x_max":0,"o":"l -357 0 l -357 -129 l -23 -129 l -23 -271 l -876 -271 l -876 -129 l -479 -129 l -479 0 l -914 0 l -914 144 m -1431 940 l -1910 940 l -1910 821 l -1586 821 b -1967 396 -1609 634 -1729 494 l -1893 286 b -1431 940 -1576 420 -1431 639 z m -879 -15 l -1590 -15 l -1590 254 l -1740 254 l -1740 -138 l -879 -138 z "},"갡":{"ha":-514,"x_min":0,"x_max":0,"o":"l -288 0 l -288 -129 l -23 -129 l -23 -271 l -685 -271 l -685 -129 l -408 -129 l -408 0 l -690 0 l -690 144 "},"갢":{"ha":-259,"x_min":0,"x_max":0,"o":""},"갣":{"ha":-514,"x_min":0,"x_max":0,"o":"l -293 0 l -293 -129 l -20 -129 l -20 -271 l -701 -271 l -701 -129 l -415 -129 l -415 0 l -712 0 l -712 144 "},"갤":{"ha":0,"x_min":0,"x_max":0,"o":"l -259 0 l -259 -129 l -23 -129 l -23 -271 l -610 -271 l -610 -129 l -378 -129 l -378 0 l -620 0 l -620 144 b -1277 410 -1137 692 -1160 530 b NaN NaN -1508 334 -1438 224 l NaN NaN b NaN NaN NaN NaN NaN NaN m NaN NaN l NaN NaN l NaN NaN l NaN NaN l NaN NaN l NaN NaN l NaN NaN l NaN NaN l NaN NaN l NaN NaN l NaN NaN l NaN NaN z "},"갥":{"ha":-260,"x_min":0,"x_max":0,"o":""},"갦":{"ha":-260,"x_min":0,"x_max":0,"o":""},"갧":{"ha":-517,"x_min":0,"x_max":0,"o":"l -259 0 l -259 -129 l -23 -129 l -23 -271 l -618 -271 l -618 -129 l -380 -129 l -380 0 l -625 0 l -625 144 "},"갨":{"ha":0,"x_min":0,"x_max":0,"o":"l -260 0 l -260 -129 l -23 -129 l -23 111 l 106 111 l 106 -136 l 250 -136 b -292 144 -267 422 -292 261 b -522 237 -292 24 -522 -53 "},"갩":{"ha":-260,"x_min":0,"x_max":0,"o":""},"갪":{"ha":0,"x_min":0,"x_max":0,"o":""},"갫":{"ha":-255,"x_min":0,"x_max":0,"o":""},"갬":{"ha":-514,"x_min":0,"x_max":0,"o":"l -288 0 l -288 -129 l -23 -129 l -23 -271 l -692 -271 l -692 -129 l -408 -129 l -408 0 l -700 0 l -700 144 m -186 -528 l 429 -528 l 429 -1355 l -20 -1355 l -20 -528 z m -699 -198 l -168 -198 l -168 -406 l -699 -406 z "},"갭":{"ha":0,"x_min":0,"x_max":0,"o":"l -279 0 l -279 -129 l -23 -129 l -23 -271 l -654 -271 l -654 -129 l -401 -129 l -401 0 l -662 0 l -662 144 m -1177 730 l -1655 730 l -1655 606 l -1333 606 b -1710 209 -1358 430 -1476 298 l -1636 98 b -1177 730 -1324 222 -1177 430 z m -1337 92 l -1337 -57 l -1830 -57 l -1830 768 l -1337 768 l -1337 618 l -1463 618 l -1463 92 l -937 92 l -937 -37 z "},"갮":{"ha":-278,"x_min":0,"x_max":0,"o":""},"갯":{"ha":-305,"x_min":0,"x_max":0,"o":""},"갰":{"ha":-90,"x_min":0,"x_max":0,"o":"l -294 0 l -294 -129 l -23 -129 l -23 -271 l -688 -271 l -688 -129 l -416 -129 l -416 0 l -692 0 l -692 144 m -1206 750 l -1686 750 l -1686 627 l -1360 627 b -1743 222 -1386 448 -1510 313 l -1668 111 b -1206 750 -1356 237 -1204 448 z "},"갱":{"ha":-300,"x_min":0,"x_max":0,"o":""},"갲":{"ha":-514,"x_min":0,"x_max":0,"o":"l 281 0 l 281 129 l -7 129 l -7 273 m 521 -393 z "},"갳":{"ha":-277,"x_min":0,"x_max":0,"o":""},"갴":{"ha":-514,"x_min":0,"x_max":0,"o":"l -288 0 l -288 -129 l -23 -129 l -23 -271 l -692 -271 l -692 -129 l -411 -129 l -411 0 l -700 0 l -700 144 "},"갵":{"ha":0,"x_min":0,"x_max":0,"o":"l -264 0 l -264 -129 l -23 -129 l -23 -271 l -632 -271 l -632 -129 l -387 -129 l -387 0 l -639 0 l -639 144 b -1296 414 -1156 707 -1180 540 b NaN NaN -1530 334 -1458 225 l NaN NaN b NaN NaN NaN NaN NaN NaN "},"갶":{"ha":0,"x_min":0,"x_max":0,"o":"l 283 0 l 283 129 l -7 129 l -7 273 l -521 273 l -521 882 l 3 882 l 3 217 l 167 217 l 167 4 l 380 4 l 380 167 m -160 -46 l -160 167 l 71 167 l 71 -46 z "},"갷":{"ha":-517,"x_min":0,"x_max":0,"o":"l -255 0 l -255 -129 l -23 -129 l -23 -271 l -595 -271 l -595 -129 l -377 -129 l -377 0 l -654 0 l -654 144 "},"갸":{"ha":0,"x_min":0,"x_max":0,"o":"m 1181 792 l 1001 792 l 1001 1105 l 1421 1105 l 1421 1286 l 1546 1286 l 1546 1105 l 1786 1105 l 1786 1286 "},"갹":{"ha":0,"x_min":0,"x_max":0,"o":"m 1179 933 l 1008 933 l 1008 1105 l 857 1105 l 857 391 l 1008 391 l 1008 548 l 1179 548 l 1179 673 l 1008 673 l 1008 812 l 1179 812 "},"갺":{"ha":0,"x_min":0,"x_max":0,"o":"m 1176 945 l 1008 945 l 1008 1105 l 857 1105 l 857 407 l 1008 407 l 1008 566 l 1145 566 l 1145 734 "},"갻":{"ha":0,"x_min":0,"x_max":0,"o":""},"갼":{"ha":0,"x_min":0,"x_max":0,"o":"m 1179 890 l 1008 890 l 1008 1105 l 854 1105 l 854 221 l 1008 221 l 1008 469 l 1181 469 l 1181 640 "},"갽":{"ha":667,"x_min":0,"x_max":0,"o":"m 509 -88 l 1549 -88 l 1549 -258 l 1702 -258 l 1702 -408 l 1038 -408 l 1038 -258 l 1175 -258 l 1175 -88 l 1295 -88 l 1295 -258 l 1427 -258 l 1427 -88 z m 556 -559 l 408 -559 l 408 -1000 l 473 -1000 b 774 -954 572 -1000 680 -991 l 823 -1034 b 1051 -846 934 -998 1008 -930 b 1279 -1034 1093 -931 1166 -998 l 1350 -920 b 1123 -651 1193 -875 1122 -766 l 1309 -651 l 1309 -534 l 792 -534 l 792 -651 l 979 -651 b 785 -909 979 -754 916 -857 l 758 -826 b 556 -873 701 -855 626 -868 z "},"갾":{"ha":0,"x_min":0,"x_max":0,"o":"l -617 0 l -617 151 l -500 151 l -500 258 l -332 258 l -332 378 l -500 378 "},"갿":{"ha":0,"x_min":0,"x_max":0,"o":""},"걀":{"ha":0,"x_min":0,"x_max":0,"o":"l -616 0 l -616 151 l -494 151 l -494 321 l -374 321 l -374 151 l -255 151 l -255 321 m -760 526 l -1337 526 l -1337 404 l -928 404 b -1397 52 -949 245 -1102 111 l -1340 -73 b -760 526 -975 5 -760 205 z m -426 -90 l -1227 -90 l -1227 -210 l -576 -210 l -576 -302 l -1226 -302 l -1226 -637 l -388 -637 l -388 -517 l -1077 -517 l -1077 -416 l -426 -416 z "},"걁":{"ha":0,"x_min":0,"x_max":0,"o":"m 1008 1104 "},"걂":{"ha":0,"x_min":0,"x_max":0,"o":""},"걃":{"ha":0,"x_min":0,"x_max":0,"o":""},"걄":{"ha":0,"x_min":0,"x_max":0,"o":""},"걅":{"ha":0,"x_min":0,"x_max":0,"o":""},"걆":{"ha":0,"x_min":0,"x_max":0,"o":""},"걇":{"ha":0,"x_min":0,"x_max":0,"o":""},"걈":{"ha":0,"x_min":0,"x_max":0,"o":""},"걉":{"ha":0,"x_min":0,"x_max":0,"o":"m 1008 1105 "},"걊":{"ha":0,"x_min":0,"x_max":0,"o":""},"걋":{"ha":0,"x_min":0,"x_max":0,"o":"m 1179 910 l 1008 910 l 1008 1105 l 857 1105 l 857 294 l 1008 294 l 1008 498 l 1173 498 l 1173 669 b 1398 487 1173 167 1398 274 b 1724 NaN 1398 718 1724 NaN z m 1746 NaN "},"걌":{"ha":0,"x_min":0,"x_max":0,"o":""},"걍":{"ha":0,"x_min":0,"x_max":0,"o":"m 1176 928 l 1008 928 l 1008 1105 l 857 1105 l 857 387 l 1008 387 l 1008 543 l 1145 543 l 1145 711 "},"걎":{"ha":0,"x_min":0,"x_max":0,"o":""},"걏":{"ha":673,"x_min":0,"x_max":0,"o":"m 335 73 "},"걐":{"ha":0,"x_min":0,"x_max":0,"o":""},"걑":{"ha":130,"x_min":0,"x_max":0,"o":"m -331 60 l -201 60 l -201 -521 l -320 -521 l -320 -109 b -791 -453 -338 -264 -484 -397 l -727 -574 b -152 11 -358 -500 -153 -307 z m 183 -601 l -618 -601 l -618 -1115 l 212 -1115 l 212 -1002 l -467 -1002 l -467 -910 l 171 -910 l 171 -802 l -467 -802 l -467 -712 l 183 -712 z "},"걒":{"ha":0,"x_min":0,"x_max":0,"o":"m 1008 1104 l 857 1104 l 857 434 l 1008 434 l 1008 576 l 1143 576 l 1143 747 l 1264 747 l 1264 576 "},"걓":{"ha":0,"x_min":0,"x_max":0,"o":"m 1179 960 l 1008 960 l 1008 1105 l 857 1105 l 857 465 l 1008 465 l 1008 589 l 1135 589 l 1135 760 "},"걔":{"ha":-145,"x_min":0,"x_max":0,"o":"m 1093 1105 z m 1339 612 l 1339 307 l 1207 307 l 1207 579 l 1066 579 l 1066 -557 l 1207 -557 l 1207 -159 l 1339 -159 l 1339 -614 l 1560 -614 l 1560 -483 l 1339 -483 z "},"걕":{"ha":0,"x_min":0,"x_max":0,"o":"l -163 0 l -163 -129 l -23 -129 l -23 -271 l -713 -271 l -713 -129 l -559 -129 l -559 0 l -719 0 l -719 144 m -719 94 l -1564 94 l -1564 -28 l -869 -28 l -869 -362 l -719 -362 b -1552 414 -1233 777 -1413 652 b NaN NaN -1643 486 -1755 NaN l NaN NaN b NaN NaN NaN NaN NaN NaN "},"걖":{"ha":0,"x_min":0,"x_max":0,"o":"b -693 343 -164 -129 -23 -271 b -1095 52 -871 217 -1006 -20 l -1206 NaN b -736 NaN -891 NaN -735 NaN "},"걗":{"ha":0,"x_min":0,"x_max":0,"o":""},"걘":{"ha":0,"x_min":0,"x_max":0,"o":"l -224 0 l -224 -129 l -23 -129 l -23 -271 l -876 -271 l -876 -129 l -636 -129 l -636 0 l -914 0 l -914 144 m -1431 940 l -1910 940 l -1910 821 l -1586 821 b -1967 396 -1609 634 -1729 494 l -1893 286 b -1431 940 -1576 420 -1431 639 z m -879 -15 l -1590 -15 l -1590 254 l -1740 254 l -1740 -138 l -879 -138 z m -1187 541 l -1187 713 l -1058 713 l -1058 541 z "},"걙":{"ha":0,"x_min":0,"x_max":0,"o":"l -165 0 l -165 -129 l -23 -129 l -23 -271 l -685 -271 l -685 -129 l -540 -129 l -540 0 l -690 0 l -690 144 "},"걚":{"ha":-144,"x_min":0,"x_max":0,"o":"m -39 621 l -39 492 l 81 492 l 81 350 l -507 350 l -507 492 l -393 492 l -393 621 l -521 621 l -521 731 l -392 731 l -392 621 z "},"걛":{"ha":0,"x_min":0,"x_max":0,"o":"l -163 0 l -163 -129 l -20 -129 l -20 -271 l -701 -271 l -701 -129 l -547 -129 l -547 0 l -712 0 l -712 144 "},"걜":{"ha":0,"x_min":0,"x_max":0,"o":"l -151 0 l -151 -129 l -23 -129 l -23 -271 l -610 -271 l -610 -129 l -494 -129 l -494 0 l -620 0 l -620 144 l -1137 144 l -1137 692 l -620 692 l -620 92 l -712 92 l -712 -587 l -1044 -587 l -1044 285 l -924 285 l -924 -437 l -823 -437 l -823 241 "},"걝":{"ha":-151,"x_min":0,"x_max":0,"o":"m 198 612 l 198 483 l 326 483 l 326 608 l 454 608 l 454 476 l 500 476 l 500 -138 l 617 -138 l 617 -9 l 500 -9 z "},"걞":{"ha":-517,"x_min":0,"x_max":0,"o":"l -151 0 l -151 -129 l -23 -129 l -23 -1 l 106 -1 l 106 -136 l 250 -136 m 494 -444 l 494 114 l 608 114 l 608 243 l 494 243 z "},"걟":{"ha":-517,"x_min":0,"x_max":0,"o":"l -148 0 l -148 -129 l -23 -129 l -23 -271 l -618 -271 l -618 -129 l -495 -129 l -495 0 l -625 0 l -625 144 m -415 760 l -415 1313 l -176 1313 l -176 709 l -60 709 l -60 838 l -176 838 z "},"걠":{"ha":0,"x_min":0,"x_max":0,"o":"l -149 0 l -149 -129 l -23 -129 l -23 -3 l 106 -3 l 106 -136 l 250 -136 b -292 144 -267 422 -292 261 b -522 237 -292 24 -522 -53 m -278 -69 l -278 46 l -149 46 l -149 -69 z "},"걡":{"ha":-152,"x_min":0,"x_max":0,"o":"m 210 605 l 210 476 l 339 476 l 339 594 l 468 594 l 468 469 l 502 469 l 502 -146 l 623 -146 l 623 -18 l 502 -18 z "},"걢":{"ha":-151,"x_min":0,"x_max":0,"o":"m 213 613 l 213 484 l 340 484 l 340 609 l 469 609 l 469 477 l 500 477 l 500 -137 l 616 -137 l 616 -8 l 500 -8 "},"걣":{"ha":-145,"x_min":0,"x_max":0,"o":"m 229 617 l 229 488 l 351 488 l 351 346 l -228 346 l -228 488 l -118 488 l -118 617 l -240 617 l -240 731 l -111 731 l -111 617 z "},"걤":{"ha":-514,"x_min":0,"x_max":0,"o":"l -161 0 l -161 -129 l -23 -129 l -23 -271 l -692 -271 l -692 -129 l -543 -129 l -543 0 l -700 0 l -700 144 m -186 -524 l 429 -524 l 429 -1351 l -24 -1351 l -24 -524 z m -703 -191 l -172 -191 l -172 -401 l -703 -401 "},"걥":{"ha":0,"x_min":0,"x_max":0,"o":"l -155 0 l -155 -129 l -23 -129 l -23 3 l 106 3 l 106 -137 l 250 -137 m -266 449 l -743 449 l -743 326 l -422 326 b -799 -72 -447 149 -565 17 l -724 -183 b -266 449 -412 -58 -266 149 z m -426 -189 l -426 -338 l -918 -338 l -918 487 l -426 487 l -426 338 l -552 338 l -552 -189 l -26 -189 l -26 -317 "},"걦":{"ha":0,"x_min":0,"x_max":0,"o":""},"걧":{"ha":0,"x_min":0,"x_max":0,"o":""},"걨":{"ha":0,"x_min":0,"x_max":0,"o":"l 145 0 l 145 129 l -4 129 l -4 273 m -518 879 l -998 879 l -998 755 l -673 755 b -1055 351 -699 576 -822 442 l -981 240 b -518 879 -669 366 -517 576 "},"걩":{"ha":0,"x_min":0,"x_max":0,"o":""},"걪":{"ha":-514,"x_min":0,"x_max":0,"o":"l 148 0 l 148 129 l -7 129 l -7 273 m 521 -393 "},"걫":{"ha":0,"x_min":0,"x_max":0,"o":""},"걬":{"ha":0,"x_min":0,"x_max":0,"o":"l -161 0 l -161 -129 l -23 -129 l -23 -271 l -692 -271 l -692 -129 l -543 -129 l -543 0 l -700 0 l -700 144 "},"걭":{"ha":0,"x_min":0,"x_max":0,"o":"l -145 0 l -145 -129 l -23 -129 l -23 -5 l 106 -5 l 106 -136 l 250 -136 b -408 134 -267 427 -292 260 b NaN NaN -642 54 -570 -54 l NaN NaN b NaN NaN NaN NaN NaN NaN "},"걮":{"ha":0,"x_min":0,"x_max":0,"o":"l -164 0 l -164 -129 l -23 -129 l -23 -271 l -688 -271 l -688 338 l -164 338 l -164 -327 l 0 -327 l 0 -540 l 213 -540 l 213 -377 m -327 -590 l -327 -377 l -96 -377 l -96 -590 "},"걯":{"ha":-517,"x_min":0,"x_max":0,"o":"l -146 0 l -146 -129 l -23 -129 l -23 -271 l -595 -271 l -595 -129 l -487 -129 l -487 0 l -661 0 l -661 144 m -517 764 l -517 1347 l -407 1347 l -407 1476 l -517 1476 z "},"거":{"ha":0,"x_min":0,"x_max":0,"o":"l -479 0 l -479 -259 l -602 -259 l -602 0 l -1226 0 l -1226 151 m -1630 1246 l -2204 1246 l -2204 1127 l -1782 1127 b -2261 490 -1807 852 -1944 645 l -2182 372 b -1630 1246 -1761 581 -1632 884 z "},"걱":{"ha":0,"x_min":0,"x_max":0,"o":"m 678 1031 b 397 NaN 117 909 515 968 l NaN NaN b NaN NaN NaN NaN NaN NaN l NaN NaN l NaN NaN l NaN NaN l NaN NaN z m NaN NaN l NaN NaN l NaN NaN l NaN NaN l NaN NaN l NaN NaN l NaN NaN l NaN NaN z "},"걲":{"ha":-415,"x_min":0,"x_max":0,"o":"m -65 -685 z m 392 538 l 270 538 l 270 800 l 119 800 l 119 506 l -117 506 l -117 381 l 119 381 l 119 95 l 270 95 z m 270 43 l -133 43 l -133 -79 l 119 -79 l 119 -423 l 270 -423 z "},"걳":{"ha":-104,"x_min":0,"x_max":0,"o":"m 392 72 l 241 72 l 241 -222 l 5 -222 l 5 -347 l 241 -347 l 241 -636 l 392 -636 z "},"건":{"ha":0,"x_min":0,"x_max":0,"o":"l -362 0 l -362 -236 l -487 -236 l -487 0 l -899 0 l -899 151 m -1278 958 l -1846 958 l -1846 834 l -1442 834 b -1910 400 -1471 640 -1645 484 l -1846 279 b -1278 958 -1492 392 -1278 635 z m -868 -28 l -1545 -28 l -1545 241 l -1698 241 l -1698 -151 l -868 -151 z "},"걵":{"ha":0,"x_min":0,"x_max":0,"o":"b -220 245 -139 45 -211 144 l -31 245 l -31 368 l -555 368 l -555 245 l -365 245 b -560 9 -374 150 -437 58 l -597 100 b -811 39 -652 65 -737 46 l -454 39 l -454 1035 l -718 1035 l -718 1185 "},"걶":{"ha":-330,"x_min":0,"x_max":0,"o":"b -376 -372 -172 -145 -305 -427 l -495 NaN b 62 NaN -133 NaN 61 NaN "},"걷":{"ha":0,"x_min":0,"x_max":0,"o":"m 675 1031 l 115 1031 l 115 909 l 514 909 b 49 509 486 726 324 584 l 107 391 b 675 1031 467 491 675 712 z m 1067 1104 l 917 1104 l 917 799 l 681 799 l 681 674 l 917 674 l 917 415 l 1067 415 "},"걸":{"ha":0,"x_min":0,"x_max":0,"o":"b -357 -372 -165 -146 -294 -424 l -477 NaN b 80 NaN -119 NaN 81 NaN m 481 NaN l -326 NaN l -326 NaN l 331 NaN l 331 NaN l -324 NaN l -324 NaN l 514 NaN l 514 NaN l -174 NaN l -174 NaN l 481 NaN z "},"걹":{"ha":0,"x_min":0,"x_max":0,"o":"l -283 0 l -283 -235 l -406 -235 l -406 0 l -651 0 l -651 151 "},"걺":{"ha":-391,"x_min":0,"x_max":0,"o":"l -282 0 l -282 -235 l -132 -235 m 340 73 l 922 73 l 922 -8 l 290 -8 l 290 -412 l -233 -412 l -233 -8 z m -506 403 l -365 403 l -365 104 l -506 104 z "},"걻":{"ha":-391,"x_min":0,"x_max":0,"o":"l -275 0 l -275 -235 l -397 -235 l -397 0 l -625 0 l -625 151 m -426 469 l 144 469 l 144 388 l -488 388 l -488 256 l -1023 256 l -1023 661 l -488 661 l -488 526 l -636 526 l -636 388 z m -636 119 l -636 275 l -498 275 l -498 119 z "},"걼":{"ha":0,"x_min":0,"x_max":0,"o":"l -275 0 l -275 -235 l -397 -235 l -397 0 l -640 0 l -640 151 "},"걽":{"ha":-391,"x_min":0,"x_max":0,"o":"l -275 0 l -275 -235 l -397 -235 l -397 0 l -625 0 l -625 151 m -707 -483 l -137 -892 l -252 -629 l -336 -890 b -852 -910 -659 -905 -733 -909 l -753 -910 l -753 -648 l -511 -648 l -511 -538 l -753 -538 l -753 -456 l -486 -456 l -486 -339 l -899 -339 l -899 -861 l -476 -861 z "},"걾":{"ha":0,"x_min":0,"x_max":0,"o":"l -282 0 l -282 -235 l -132 -235 "},"걿":{"ha":0,"x_min":0,"x_max":0,"o":"l -264 0 l -264 -235 l -385 -235 l -385 0 l -614 0 l -614 151 m -1005 715 l -1562 715 l -1562 593 l -1168 593 b -1626 237 -1191 428 -1342 298 l -1573 117 b -1005 715 -1210 199 -1006 399 "},"검":{"ha":675,"x_min":0,"x_max":0,"o":"m 0 -49 l 1031 -49 l 1031 -856 l 562 -856 l 562 -49 z m -98 301 l 412 301 l 412 71 l -98 71 z "},"겁":{"ha":0,"x_min":0,"x_max":0,"o":"l -292 0 l -292 -237 l -412 -237 l -412 0 l -662 0 l -662 151 m -1051 742 l -1611 742 l -1611 618 l -1214 618 b -1675 240 -1238 446 -1387 309 l -1618 121 b -1051 742 -1251 214 -1051 420 "},"겂":{"ha":0,"x_min":0,"x_max":0,"o":"l -292 0 l -292 -237 l -412 -237 l -412 0 l -662 0 l -662 151 m -1051 742 l -1611 742 l -1611 618 l -1214 618 b -1675 240 -1238 446 -1387 309 l -1618 121 b -1051 742 -1251 214 -1051 420 z "},"것":{"ha":0,"x_min":0,"x_max":0,"o":"l -331 0 l -331 -233 l -454 -233 l -454 0 l -818 0 l -818 151 m -1210 873 l -1765 873 l -1765 753 l -1373 753 b -1828 331 -1398 563 -1546 416 l -1763 213 b -1210 873 -1398 327 -1211 549 z m -1152 199 l -1152 247 l -1302 247 l -1302 199 b -1633 -159 -1454 47 -1596 -198 b NaN NaN -1785 -20 -1784 132 z "},"겄":{"ha":0,"x_min":0,"x_max":0,"o":"m 675 1031 l 118 1031 l 118 909 l 514 909 l 514 610 l 281 610 l 281 486 l 514 486 l 514 218 l 665 218 "},"겅":{"ha":0,"x_min":0,"x_max":0,"o":"l -324 0 l -324 -229 l -449 -229 l -449 0 l -712 0 l -712 151 m -1101 777 l -1662 777 l -1662 655 l -1264 655 b -1728 250 -1289 473 -1442 328 l -1668 130 b -1101 777 -1302 232 -1101 450 z m -1118 137 b -1534 -109 -1369 137 -1534 45 b -1118 -355 -1534 -262 -1369 -355 b -704 -109 -869 -355 -704 -262 b -1118 137 -704 45 -869 137 z m -1118 19 b -854 -109 -956 19 -854 -27 b -1118 -236 -854 -191 -956 -236 b -1383 -109 -1283 -236 -1383 -191 b -1118 19 -1383 -27 -1283 19 z "},"겆":{"ha":0,"x_min":0,"x_max":0,"o":"m 694 1031 l 119 1031 l 119 909 l 530 909 b 53 530 505 736 345 595 l 107 408 b 694 1031 479 496 693 709 z m 1067 1104 "},"겇":{"ha":-351,"x_min":0,"x_max":0,"o":"m 1089 340 z m 694 1143 l 821 1143 l 821 989 l 694 989 l 694 414 l 572 414 l 572 825 b 95 449 547 654 387 513 l 149 330 b 736 947 519 415 735 628 z m 1109 1020 l 959 1020 l 959 716 l 723 716 l 723 593 l 959 593 l 959 338 l 1109 338 z "},"겈":{"ha":-392,"x_min":0,"x_max":0,"o":""},"겉":{"ha":0,"x_min":0,"x_max":0,"o":"l -293 0 l -293 -233 l -415 -233 l -415 0 l -650 0 l -650 151 m -1036 736 l -1600 736 l -1600 616 l -1202 616 b -1663 240 -1224 444 -1373 307 l -1606 121 b -1036 736 -1238 210 -1038 416 z "},"겊":{"ha":0,"x_min":0,"x_max":0,"o":"m 680 1032 l 117 1032 l 117 910 l 517 910 b 53 525 490 735 328 594 l 110 406 b 680 1032 467 498 678 715 z m 1067 1104 "},"겋":{"ha":0,"x_min":0,"x_max":0,"o":"m 663 1040 l 118 1040 l 118 921 l 500 921 b 52 555 479 751 341 621 l 103 437 b 663 1040 473 526 663 720 z m 1067 1105 "},"게":{"ha":1099,"x_min":0,"x_max":0,"o":"m -260 1196 l 845 1196 l 845 1054 l 392 1054 l 392 884 b 439 1218 425 988 439 1099 l -41 1218 l -41 1096 l 290 1096 b -103 507 267 849 151 657 l -18 400 b 343 764 156 500 271 623 l 562 764 l 562 199 l 704 199 z "},"겍":{"ha":509,"x_min":0,"x_max":0,"o":"b 779 -411 1128 -183 1008 -315 l 852 -521 b 1215 -236 1020 -450 1140 -356 l 1424 -236 l 1424 -490 l 1567 -490 l 1567 194 l 1424 194 l 1424 -114 l 1274 -114 b 1310 122 1297 -43 1310 36 "},"겎":{"ha":0,"x_min":0,"x_max":0,"o":"b 272 658 581 1008 402 886 b NaN NaN 182 732 72 NaN l NaN NaN b NaN NaN NaN NaN NaN NaN l NaN NaN l NaN NaN l NaN NaN l NaN NaN l NaN NaN l NaN NaN l NaN NaN b NaN NaN NaN NaN NaN NaN m NaN NaN l NaN NaN l NaN NaN l NaN NaN "},"겏":{"ha":0,"x_min":0,"x_max":0,"o":"m NaN 1017 l NaN 1017 l NaN 895 l NaN 895 b NaN 496 NaN 717 NaN 584 l NaN 387 b NaN 667 NaN 454 NaN 547 l NaN 667 l NaN 415 l NaN 415 l NaN 1081 l NaN 1081 l NaN 788 l NaN 788 b NaN 1017 NaN 857 NaN 934 z m NaN 1105 l NaN 1105 l NaN 401 l NaN 401 z "},"겐":{"ha":0,"x_min":0,"x_max":0,"o":"l -916 0 l -916 144 m -1168 1036 l -1310 1036 l -1310 678 l -1473 678 b -1427 944 -1442 758 -1427 846 l -1900 944 l -1900 823 l -1583 823 b -1965 401 -1608 637 -1727 497 l -1889 290 b -1534 560 -1729 357 -1611 448 l -1310 560 l -1310 179 l -1168 179 z m -869 -19 l -1576 -19 l -1576 259 l -1728 259 l -1728 -141 l -869 -141 z "},"겑":{"ha":0,"x_min":0,"x_max":0,"o":"l -345 0 l -345 784 l -582 784 l -582 926 l 75 926 l 75 236 l 218 236 "},"겒":{"ha":-148,"x_min":0,"x_max":0,"o":"m 359 374 z m 80 1295 l -381 1295 l -381 829 l -505 829 l -505 1138 b -880 761 -529 969 -642 842 l -806 652 b -441 911 -635 715 -516 800 l -229 911 l -229 731 l -87 731 l -87 1313 l -229 1313 l -229 1034 l -381 1034 b -347 1261 -359 1101 -347 1177 z m 165 1337 l 22 1337 l 22 709 l 165 709 z "},"겓":{"ha":0,"x_min":0,"x_max":0,"o":"m 1109 24 l 416 24 l 416 213 l 1099 213 l 1099 332 l 264 332 l 264 -98 l 1109 -98 l 581 -98 l 581 1019 l 323 1019 l 323 1161 l 1000 1161 l 1000 446 l 1143 446 z "},"겔":{"ha":0,"x_min":0,"x_max":0,"o":"l -620 0 l -620 144 l -872 144 l -872 739 l -1081 739 l -1081 882 l -829 882 l -829 825 l -917 825 l -917 146 l -1249 146 l -1249 1019 l -1130 1019 l -1130 298 l -1031 298 l -1031 975 "},"겕":{"ha":-471,"x_min":0,"x_max":0,"o":"l -629 0 l -629 144 l -882 144 l -882 749 l -1099 749 l -1099 891 m -846 827 l -1257 827 l -1257 705 l -997 705 l -997 292 l -846 292 z "},"겖":{"ha":0,"x_min":0,"x_max":0,"o":"l -632 0 l -632 144 b -934 599 -884 751 -812 831 b NaN NaN -1011 669 -1122 NaN l NaN NaN b NaN NaN NaN NaN NaN NaN l NaN NaN l NaN NaN l NaN NaN "},"겗":{"ha":811,"x_min":0,"x_max":0,"o":"m 483 994 l 911 994 l 911 850 l 282 850 l 282 994 l 30 994 l 30 1599 l -187 1599 l -187 1742 z "},"겘":{"ha":136,"x_min":0,"x_max":0,"o":"l -635 0 l -635 144 m -887 754 l -1029 754 l -1029 492 l -1177 492 b -1066 506 -1156 557 -1145 628 b NaN NaN -1298 429 -1227 319 l NaN NaN b NaN NaN NaN NaN NaN NaN l NaN NaN l NaN NaN l NaN NaN z "},"겙":{"ha":1108,"x_min":0,"x_max":0,"o":"m 483 991 l 495 991 l 495 490 l 1017 490 l 1017 346 l 388 346 l 388 490 l 136 490 l 136 1095 l -81 1095 l -81 1237 z "},"겚":{"ha":0,"x_min":0,"x_max":0,"o":"b -302 455 -252 608 -180 687 b NaN NaN -379 526 -490 NaN l NaN NaN b NaN NaN NaN NaN NaN NaN l NaN NaN l NaN NaN l NaN NaN "},"겛":{"ha":-194,"x_min":0,"x_max":0,"o":"l -625 0 l -625 144 m -878 745 l -1020 745 l -1020 486 l -1168 486 b -1135 700 -1146 550 -1135 621 l -1606 700 l -1606 581 l -1294 581 b -1666 222 -1317 419 -1433 297 l -1595 113 b -1227 366 -1425 172 -1303 255 l -1020 366 l -1020 159 l -878 159 z m -566 23 z "},"겜":{"ha":581,"x_min":0,"x_max":0,"o":"m 667 -670 l 1686 -670 l 1686 -918 l 1828 -918 l 1828 -1743 l 1378 -1743 l 1378 -918 z m 703 -589 l 1229 -589 l 1229 -796 l 703 -796 z m 1378 288 l 1234 288 l 1234 -416 l 1378 -416 z "},"겝":{"ha":0,"x_min":0,"x_max":0,"o":"l 576 0 l 576 1021 l 347 1021 l 347 1164 l 986 1164 l 986 1021 l 700 1021 l 700 869 b 734 1097 723 938 734 1014 m 571 461 l 422 461 l 422 -27 l 1246 -27 l 1246 461 l 1097 461 l 1097 336 l 571 336 z m 571 94 l 571 217 l 1097 217 l 1097 94 z m 1246 1180 l 1103 1180 l 1103 509 l 1246 509 z "},"겞":{"ha":0,"x_min":0,"x_max":0,"o":"l 92 0 l 92 1012 l -125 1012 l -125 1154 l 502 1154 l 502 1012 l 216 1012 l 216 860 b 250 1088 239 928 250 1004 m 762 1171 l 618 1171 l 618 509 l 762 509 z "},"겟":{"ha":0,"x_min":0,"x_max":0,"o":"l -803 0 l -803 144 m -1055 922 l -1198 922 l -1198 602 l -1351 602 b -1316 841 -1327 675 -1316 755 l -1792 841 l -1792 720 l -1470 720 b -1851 288 -1494 529 -1617 385 l -1773 175 b -1405 480 -1602 251 -1480 353 l -1198 480 l -1198 247 l -1055 247 z m -1152 163 l -1152 208 l -1303 208 l -1303 163 b -1710 -153 -1303 20 -1461 -118 l -1651 -273 b -1227 -27 -1457 -242 -1305 -152 b -803 -273 -1151 -152 -997 -242 l -745 -153 b -1152 163 -991 -118 -1152 20 z "},"겠":{"ha":-604,"x_min":0,"x_max":0,"o":"m 583 1019 l 104 1019 l 104 897 l 427 897 b 46 484 401 713 280 576 l 121 372 b 484 654 288 442 408 536 l 694 654 l 694 420 l 837 420 l 837 1080 l 694 1080 l 694 774 l 544 774 b 583 1019 570 848 583 930 z m 1089 1104 l 945 1104 l 945 403 l 1089 403 z "},"겡":{"ha":0,"x_min":0,"x_max":0,"o":"m 581 1012 l 100 1012 l 100 891 l 426 891 b 39 468 401 704 279 564 l 115 358 b 488 652 289 430 412 528 l 694 652 l 694 404 l 837 404 l 837 1080 l 694 1080 l 694 774 l 545 774 b 581 1012 569 846 581 926 z m 1089 1104 l 945 1104 l 945 363 l 1089 363 z m 680 355 b 255 119 418 354 255 266 b 680 -114 255 -27 418 -114 b 1101 119 939 -114 1101 -27 b 680 355 1101 266 939 354 z m 680 239 b 951 119 849 239 951 197 b 680 -1 951 43 849 -1 b 406 119 509 -1 404 43 b 680 239 404 197 509 239 z "},"겢":{"ha":0,"x_min":0,"x_max":0,"o":"l 581 0 l 581 1019 l 343 1019 l 343 1161 l 1000 1161 l 1000 471 l 1143 471 m 1157 414 l 315 414 l 315 290 l 655 290 "},"겣":{"ha":0,"x_min":0,"x_max":0,"o":"m -180 701 l -646 701 l -646 579 l -336 579 b -716 178 -360 403 -472 268 l -637 69 b -271 346 -465 137 -345 229 l -61 346 l -61 145 l 81 145 l 81 754 l -61 754 l -61 469 l -214 469 b -180 701 -192 539 -181 616 z m 334 779 l 190 779 l 190 81 l 334 81 z "},"겤":{"ha":0,"x_min":0,"x_max":0,"o":"b 869 1185 581 1019 749 1090 b NaN NaN 944 1305 NaN NaN l NaN NaN l NaN NaN l NaN NaN l NaN NaN l NaN NaN l NaN NaN l NaN NaN b NaN NaN NaN NaN NaN NaN m NaN NaN l NaN NaN l NaN NaN l NaN NaN z m NaN NaN l NaN NaN l NaN NaN l NaN NaN l NaN NaN l NaN NaN l NaN NaN l NaN NaN l NaN NaN l NaN NaN z "},"겥":{"ha":0,"x_min":0,"x_max":0,"o":"l -635 0 l -635 144 m -887 754 l -1029 754 l -1029 498 l -1176 498 b -1145 709 -1155 562 -1145 632 l -1615 709 l -1615 590 l -1303 590 b -1678 222 -1326 425 -1442 302 l -1605 113 b -1234 377 -1432 175 -1309 262 l -1029 377 l -1029 153 l -887 153 z "},"겦":{"ha":0,"x_min":0,"x_max":0,"o":"m 1099 363 l 244 363 l 244 244 l 408 244 l 408 20 l 632 20 l 632 183 l 114 183 l 114 958 l -123 958 l -123 1100 l 533 1100 l 533 411 l 677 411 z m 146 16 l 146 240 l 377 240 l 377 16 z "},"겧":{"ha":0,"x_min":0,"x_max":0,"o":"b 991 1120 1112 372 1015 1293 b 713 796 879 991 639 906 l NaN NaN b NaN NaN NaN NaN NaN NaN l NaN NaN l NaN NaN l NaN NaN l NaN NaN l NaN NaN l NaN NaN l NaN NaN b NaN NaN NaN NaN NaN NaN m NaN NaN l NaN NaN l NaN NaN l NaN NaN z "},"겨":{"ha":0,"x_min":0,"x_max":0,"o":"m 666 975 l 90 975 l 90 856 l 514 856 b 33 218 486 579 336 371 l 111 99 b 623 662 398 239 554 435 l 917 662 l 917 452 l 605 452 l 605 330 l 917 330 l 917 -119 l 1067 -119 l 1067 1105 l 917 1105 l 917 783 l 651 783 b 666 975 661 845 666 909 z "},"격":{"ha":0,"x_min":0,"x_max":0,"o":"m 693 1027 l 123 1027 l 123 903 l 532 903 b 57 503 506 724 340 578 l 114 382 b 644 779 378 453 562 588 l 917 779 l 917 640 l 623 640 l 623 518 l 917 518 l 917 376 l 1067 376 l 1067 1104 l 917 1104 l 917 899 l 682 899 b 693 1027 689 940 693 982 l 1067 1027 l 1067 324 l 746 324 l 746 475 z "},"겪":{"ha":-415,"x_min":0,"x_max":0,"o":"l 692 0 l 692 1031 l 563 1031 l 563 1181 l 1268 1181 l 1268 1031 l 1074 1031 l 1074 795 b 1085 916 1081 833 1085 873 m 1004 232 z m 1461 699 l 1339 699 l 1339 960 l 936 960 l 936 838 l 1188 838 l 1188 494 l 1339 494 z "},"겫":{"ha":0,"x_min":0,"x_max":0,"o":"l 963 0 l 963 282 l 1051 282 l 1051 1426 l 926 1426 l 926 1576 l 1628 1576 l 1628 1426 l 1434 1426 l 1434 1190 b 1444 1310 1440 1228 1444 1268 "},"견":{"ha":0,"x_min":0,"x_max":0,"o":"l -241 0 l -241 -237 b -225 -90 -231 -191 -225 -141 l -799 -90 l -799 -210 l -391 -210 b -863 -647 -418 -404 -592 -560 l -799 -765 b -283 -359 -551 -689 -370 -548 l -4 -359 l -4 -511 l -300 -511 l -300 -635 l -4 -635 l -4 -902 l 146 -902 "},"겭":{"ha":-136,"x_min":0,"x_max":0,"o":"b -220 243 -138 45 -210 142 l -31 243 l -31 365 l -555 365 l -555 243 l -365 243 b -560 9 -374 149 -438 58 l -597 100 b -811 39 -652 65 -737 46 m -452 1035 z "},"겮":{"ha":0,"x_min":0,"x_max":0,"o":"b 547 1210 336 380 568 1378 b 168 891 404 1078 114 1013 l NaN NaN b NaN NaN NaN NaN NaN NaN l NaN NaN l NaN NaN l NaN NaN l NaN NaN "}}}
